%FSTAX23Y23*%
%MOMM*%
%SFA1B1*%

%IPPOS*%
%AMD36*
4,1,8,0.701040,-0.350520,0.701040,0.350520,0.350520,0.701040,-0.350520,0.701040,-0.701040,0.350520,-0.701040,-0.350520,-0.350520,-0.701040,0.350520,-0.701040,0.701040,-0.350520,0.0*
%
%ADD13R,1.399997X1.099998*%
%ADD14R,1.099998X1.399997*%
%ADD15R,1.699997X1.099998*%
%ADD17R,0.999998X1.299997*%
%ADD19R,1.149998X0.599999*%
%ADD20R,1.299997X0.999998*%
%ADD27C,0.253999*%
%ADD28C,0.499999*%
%ADD29C,0.255999*%
%ADD30C,0.999998*%
%ADD31R,1.499997X1.499997*%
%ADD32C,1.499997*%
%ADD33R,1.799996X1.799996*%
%ADD34C,1.799996*%
%ADD35C,1.199998*%
G04~CAMADD=36~4~0.0~0.0~551.2~551.2~0.0~137.8~0~0.0~0.0~0.0~0.0~0~0.0~0.0~0.0~0.0~0~0.0~0.0~0.0~270.0~552.0~552.0*
%ADD36D36*%
%ADD37C,1.399997*%
%ADD38R,1.599997X1.599997*%
%ADD39C,1.599997*%
%ADD40C,1.523997*%
%ADD41R,1.499997X1.499997*%
%ADD42C,5.499989*%
%ADD43C,0.599999*%
%ADD44R,0.599999X1.149998*%
%ADD45R,2.699995X0.999998*%
%ADD46R,2.699995X3.299993*%
%ADD47R,1.199998X1.399997*%
%ADD48O,1.649997X0.549999*%
%ADD49O,0.549999X1.649997*%
%ADD50C,0.399999*%
%ADD51C,0.299999*%
%ADD52C,0.599999*%
%ADD55C,0.127000*%
%LNpcb_final_2-1*%
%LPD*%
G54D55*
X49661Y0033D02*
X20967D01*
Y03266*
X22321*
X22439Y03217*
X22708Y03181*
X22975Y03217*
X23093Y03266*
X24861*
X24979Y03217*
X25248Y03181*
X25515Y03217*
X25633Y03266*
X27401*
X27519Y03217*
X27788Y03181*
X28055Y03217*
X28173Y03266*
X29941*
X30059Y03217*
X30328Y03181*
X30595Y03217*
X30844Y0332*
X31059Y03484*
X31223Y03698*
X31326Y03948*
X31362Y04215*
X31326Y04484*
X31223Y04734*
X31059Y04948*
X30844Y05112*
X30595Y05215*
X30328Y05251*
X30059Y05215*
X29809Y05112*
X29596Y04948*
X29486Y04805*
X28628*
X28519Y04948*
X28304Y05112*
X28055Y05215*
X27788Y05251*
X27519Y05215*
X27269Y05112*
X27055Y04948*
X26946Y04805*
X26088*
X25979Y04948*
X25764Y05112*
X25515Y05215*
X25248Y05251*
X24979Y05215*
X24729Y05112*
X24516Y04948*
X24406Y04805*
X23548*
X23439Y04948*
X23224Y05112*
X22975Y05215*
X22708Y05251*
X22439Y05215*
X22189Y05112*
X21975Y04948*
X21866Y04805*
X19969*
Y05063*
X21639Y06733*
X21638Y06734*
X21679Y06706*
X21708Y06488*
X21811Y06238*
X21975Y06024*
X22189Y0586*
X22439Y05757*
X22708Y05721*
X22975Y05757*
X23224Y0586*
X23439Y06024*
X23603Y06238*
X23706Y06488*
X23742Y06755*
X23706Y07024*
X23603Y07274*
X23439Y07488*
X23224Y07652*
X22975Y07755*
X22757Y07784*
X22729Y07825*
X2273Y07824*
X25616Y10711*
X25736Y10866*
X25813Y11053*
X25839Y11247*
Y17252*
X25888Y17273*
X26635Y16526*
X26799Y16416*
X26993Y16377*
X32936*
Y16136*
X36163*
Y17663*
X32936*
Y17422*
X30317*
Y19011*
X30226Y18988*
X30157Y1897*
X30093Y18944*
X30038Y1891*
X29993Y18868*
X29959Y18818*
X29939Y1876*
X3006Y19897*
Y19136*
X28713*
Y19263*
X28586*
Y21167*
X27742*
X27726Y21205*
X28081Y2156*
X28208Y21613*
X28363Y21733*
X28558Y21928*
X28607Y21913*
X28618Y21859*
X28755Y21655*
X28959Y21518*
X29136Y21482*
Y22036*
X29263*
Y22163*
X29817*
X29781Y2234*
X29644Y22544*
X2944Y22681*
X29233Y22722*
X29235Y22722*
X29179Y22794*
X29189Y22873*
Y23726*
X29163Y23921*
X29086Y24108*
X28966Y24263*
X28813Y24417*
Y24813*
X28494*
X2836Y24916*
X28174Y24993*
X27974Y2502*
X27775Y24993*
X27589Y24916*
X27455Y24813*
X27136*
Y24179*
X27097Y24163*
X26346Y24914*
Y26583*
X26399Y26636*
X26699*
X26826*
X26927*
Y26668*
X26966Y26474*
X27076Y2631*
X27136Y26249*
Y25586*
X28813*
Y26713*
X2832*
X28263Y2674*
Y28563*
X26826*
X26699*
X26572*
X26109*
X26102Y28567*
X25949Y28597*
X25797Y28567*
X2579Y28563*
X25136*
Y26636*
X25553*
Y24743*
X25582Y24597*
X25664Y24473*
X26827Y23311*
X26827Y23299*
X26869Y2308*
X26994Y22894*
X27092Y22827*
X27083Y22847*
X27088Y22745*
X25745Y21401*
X25696Y21422*
Y22276*
X25667Y22422*
X25585Y22546*
X25044Y23086*
Y32173*
X25015Y32319*
X24933Y32443*
X24361Y33015*
X24378Y33049*
X24499Y33025*
X24719Y33069*
X24905Y33194*
X2503Y3338*
X25074Y33599*
X2503Y33819*
X24906Y34005*
X24896Y34011*
Y35399*
Y36086*
X25563*
Y37213*
X23886*
Y36086*
X24103*
Y35399*
Y34011*
X24095Y34003*
X23969Y3382*
X23925Y33599*
X23949Y33478*
X23915Y33461*
X23476Y33899*
X23496Y33964*
X2352Y33969*
X23705Y34094*
X2383Y3428*
X23874Y34499*
X2383Y34719*
X23705Y34905*
X23519Y3503*
X23299Y35074*
X2308Y3503*
X23041Y35004*
X2254Y35506*
X22416Y35588*
X2227Y35617*
X21643*
X20996Y36264*
Y37686*
X21463*
Y38813*
X19786*
Y37686*
X20203*
Y36413*
X20163Y36396*
X18102Y38459*
X18119Y38516*
X18123Y3852*
X18285Y38627*
X18291Y38636*
X19213*
Y39763*
X17536*
Y39482*
X17474Y3944*
X17349Y39255*
X17351Y39261*
X17254Y39215*
X17189Y39228*
X16548*
X16546Y39229*
X16564Y39225*
X16572Y39213*
X16559Y39225*
X16505Y39305*
X16319Y3943*
X16099Y39474*
X1588Y3943*
X15693Y39305*
X15578Y39134*
X1558Y39137*
X15513Y39125*
X15222Y39416*
Y45383*
X15257Y45419*
X15329Y45486*
X15577*
X15676Y45356*
X15888Y45194*
X16135Y45092*
X16399Y45057*
X16664Y45092*
X1691Y45194*
X17123Y45356*
X17285Y45568*
X17387Y45815*
X17422Y46079*
X17387Y46344*
X17285Y4659*
X17123Y46803*
X1691Y46965*
X16664Y47067*
X16399Y47102*
X16135Y47067*
X15888Y46965*
X15769Y46873*
X15713Y46901*
Y47163*
X13886*
Y45636*
X14177*
Y45599*
Y40755*
X14138Y40739*
X11067Y4381*
Y47882*
X11586*
Y48836*
X11713*
Y48963*
X1226*
Y49118*
X12149Y49529*
X12196Y49476*
X12259Y49439*
X12338Y4941*
X12434Y49386*
X12517Y49374*
Y49681*
X16221*
X16221Y49673*
X16121Y49659*
X15861Y49552*
X15638Y49381*
X15389Y49056*
X158Y49078*
Y48202*
X15878Y48159*
X15849Y48166*
X15818Y48171*
X15737Y48177*
X15478Y48183*
X15454Y48183*
Y48817*
X14863*
Y47999*
Y47182*
X15767*
Y47705*
X1581Y47726*
X15862Y47687*
X16121Y4758*
X16336Y47551*
Y48556*
X16463*
Y48683*
X17007*
X17035Y48975*
X16962Y49028*
X16993Y49015*
X17029Y49007*
X17069Y49*
X17169Y48992*
X17404Y48985*
X17332Y49158*
X17161Y49381*
X16937Y49552*
X16678Y49659*
X16578Y49673*
X16578Y49681*
X49661*
Y0033*
X11125Y43789D02*
Y47853D01*
X11226Y43687D02*
Y47853D01*
X11328Y43586D02*
Y47853D01*
X11429Y43484D02*
Y47853D01*
X11531Y43383D02*
Y47853D01*
X11633Y43281D02*
Y48818D01*
X11734Y43179D02*
Y48945D01*
X11836Y43078D02*
Y48945D01*
X11937Y42976D02*
Y48945D01*
X12039Y42875D02*
Y48945D01*
X12141Y42773D02*
Y48945D01*
X12242Y42671D02*
Y48945D01*
Y4925D02*
Y49428D01*
X12344Y4257D02*
Y49377D01*
X12445Y42468D02*
Y49352D01*
X12547Y42367D02*
Y49682D01*
X12649Y42265D02*
Y49682D01*
X1275Y42163D02*
Y49682D01*
X12852Y42062D02*
Y49682D01*
X12953Y4196D02*
Y49682D01*
X13055Y41859D02*
Y49682D01*
X13157Y41757D02*
Y49682D01*
X13258Y41655D02*
Y49682D01*
X1336Y41554D02*
Y49682D01*
X13461Y41452D02*
Y49682D01*
X13563Y41351D02*
Y49682D01*
X13665Y41249D02*
Y49682D01*
X13766Y41147D02*
Y49682D01*
X13868Y41046D02*
Y49682D01*
X13969Y40944D02*
Y45618D01*
Y47193D02*
Y49682D01*
X14071Y40843D02*
Y45618D01*
Y47193D02*
Y49682D01*
X14173Y47193D02*
Y49682D01*
X14274Y47193D02*
Y49682D01*
X14376Y47193D02*
Y49682D01*
X14477Y47193D02*
Y49682D01*
X14579Y47193D02*
Y49682D01*
X14681Y47193D02*
Y49682D01*
X14782Y47193D02*
Y49682D01*
X14884Y47193D02*
Y47167D01*
Y48844D02*
Y49682D01*
X14985Y47193D02*
Y47167D01*
Y48844D02*
Y49682D01*
X15087Y47193D02*
Y47167D01*
Y48844D02*
Y49682D01*
X15189Y47193D02*
Y47167D01*
Y48844D02*
Y49682D01*
X1529Y39369D02*
Y4544D01*
Y47193D02*
Y47167D01*
Y48844D02*
Y49682D01*
X15392Y39268D02*
Y45465D01*
Y47193D02*
Y47167D01*
Y48844D02*
Y49682D01*
X15493Y39166D02*
Y45465D01*
Y47193D02*
Y47167D01*
Y48209D02*
Y49047D01*
Y49225D02*
Y49682D01*
X15595Y39217D02*
Y4544D01*
Y47193D02*
Y47167D01*
Y48209D02*
Y49047D01*
Y49352D02*
Y49682D01*
X15697Y39344D02*
Y45338D01*
Y47193D02*
Y47167D01*
Y48209D02*
Y49047D01*
Y49453D02*
Y49682D01*
X15798Y39395D02*
Y45262D01*
Y46913D02*
Y47701D01*
Y48209D02*
Y48183D01*
Y49555D02*
Y49682D01*
X159Y39471D02*
Y45161D01*
Y47015D02*
Y4765D01*
Y49606D02*
Y49682D01*
X16001Y39496D02*
Y45135D01*
Y4704D02*
Y47599D01*
Y49656D02*
Y49682D01*
X16103Y39496D02*
Y45084D01*
Y47091D02*
Y47574D01*
Y49682D02*
D01*
X16205Y39496D02*
Y45059D01*
Y47116D02*
Y47548D01*
X16306Y39471D02*
Y45059D01*
Y47116D02*
Y47548D01*
X16408Y39395D02*
Y45059D01*
Y47116D02*
Y48539D01*
X16509Y39319D02*
Y45059D01*
Y47116D02*
Y48666D01*
X16611Y39242D02*
Y45059D01*
Y47116D02*
Y48666D01*
X16713Y39242D02*
Y45084D01*
Y47091D02*
Y48666D01*
Y49682D02*
D01*
X16814Y39242D02*
Y45135D01*
Y4704D02*
Y48666D01*
Y49631D02*
Y49682D01*
X16916Y39242D02*
Y45186D01*
Y46989D02*
Y48666D01*
Y49606D02*
Y49682D01*
X17017Y39242D02*
Y45262D01*
Y46913D02*
Y48691D01*
Y49529D02*
Y49682D01*
X17119Y39242D02*
Y45364D01*
Y46837D02*
Y48971D01*
Y49453D02*
Y49682D01*
X17221Y39242D02*
Y45465D01*
Y4671D02*
Y48971D01*
Y49326D02*
Y49682D01*
X17322Y39293D02*
Y45618D01*
Y46558D02*
Y48971D01*
Y49174D02*
Y49682D01*
X17424Y39395D02*
Y49682D01*
X17525Y39776D02*
Y49682D01*
X17627Y39776D02*
Y49682D01*
X17729Y39776D02*
Y49682D01*
X1783Y39776D02*
Y49682D01*
X17932Y39776D02*
Y49682D01*
X18033Y39776D02*
Y49682D01*
X18135Y38455D02*
Y38531D01*
Y39776D02*
Y49682D01*
X18237Y38353D02*
Y38582D01*
Y39776D02*
Y49682D01*
X18338Y38252D02*
Y38607D01*
Y39776D02*
Y49682D01*
X1844Y3815D02*
Y38607D01*
Y39776D02*
Y49682D01*
X18541Y38049D02*
Y38607D01*
Y39776D02*
Y49682D01*
X18643Y37947D02*
Y38607D01*
Y39776D02*
Y49682D01*
X18745Y37845D02*
Y38607D01*
Y39776D02*
Y49682D01*
X18846Y37744D02*
Y38607D01*
Y39776D02*
Y49682D01*
X18948Y37642D02*
Y38607D01*
Y39776D02*
Y49682D01*
X19049Y37541D02*
Y38607D01*
Y39776D02*
Y49682D01*
X19151Y37439D02*
Y38607D01*
Y39776D02*
Y49682D01*
X19253Y37337D02*
Y49682D01*
X19354Y37236D02*
Y49682D01*
X19456Y37134D02*
Y49682D01*
X19557Y37033D02*
Y49682D01*
X19659Y36931D02*
Y49682D01*
X19761Y36829D02*
Y49682D01*
X19862Y36728D02*
Y37668D01*
Y38836D02*
Y49682D01*
X19964Y04825D02*
Y05054D01*
Y36626D02*
Y37668D01*
Y38836D02*
Y49682D01*
X20065Y04825D02*
Y05156D01*
Y36525D02*
Y37668D01*
Y38836D02*
Y49682D01*
X20167Y04825D02*
Y05257D01*
Y36448D02*
Y37668D01*
Y38836D02*
Y49682D01*
X20269Y04825D02*
Y05359D01*
Y38836D02*
Y49682D01*
X2037Y04825D02*
Y0546D01*
Y38836D02*
Y49682D01*
X20472Y04825D02*
Y05562D01*
Y38836D02*
Y49682D01*
X20573Y04825D02*
Y05664D01*
Y38836D02*
Y49682D01*
X20675Y04825D02*
Y05765D01*
Y38836D02*
Y49682D01*
X20777Y04825D02*
Y05867D01*
Y38836D02*
Y49682D01*
X20878Y04825D02*
Y05968D01*
Y38836D02*
Y49682D01*
X2098Y00355D02*
Y03251D01*
Y04825D02*
Y0607D01*
Y38836D02*
Y49682D01*
X21081Y00355D02*
Y03251D01*
Y04825D02*
Y06172D01*
Y3622D02*
Y37668D01*
Y38836D02*
Y49682D01*
X21183Y00355D02*
Y03251D01*
Y04825D02*
Y06273D01*
Y36118D02*
Y37668D01*
Y38836D02*
Y49682D01*
X21285Y00355D02*
Y03251D01*
Y04825D02*
Y06375D01*
Y36017D02*
Y37668D01*
Y38836D02*
Y49682D01*
X21386Y00355D02*
Y03251D01*
Y04825D02*
Y06476D01*
Y35915D02*
Y37668D01*
Y38836D02*
Y49682D01*
X21488Y00355D02*
Y03251D01*
Y04825D02*
Y06578D01*
Y35813D02*
Y49682D01*
X21589Y00355D02*
Y03251D01*
Y04825D02*
Y0668D01*
Y35712D02*
Y49682D01*
X21691Y00355D02*
Y03251D01*
Y04825D02*
Y0668D01*
Y35636D02*
Y49682D01*
X21793Y00355D02*
Y03251D01*
Y04825D02*
Y06299D01*
Y35636D02*
Y49682D01*
X21894Y00355D02*
Y03251D01*
Y04876D02*
Y06121D01*
Y35636D02*
Y49682D01*
X21996Y00355D02*
Y03251D01*
Y05003D02*
Y05994D01*
Y35636D02*
Y49682D01*
X22097Y00355D02*
Y03251D01*
Y05079D02*
Y05918D01*
Y35636D02*
Y49682D01*
X22199Y00355D02*
Y03251D01*
Y05156D02*
Y05841D01*
Y35636D02*
Y49682D01*
X22301Y00355D02*
Y03251D01*
Y05181D02*
Y05816D01*
Y35636D02*
Y49682D01*
X22402Y00355D02*
Y03225D01*
Y05232D02*
Y05765D01*
Y35636D02*
Y49682D01*
X22504Y00355D02*
Y032D01*
Y05257D02*
Y0574D01*
Y35559D02*
Y49682D01*
X22605Y00355D02*
Y03174D01*
Y05283D02*
Y05714D01*
Y35458D02*
Y49682D01*
X22707Y00355D02*
Y03174D01*
Y05283D02*
Y05714D01*
Y35356D02*
Y49682D01*
X22809Y00355D02*
Y03174D01*
Y05283D02*
Y05714D01*
Y07797D02*
Y07899D01*
Y35255D02*
Y49682D01*
X2291Y00355D02*
Y032D01*
Y05257D02*
Y0574D01*
Y07797D02*
Y08D01*
Y35153D02*
Y49682D01*
X23012Y00355D02*
Y03225D01*
Y05232D02*
Y05765D01*
Y07772D02*
Y08102D01*
Y35051D02*
Y49682D01*
X23113Y00355D02*
Y03251D01*
Y05181D02*
Y05816D01*
Y07721D02*
Y08204D01*
Y35077D02*
Y49682D01*
X23215Y00355D02*
Y03251D01*
Y0513D02*
Y05867D01*
Y0767D02*
Y08305D01*
Y35102D02*
Y49682D01*
X23317Y00355D02*
Y03251D01*
Y05079D02*
Y05918D01*
Y07619D02*
Y08407D01*
Y35102D02*
Y49682D01*
X23418Y00355D02*
Y03251D01*
Y05003D02*
Y05994D01*
Y07543D02*
Y08508D01*
Y35077D02*
Y49682D01*
X2352Y00355D02*
Y03251D01*
Y04876D02*
Y06121D01*
Y07416D02*
Y0861D01*
Y33883D02*
Y33959D01*
Y35051D02*
Y49682D01*
X23621Y00355D02*
Y03251D01*
Y04825D02*
Y06299D01*
Y07238D02*
Y08712D01*
Y33781D02*
Y3401D01*
Y35001D02*
Y49682D01*
X23723Y00355D02*
Y03251D01*
Y04825D02*
Y06603D01*
Y06934D02*
Y08813D01*
Y3368D02*
Y34112D01*
Y34899D02*
Y49682D01*
X23825Y00355D02*
Y03251D01*
Y04825D02*
Y08915D01*
Y33578D02*
Y34289D01*
Y34747D02*
Y49682D01*
X23926Y00355D02*
Y03251D01*
Y04825D02*
Y09016D01*
Y33502D02*
Y33578D01*
Y33654D02*
Y36067D01*
Y37236D02*
Y49682D01*
X24028Y00355D02*
Y03251D01*
Y04825D02*
Y09118D01*
Y33934D02*
Y36067D01*
Y37236D02*
Y49682D01*
X24129Y00355D02*
Y03251D01*
Y04825D02*
Y0922D01*
Y37236D02*
Y49682D01*
X24231Y00355D02*
Y03251D01*
Y04825D02*
Y09321D01*
Y37236D02*
Y49682D01*
X24333Y00355D02*
Y03251D01*
Y04825D02*
Y09423D01*
Y37236D02*
Y49682D01*
X24434Y00355D02*
Y03251D01*
Y04876D02*
Y09524D01*
Y32969D02*
Y33019D01*
Y37236D02*
Y49682D01*
X24536Y00355D02*
Y03251D01*
Y05003D02*
Y09626D01*
Y32867D02*
Y33019D01*
Y37236D02*
Y49682D01*
X24637Y00355D02*
Y03251D01*
Y05079D02*
Y09728D01*
Y32765D02*
Y33045D01*
Y37236D02*
Y49682D01*
X24739Y00355D02*
Y03251D01*
Y05156D02*
Y09829D01*
Y32664D02*
Y3307D01*
Y37236D02*
Y49682D01*
X24841Y00355D02*
Y03251D01*
Y05181D02*
Y09931D01*
Y32562D02*
Y33146D01*
Y37236D02*
Y49682D01*
X24942Y00355D02*
Y03225D01*
Y05232D02*
Y10032D01*
Y32461D02*
Y33223D01*
Y33985D02*
Y36067D01*
Y37236D02*
Y49682D01*
X25044Y00355D02*
Y032D01*
Y05257D02*
Y10134D01*
Y23113D02*
Y33477D01*
Y33731D02*
Y36067D01*
Y37236D02*
Y49682D01*
X25145Y00355D02*
Y03174D01*
Y05283D02*
Y10236D01*
Y23012D02*
Y26619D01*
Y286D02*
Y36067D01*
Y37236D02*
Y49682D01*
X25247Y00355D02*
Y03174D01*
Y05283D02*
Y10337D01*
Y2291D02*
Y26619D01*
Y286D02*
Y36067D01*
Y37236D02*
Y49682D01*
X25349Y00355D02*
Y03174D01*
Y05283D02*
Y10439D01*
Y22809D02*
Y26619D01*
Y286D02*
Y36067D01*
Y37236D02*
Y49682D01*
X2545Y00355D02*
Y032D01*
Y05257D02*
Y1054D01*
Y22707D02*
Y26619D01*
Y286D02*
Y36067D01*
Y37236D02*
Y49682D01*
X25552Y00355D02*
Y03225D01*
Y05232D02*
Y10642D01*
Y22605D02*
Y24714D01*
Y286D02*
Y49682D01*
X25653Y00355D02*
Y03251D01*
Y05181D02*
Y10744D01*
Y22504D02*
Y2446D01*
Y286D02*
Y49682D01*
X25755Y00355D02*
Y03251D01*
Y0513D02*
Y10921D01*
Y21462D02*
Y24358D01*
Y286D02*
Y49682D01*
X25857Y00355D02*
Y03251D01*
Y05079D02*
Y17246D01*
Y21564D02*
Y24256D01*
Y28625D02*
Y49682D01*
X25958Y00355D02*
Y03251D01*
Y05003D02*
Y17195D01*
Y21666D02*
Y24155D01*
Y28625D02*
Y49682D01*
X2606Y00355D02*
Y03251D01*
Y04876D02*
Y17094D01*
Y21767D02*
Y24053D01*
Y28625D02*
Y49682D01*
X26161Y00355D02*
Y03251D01*
Y04825D02*
Y16992D01*
Y21869D02*
Y23952D01*
Y286D02*
Y49682D01*
X26263Y00355D02*
Y03251D01*
Y04825D02*
Y1689D01*
Y2197D02*
Y2385D01*
Y286D02*
Y49682D01*
X26365Y00355D02*
Y03251D01*
Y04825D02*
Y16789D01*
Y22072D02*
Y23748D01*
Y24917D02*
Y26619D01*
Y286D02*
Y49682D01*
X26466Y00355D02*
Y03251D01*
Y04825D02*
Y16687D01*
Y22174D02*
Y23647D01*
Y24815D02*
Y26619D01*
Y286D02*
Y49682D01*
X26568Y00355D02*
Y03251D01*
Y04825D02*
Y16586D01*
Y22275D02*
Y23545D01*
Y24714D02*
Y26619D01*
Y286D02*
Y49682D01*
X26669Y00355D02*
Y03251D01*
Y04825D02*
Y16509D01*
Y22377D02*
Y23444D01*
Y24612D02*
Y26619D01*
Y286D02*
Y49682D01*
X26771Y00355D02*
Y03251D01*
Y04825D02*
Y16408D01*
Y22478D02*
Y23342D01*
Y2451D02*
Y26619D01*
Y286D02*
Y49682D01*
X26873Y00355D02*
Y03251D01*
Y04825D02*
Y16382D01*
Y2258D02*
Y23063D01*
Y24409D02*
Y26619D01*
Y286D02*
Y49682D01*
X26974Y00355D02*
Y03251D01*
Y04876D02*
Y16382D01*
Y22682D02*
Y2291D01*
Y24307D02*
Y26441D01*
Y286D02*
Y49682D01*
X27076Y00355D02*
Y03251D01*
Y05003D02*
Y16357D01*
Y22859D02*
Y22834D01*
Y24206D02*
Y26288D01*
Y286D02*
Y49682D01*
X27177Y00355D02*
Y03251D01*
Y05079D02*
Y16357D01*
Y24841D02*
Y25552D01*
Y286D02*
Y49682D01*
X27279Y00355D02*
Y03251D01*
Y05156D02*
Y16357D01*
Y24841D02*
Y25552D01*
Y286D02*
Y49682D01*
X27381Y00355D02*
Y03251D01*
Y05181D02*
Y16357D01*
Y24841D02*
Y25552D01*
Y286D02*
Y49682D01*
X27482Y00355D02*
Y03225D01*
Y05232D02*
Y16357D01*
Y24866D02*
Y25552D01*
Y286D02*
Y49682D01*
X27584Y00355D02*
Y032D01*
Y05257D02*
Y16357D01*
Y24968D02*
Y25552D01*
Y286D02*
Y49682D01*
X27685Y00355D02*
Y03174D01*
Y05283D02*
Y16357D01*
Y24993D02*
Y25552D01*
Y286D02*
Y49682D01*
X27787Y00355D02*
Y03174D01*
Y05283D02*
Y16357D01*
Y21183D02*
Y21259D01*
Y25044D02*
Y25552D01*
Y286D02*
Y49682D01*
X27889Y00355D02*
Y03174D01*
Y05283D02*
Y16357D01*
Y21183D02*
Y21361D01*
Y25044D02*
Y25552D01*
Y286D02*
Y49682D01*
X2799Y00355D02*
Y032D01*
Y05257D02*
Y16357D01*
Y21183D02*
Y21462D01*
Y25044D02*
Y25552D01*
Y286D02*
Y49682D01*
X28092Y00355D02*
Y03225D01*
Y05232D02*
Y16357D01*
Y21183D02*
Y21564D01*
Y25044D02*
Y25552D01*
Y286D02*
Y49682D01*
X28193Y00355D02*
Y03251D01*
Y05181D02*
Y16357D01*
Y21183D02*
Y21589D01*
Y25018D02*
Y25552D01*
Y286D02*
Y49682D01*
X28295Y00355D02*
Y03251D01*
Y0513D02*
Y16357D01*
Y21183D02*
Y21666D01*
Y24993D02*
Y25552D01*
Y26771D02*
Y49682D01*
X28397Y00355D02*
Y03251D01*
Y05079D02*
Y16357D01*
Y21183D02*
Y21767D01*
Y24942D02*
Y25552D01*
Y26746D02*
Y49682D01*
X28498Y00355D02*
Y03251D01*
Y05003D02*
Y16357D01*
Y21183D02*
Y21869D01*
Y24841D02*
Y25552D01*
Y26746D02*
Y49682D01*
X286Y00355D02*
Y03251D01*
Y04876D02*
Y16357D01*
Y19278D02*
Y21894D01*
Y24841D02*
Y25552D01*
Y26746D02*
Y49682D01*
X28701Y00355D02*
Y03251D01*
Y04825D02*
Y16357D01*
Y19151D02*
Y21742D01*
Y24841D02*
Y25552D01*
Y26746D02*
Y49682D01*
X28803Y00355D02*
Y03251D01*
Y04825D02*
Y16357D01*
Y19151D02*
Y21615D01*
Y24434D02*
Y49682D01*
X28905Y00355D02*
Y03251D01*
Y04825D02*
Y16357D01*
Y19151D02*
Y21539D01*
Y24333D02*
Y49682D01*
X29006Y00355D02*
Y03251D01*
Y04825D02*
Y16357D01*
Y19151D02*
Y21488D01*
Y24231D02*
Y49682D01*
X29108Y00355D02*
Y03251D01*
Y04825D02*
Y16357D01*
Y19151D02*
Y21488D01*
Y24079D02*
Y49682D01*
X29209Y00355D02*
Y03251D01*
Y04825D02*
Y16357D01*
Y19151D02*
Y22021D01*
Y22783D02*
Y49682D01*
X29311Y00355D02*
Y03251D01*
Y04825D02*
Y16357D01*
Y19151D02*
Y22148D01*
Y22758D02*
Y49682D01*
X29413Y00355D02*
Y03251D01*
Y04825D02*
Y16357D01*
Y19151D02*
Y22148D01*
Y22732D02*
Y49682D01*
X29514Y00355D02*
Y03251D01*
Y04876D02*
Y16357D01*
Y19151D02*
Y22148D01*
Y22682D02*
Y49682D01*
X29616Y00355D02*
Y03251D01*
Y05003D02*
Y16357D01*
Y19151D02*
Y22148D01*
Y22605D02*
Y49682D01*
X29717Y00355D02*
Y03251D01*
Y05079D02*
Y16357D01*
Y19151D02*
Y22148D01*
Y22478D02*
Y49682D01*
X29819Y00355D02*
Y03251D01*
Y05156D02*
Y16357D01*
Y19151D02*
Y49682D01*
X29921Y00355D02*
Y03251D01*
Y05181D02*
Y16357D01*
Y19151D02*
Y49682D01*
X30022Y00355D02*
Y03225D01*
Y05232D02*
Y16357D01*
Y18948D02*
Y49682D01*
X30124Y00355D02*
Y032D01*
Y05257D02*
Y16357D01*
Y18999D02*
Y49682D01*
X30225Y00355D02*
Y03174D01*
Y05283D02*
Y16357D01*
Y19024D02*
Y49682D01*
X30327Y00355D02*
Y03174D01*
Y05283D02*
Y16357D01*
Y17449D02*
Y49682D01*
X30429Y00355D02*
Y03174D01*
Y05283D02*
Y16357D01*
Y17449D02*
Y49682D01*
X3053Y00355D02*
Y032D01*
Y05257D02*
Y16357D01*
Y17449D02*
Y49682D01*
X30632Y00355D02*
Y03225D01*
Y05232D02*
Y16357D01*
Y17449D02*
Y49682D01*
X30733Y00355D02*
Y03276D01*
Y05181D02*
Y16357D01*
Y17449D02*
Y49682D01*
X30835Y00355D02*
Y03327D01*
Y0513D02*
Y16357D01*
Y17449D02*
Y49682D01*
X30937Y00355D02*
Y03378D01*
Y05079D02*
Y16357D01*
Y17449D02*
Y49682D01*
X31038Y00355D02*
Y03454D01*
Y05003D02*
Y16357D01*
Y17449D02*
Y49682D01*
X3114Y00355D02*
Y03581D01*
Y04876D02*
Y16357D01*
Y17449D02*
Y49682D01*
X31241Y00355D02*
Y03759D01*
Y04698D02*
Y16357D01*
Y17449D02*
Y49682D01*
X31343Y00355D02*
Y04063D01*
Y04394D02*
Y16357D01*
Y17449D02*
Y49682D01*
X31445Y00355D02*
Y16357D01*
Y17449D02*
Y49682D01*
X31546Y00355D02*
Y16357D01*
Y17449D02*
Y49682D01*
X31648Y00355D02*
Y16357D01*
Y17449D02*
Y49682D01*
X31749Y00355D02*
Y16357D01*
Y17449D02*
Y49682D01*
X31851Y00355D02*
Y16357D01*
Y17449D02*
Y49682D01*
X31953Y00355D02*
Y16357D01*
Y17449D02*
Y49682D01*
X32054Y00355D02*
Y16357D01*
Y17449D02*
Y49682D01*
X32156Y00355D02*
Y16357D01*
Y17449D02*
Y49682D01*
X32257Y00355D02*
Y16357D01*
Y17449D02*
Y49682D01*
X32359Y00355D02*
Y16357D01*
Y17449D02*
Y49682D01*
X32461Y00355D02*
Y16357D01*
Y17449D02*
Y49682D01*
X32562Y00355D02*
Y16357D01*
Y17449D02*
Y49682D01*
X32664Y00355D02*
Y16357D01*
Y17449D02*
Y49682D01*
X32765Y00355D02*
Y16357D01*
Y17449D02*
Y49682D01*
X32867Y00355D02*
Y16357D01*
Y17449D02*
Y49682D01*
X32969Y00355D02*
Y16103D01*
Y17678D02*
Y49682D01*
X3307Y00355D02*
Y16103D01*
Y17678D02*
Y49682D01*
X33172Y00355D02*
Y16103D01*
Y17678D02*
Y49682D01*
X33273Y00355D02*
Y16103D01*
Y17678D02*
Y49682D01*
X33375Y00355D02*
Y16103D01*
Y17678D02*
Y49682D01*
X33477Y00355D02*
Y16103D01*
Y17678D02*
Y49682D01*
X33578Y00355D02*
Y16103D01*
Y17678D02*
Y49682D01*
X3368Y00355D02*
Y16103D01*
Y17678D02*
Y49682D01*
X33781Y00355D02*
Y16103D01*
Y17678D02*
Y49682D01*
X33883Y00355D02*
Y16103D01*
Y17678D02*
Y49682D01*
X33985Y00355D02*
Y16103D01*
Y17678D02*
Y49682D01*
X34086Y00355D02*
Y16103D01*
Y17678D02*
Y49682D01*
X34188Y00355D02*
Y16103D01*
Y17678D02*
Y49682D01*
X34289Y00355D02*
Y16103D01*
Y17678D02*
Y49682D01*
X34391Y00355D02*
Y16103D01*
Y17678D02*
Y49682D01*
X34493Y00355D02*
Y16103D01*
Y17678D02*
Y49682D01*
X34594Y00355D02*
Y16103D01*
Y17678D02*
Y49682D01*
X34696Y00355D02*
Y16103D01*
Y17678D02*
Y49682D01*
X34797Y00355D02*
Y16103D01*
Y17678D02*
Y49682D01*
X34899Y00355D02*
Y16103D01*
Y17678D02*
Y49682D01*
X35001Y00355D02*
Y16103D01*
Y17678D02*
Y49682D01*
X35102Y00355D02*
Y16103D01*
Y17678D02*
Y49682D01*
X35204Y00355D02*
Y16103D01*
Y17678D02*
Y49682D01*
X35305Y00355D02*
Y16103D01*
Y17678D02*
Y49682D01*
X35407Y00355D02*
Y16103D01*
Y17678D02*
Y49682D01*
X35509Y00355D02*
Y16103D01*
Y17678D02*
Y49682D01*
X3561Y00355D02*
Y16103D01*
Y17678D02*
Y49682D01*
X35712Y00355D02*
Y16103D01*
Y17678D02*
Y49682D01*
X35813Y00355D02*
Y16103D01*
Y17678D02*
Y49682D01*
X35915Y00355D02*
Y16103D01*
Y17678D02*
Y49682D01*
X36017Y00355D02*
Y16103D01*
Y17678D02*
Y49682D01*
X36118Y00355D02*
Y16103D01*
Y17678D02*
Y49682D01*
X3622Y00355D02*
Y49682D01*
X36321Y00355D02*
Y49682D01*
X36423Y00355D02*
Y49682D01*
X36525Y00355D02*
Y49682D01*
X36626Y00355D02*
Y49682D01*
X36728Y00355D02*
Y49682D01*
X36829Y00355D02*
Y49682D01*
X36931Y00355D02*
Y49682D01*
X37033Y00355D02*
Y49682D01*
X37134Y00355D02*
Y49682D01*
X37236Y00355D02*
Y49682D01*
X37337Y00355D02*
Y49682D01*
X37439Y00355D02*
Y49682D01*
X37541Y00355D02*
Y49682D01*
X37642Y00355D02*
Y49682D01*
X37744Y00355D02*
Y49682D01*
X37845Y00355D02*
Y49682D01*
X37947Y00355D02*
Y49682D01*
X38049Y00355D02*
Y49682D01*
X3815Y00355D02*
Y49682D01*
X38252Y00355D02*
Y49682D01*
X38353Y00355D02*
Y49682D01*
X38455Y00355D02*
Y49682D01*
X38557Y00355D02*
Y49682D01*
X38658Y00355D02*
Y49682D01*
X3876Y00355D02*
Y49682D01*
X38861Y00355D02*
Y49682D01*
X38963Y00355D02*
Y49682D01*
X39065Y00355D02*
Y49682D01*
X39166Y00355D02*
Y49682D01*
X39268Y00355D02*
Y49682D01*
X39369Y00355D02*
Y49682D01*
X39471Y00355D02*
Y49682D01*
X39573Y00355D02*
Y49682D01*
X39674Y00355D02*
Y49682D01*
X39776Y00355D02*
Y49682D01*
X39877Y00355D02*
Y49682D01*
X39979Y00355D02*
Y49682D01*
X40081Y00355D02*
Y49682D01*
X40182Y00355D02*
Y49682D01*
X40284Y00355D02*
Y49682D01*
X40385Y00355D02*
Y49682D01*
X40487Y00355D02*
Y49682D01*
X40589Y00355D02*
Y49682D01*
X4069Y00355D02*
Y49682D01*
X40792Y00355D02*
Y49682D01*
X40893Y00355D02*
Y49682D01*
X40995Y00355D02*
Y49682D01*
X41097Y00355D02*
Y49682D01*
X41198Y00355D02*
Y49682D01*
X413Y00355D02*
Y49682D01*
X41401Y00355D02*
Y49682D01*
X41503Y00355D02*
Y49682D01*
X41605Y00355D02*
Y49682D01*
X41706Y00355D02*
Y49682D01*
X41808Y00355D02*
Y49682D01*
X41909Y00355D02*
Y49682D01*
X42011Y00355D02*
Y49682D01*
X42113Y00355D02*
Y49682D01*
X42214Y00355D02*
Y49682D01*
X42316Y00355D02*
Y49682D01*
X42417Y00355D02*
Y49682D01*
X42519Y00355D02*
Y49682D01*
X42621Y00355D02*
Y49682D01*
X42722Y00355D02*
Y49682D01*
X42824Y00355D02*
Y49682D01*
X42925Y00355D02*
Y49682D01*
X43027Y00355D02*
Y49682D01*
X43129Y00355D02*
Y49682D01*
X4323Y00355D02*
Y49682D01*
X43332Y00355D02*
Y49682D01*
X43433Y00355D02*
Y49682D01*
X43535Y00355D02*
Y49682D01*
X43637Y00355D02*
Y49682D01*
X43738Y00355D02*
Y49682D01*
X4384Y00355D02*
Y49682D01*
X43941Y00355D02*
Y49682D01*
X44043Y00355D02*
Y49682D01*
X44145Y00355D02*
Y49682D01*
X44246Y00355D02*
Y49682D01*
X44348Y00355D02*
Y49682D01*
X44449Y00355D02*
Y49682D01*
X44551Y00355D02*
Y49682D01*
X44653Y00355D02*
Y49682D01*
X44754Y00355D02*
Y49682D01*
X44856Y00355D02*
Y49682D01*
X44957Y00355D02*
Y49682D01*
X45059Y00355D02*
Y49682D01*
X45161Y00355D02*
Y49682D01*
X45262Y00355D02*
Y49682D01*
X45364Y00355D02*
Y49682D01*
X45465Y00355D02*
Y49682D01*
X45567Y00355D02*
Y49682D01*
X45669Y00355D02*
Y49682D01*
X4577Y00355D02*
Y49682D01*
X45872Y00355D02*
Y49682D01*
X45973Y00355D02*
Y49682D01*
X46075Y00355D02*
Y49682D01*
X46177Y00355D02*
Y49682D01*
X46278Y00355D02*
Y49682D01*
X4638Y00355D02*
Y49682D01*
X46481Y00355D02*
Y49682D01*
X46583Y00355D02*
Y49682D01*
X46685Y00355D02*
Y49682D01*
X46786Y00355D02*
Y49682D01*
X46888Y00355D02*
Y49682D01*
X46989Y00355D02*
Y49682D01*
X47091Y00355D02*
Y49682D01*
X47193Y00355D02*
Y49682D01*
X47294Y00355D02*
Y49682D01*
X47396Y00355D02*
Y49682D01*
X47497Y00355D02*
Y49682D01*
X47599Y00355D02*
Y49682D01*
X47701Y00355D02*
Y49682D01*
X47802Y00355D02*
Y49682D01*
X47904Y00355D02*
Y49682D01*
X48005Y00355D02*
Y49682D01*
X48107Y00355D02*
Y49682D01*
X48209Y00355D02*
Y49682D01*
X4831Y00355D02*
Y49682D01*
X48412Y00355D02*
Y49682D01*
X48513Y00355D02*
Y49682D01*
X48615Y00355D02*
Y49682D01*
X48717Y00355D02*
Y49682D01*
X48818Y00355D02*
Y49682D01*
X4892Y00355D02*
Y49682D01*
X49021Y00355D02*
Y49682D01*
X49123Y00355D02*
Y49682D01*
X49225Y00355D02*
Y49682D01*
X49326Y00355D02*
Y49682D01*
X49428Y00355D02*
Y49682D01*
X49529Y00355D02*
Y49682D01*
X49631Y00355D02*
Y49682D01*
X09282Y49088D02*
X09373Y49111D01*
X09443Y49129*
X09506Y49156*
X09561Y49188*
X09606Y4923*
X0964Y49281*
X0966Y49338*
X09539Y48202*
Y48963*
X10086*
Y48836*
X10213*
Y47882*
X10736*
Y43673*
X14177Y40232*
Y39193*
X14216Y38999*
X14326Y38835*
X22159Y31001*
X22164Y31052*
X22106Y31032*
X16044Y37093*
X1588Y37203*
X15686Y37242*
X11281*
X11276Y37267*
X11371Y37306*
X11776Y37554*
X12137Y37862*
X12445Y38223*
X12693Y38628*
X12874Y39066*
X12985Y39526*
X13022Y39999*
X12985Y40472*
X12874Y40933*
X12693Y41371*
X12445Y41776*
X12137Y42137*
X11776Y42445*
X11371Y42693*
X10933Y42874*
X10472Y42985*
X09999Y43022*
X09527Y42985*
X09066Y42874*
X08628Y42693*
X08223Y42445*
X07862Y42137*
X07554Y41776*
X07306Y41371*
X07125Y40933*
X07014Y40472*
X06977Y39999*
X07014Y39526*
X07125Y39066*
X07306Y38628*
X07424Y38434*
X07412Y38425*
X04928Y4091*
X04898Y41133*
X04796Y4138*
X04634Y41591*
X04423Y41753*
X04176Y41855*
X03911Y41891*
X03647Y41855*
X03399Y41753*
X03188Y41591*
X03026Y4138*
X02924Y41133*
X02888Y40868*
X02924Y40604*
X03026Y40356*
X03188Y40145*
X03399Y39983*
X03647Y39881*
X03911Y39845*
X04176Y39881*
X04422Y39983*
X04397Y39964*
X07707Y36654*
X07687Y36587*
X07739Y36599*
X05824Y38513*
X0566Y38623*
X05466Y38662*
X0487*
X04796Y3884*
X04634Y39051*
X04423Y39213*
X04176Y39315*
X03911Y39351*
X03647Y39315*
X03399Y39213*
X03188Y39051*
X03026Y3884*
X02924Y38593*
X02888Y38328*
X02924Y38064*
X03026Y37816*
X03188Y37605*
X03399Y37443*
X03647Y37341*
X03911Y37305*
X04176Y37341*
X04423Y37443*
X04634Y37605*
X04643Y37617*
X05243*
X06534Y36326*
X06515Y36287*
X06501Y36288*
X06234Y36253*
X05984Y36151*
X0577Y35986*
X05606Y35771*
X05503Y35522*
X05467Y35254*
X05503Y34987*
X05606Y34737*
X0577Y34523*
X05984Y34359*
X06234Y34256*
X06362Y34238*
X06924Y33677*
X0691Y33656*
X0677Y33713*
X06501Y3375*
X06234Y33713*
X05984Y33611*
X0577Y33446*
X05606Y33231*
X05503Y32982*
X05467Y32714*
X05503Y32447*
X05606Y32197*
X0577Y31983*
X05984Y31819*
X06234Y31716*
X06501Y3168*
X06571Y31689*
X06775Y31486*
X06939Y31376*
X07036Y31356*
X07057Y31296*
X06887Y31125*
X0677Y31173*
X06501Y3121*
X06234Y31173*
X05984Y31071*
X0577Y30906*
X05606Y30691*
X05503Y30442*
X05467Y30174*
X05503Y29907*
X05606Y29657*
X0577Y29443*
X05984Y29279*
X06234Y29176*
X06501Y2914*
X0677Y29176*
X0702Y29279*
X07233Y29443*
X07398Y29657*
X07501Y29907*
X07537Y30175*
X07522Y30284*
X07816Y30577*
X11283*
X14077Y27783*
Y25163*
Y25133*
X14073Y25074*
Y25068*
X14072Y25057*
X14072Y25059*
X14052Y24956*
Y23843*
X14093Y2364*
X14212Y23462*
X1439Y23343*
X14599Y23301*
X14809Y23343*
X14938Y23428*
X15011Y23438*
X15026Y23403*
X14918Y2324*
X14882Y23063*
X16117*
X16081Y2324*
X16051Y23286*
X16081Y23324*
X162Y23301*
X16409Y23343*
X16538Y23428*
X16599Y23436*
X16661Y23428*
X1679Y23343*
X16999Y23301*
X17209Y23343*
X17338Y23428*
X17399Y23436*
X17461Y23428*
X1759Y23343*
X17799Y23301*
X18009Y23343*
X18161Y23444*
X18238*
X1839Y23343*
X18599Y23301*
X18809Y23343*
X18938Y23428*
X18999Y23436*
X19061Y23428*
X1919Y23343*
X19399Y23301*
X19609Y23343*
X19738Y23428*
X19799Y23436*
X19861Y23428*
X1999Y23343*
X20199Y23301*
X20409Y23343*
X20587Y23462*
X20706Y2364*
X20747Y23843*
Y24956*
X20722Y25084*
Y30883*
X20761Y30899*
X21687Y29973*
Y23547*
X21043*
X2084Y23506*
X20662Y23387*
X20543Y23209*
X20501Y22999*
X20543Y2279*
X20549Y2278*
X20517Y22722*
X16393*
X16199Y22683*
X16035Y22573*
X15383Y21922*
X14266*
X14241Y21967*
X14256Y2199*
X14298Y22199*
X14256Y22409*
X14171Y22538*
X14163Y22599*
X14171Y22661*
X14256Y2279*
X14298Y22999*
X14256Y23209*
X14137Y23387*
X13959Y23506*
X13756Y23547*
X12791*
X12422Y23916*
Y26986*
Y26986*
X12463*
Y2724*
X12466Y2725*
X12463Y27263*
Y28813*
X12381*
X12383Y288*
X12273Y28964*
X11638Y296*
Y30016*
X11151Y30503*
X10198*
X09711Y30016*
Y29063*
X09868Y28906*
X09852Y28867*
X09282*
Y27963*
X10036*
Y27836*
X09282*
Y27167*
X09063*
Y26263*
X09817*
Y26932*
X09836*
Y25564*
X09833Y25552*
X09836Y25541*
Y25345*
X09854Y25221*
X09853Y25224*
X0985Y25207*
X0984Y25155*
X0984Y25156*
X0984Y25157*
X0984Y25155*
X09833Y25145*
X09736Y24911*
X09702Y24659*
X09736Y24408*
X09833Y24173*
X09987Y23972*
X1Y23963*
X10016Y23881*
X10126Y23716*
X11838Y22004*
X1182Y2197*
X118Y21974*
X1158Y2193*
X11394Y21805*
X11269Y21619*
X11225Y21399*
X11269Y2118*
X11394Y20994*
X1158Y20869*
X11799Y20825*
X11994Y20864*
X12041Y20854*
X12087Y20787*
X12515Y20799*
Y20663*
X13199*
X14341*
X14307Y20829*
X14316Y20816*
X14349Y20877*
X15606*
X158Y20916*
X15964Y21026*
X16616Y21677*
X20533*
X20558Y21632*
X20543Y21609*
X20501Y21399*
X20543Y2119*
X20549Y2118*
X20517Y21122*
X16493*
X16299Y21083*
X16135Y20973*
X15483Y20322*
X14331*
X14306Y20367*
X14307Y20369*
X14341Y20536*
X13199*
X12515*
Y20416*
X12577Y204*
X12552Y20403*
X12478Y20408*
X12084Y20412*
X12033Y20352*
X12004Y20337*
X11817Y20374*
X11598Y2033*
X11412Y20205*
X11287Y20019*
X11243Y19799*
X11287Y1958*
X11412Y19394*
X11598Y19269*
X11817Y19225*
X12008Y19263*
X12035Y19254*
X12086Y19187*
X12515Y19199*
Y19063*
X13199*
X13884*
Y19183*
X13822Y19199*
X13847Y19196*
X13921Y19191*
X143Y19187*
X14349Y19277*
X15706*
X159Y19316*
X16064Y19426*
X16716Y20077*
X20468*
X20516Y19988*
X20915Y19999*
Y19863*
X21536*
Y19736*
X20915*
Y19616*
X20977Y196*
X20952Y19603*
X20878Y19608*
X20462Y19612*
X2059Y1942*
X20633Y19344*
X20543Y19209*
X20501Y18999*
X20543Y1879*
X20644Y18638*
Y18561*
X20543Y18409*
X20501Y18199*
X20543Y1799*
X20628Y17861*
X20636Y17799*
X20628Y17738*
X20543Y17609*
X20501Y17399*
X20543Y1719*
X20662Y17012*
X2084Y16893*
X21043Y16852*
X21972*
X22137Y16686*
Y12467*
X21809Y12139*
X21771Y12155*
Y14306*
X21736Y1448*
X21637Y14628*
X20747Y15518*
Y16556*
X20706Y16759*
X20587Y16937*
X20409Y17056*
X20199Y17098*
X1999Y17056*
X19861Y16971*
X19799Y16963*
X19738Y16971*
X19609Y17056*
X19399Y17098*
X1919Y17056*
X19061Y16971*
X18999Y16963*
X18938Y16971*
X18809Y17056*
X18599Y17098*
X1839Y17056*
X18238Y16955*
X18161*
X18009Y17056*
X17799Y17098*
X1759Y17056*
X17461Y16971*
X17399Y16963*
X17338Y16971*
X17209Y17056*
X16999Y17098*
X1679Y17056*
X16661Y16971*
X16599Y16963*
X16538Y16971*
X16409Y17056*
X16199Y17098*
X1599Y17056*
X15838Y16955*
X15761*
X15609Y17056*
X15399Y17098*
X1519Y17056*
X15061Y16971*
X14999Y16963*
X14938Y16971*
X14809Y17056*
X14599Y17098*
X1439Y17056*
X14212Y16937*
X14093Y16759*
X14052Y16556*
Y15862*
X12321*
X11345Y16838*
X11361Y16877*
X12435*
X12466*
X12525Y16873*
X1253*
X12542Y16872*
X1254Y16872*
X12643Y16852*
X13756*
X13959Y16893*
X14137Y17012*
X14256Y1719*
X14298Y17399*
X14256Y17609*
X14171Y17738*
X14163Y17799*
X14171Y17861*
X14256Y1799*
X14298Y18199*
X14256Y18409*
X14166Y18544*
X14209Y1862*
X14338Y18812*
X13884Y188*
Y18936*
X13199*
X12515*
Y18816*
X12577Y188*
X12552Y18803*
X12478Y18808*
X12099Y18812*
X1205Y18722*
X11498*
X10522Y19698*
Y19888*
X10566Y19912*
X10558Y19918*
X10736Y19882*
Y20499*
Y21117*
X10558Y21081*
X10566Y21087*
X10522Y21111*
Y22312*
X10483Y22505*
X10373Y2267*
X08383Y2466*
Y25232*
X08936*
Y26199*
Y27167*
X08182*
Y26344*
X08134Y26324*
X07373Y27085*
X07398Y27117*
X07501Y27367*
X07537Y27634*
X07501Y27902*
X07398Y28152*
X07233Y28366*
X0702Y28531*
X0677Y28633*
X06501Y28669*
X06234Y28633*
X05984Y28531*
X0577Y28366*
X05606Y28151*
X05503Y27902*
X05467Y27634*
X05503Y27367*
X05606Y27117*
X0577Y26903*
X05984Y26739*
X06234Y26636*
X06362Y26618*
X06924Y26057*
X0691Y26036*
X0677Y26093*
X06501Y2613*
X06234Y26093*
X05984Y25991*
X0577Y25826*
X05606Y25611*
X05503Y25362*
X05467Y25094*
X05503Y24827*
X05606Y24577*
X0577Y24363*
X05984Y24199*
X06234Y24096*
X06362Y24078*
X06924Y23517*
X0691Y23496*
X0677Y23553*
X06501Y23589*
X06234Y23553*
X05984Y23451*
X0577Y23286*
X05606Y23071*
X05503Y22822*
X05467Y22554*
X05503Y22287*
X05606Y22037*
X0577Y21823*
X05984Y21659*
X06234Y21556*
X06501Y2152*
X0677Y21556*
X06849Y21588*
X07777Y2066*
Y19248*
X07728Y19227*
X07429Y19526*
X07396Y19494*
X07501Y19747*
X07537Y20014*
X07501Y20282*
X07398Y20532*
X07233Y20746*
X0702Y20911*
X0677Y21013*
X06501Y2105*
X06234Y21013*
X05984Y20911*
X0577Y20746*
X05606Y20531*
X05503Y20282*
X05467Y20014*
X05503Y19747*
X05606Y19497*
X0577Y19283*
X05984Y19119*
X06234Y19016*
X06501Y18981*
X06498Y1898*
X07678Y178*
X07662Y17762*
X07499*
X07502Y17741*
X07398Y17992*
X07233Y18206*
X0702Y18371*
X0677Y18473*
X06501Y18509*
X06234Y18473*
X05984Y18371*
X0577Y18206*
X05606Y17991*
X05503Y17742*
X05467Y17474*
X05503Y17207*
X05606Y16957*
X0577Y16743*
X05984Y16579*
X06234Y16476*
X06501Y1644*
X0677Y16476*
X0702Y16579*
X07199Y16717*
X07743*
X1075Y1371*
X10734Y13671*
X06993*
X06819Y13636*
X06671Y13537*
X05805Y1267*
X05637Y1274*
X05372Y12775*
X05108Y1274*
X04861Y12638*
X04649Y12476*
X04487Y12263*
X04447Y12166*
X04422Y12171*
Y13506*
X04383Y137*
X04273Y13864*
X03644Y14493*
X0348Y14603*
X03286Y14642*
X03063*
X02985Y1483*
X02823Y15043*
X0261Y15205*
X02364Y15307*
X02099Y15342*
X01835Y15307*
X01588Y15205*
X01376Y15043*
X01214Y1483*
X01112Y14584*
X01077Y14319*
X01112Y14055*
X01214Y13808*
X01376Y13596*
X01588Y13434*
X01835Y13332*
X02099Y13297*
X02364Y13332*
X0261Y13434*
X02823Y13597*
X02824Y13597*
X03063*
X03377Y13283*
Y11448*
X03416Y11254*
X03526Y11089*
X04489Y10126*
X04653Y10016*
X04665Y10013*
X04678Y09957*
X04649Y09936*
X04487Y09723*
X04385Y09477*
X04357Y09263*
X04313Y09233*
X04318Y09235*
X04122Y09431*
Y10086*
X04083Y1028*
X03973Y10444*
X03033Y11384*
X03087Y11515*
X03122Y11779*
X03087Y12044*
X02985Y1229*
X02823Y12503*
X0261Y12665*
X02364Y12767*
X02099Y12802*
X01835Y12767*
X01588Y12665*
X01376Y12503*
X01214Y1229*
X01112Y12044*
X01077Y11779*
X01112Y11515*
X01214Y11268*
X01376Y11056*
X01588Y10894*
X01835Y10792*
X021Y10757*
X02174Y10767*
X03077Y09863*
Y09592*
X03052Y09587*
X02985Y0975*
X02823Y09963*
X0261Y10125*
X02364Y10227*
X02099Y10262*
X01835Y10227*
X01588Y10125*
X01376Y09963*
X01214Y0975*
X01112Y09504*
X01077Y09239*
X01112Y08975*
X01214Y08728*
X01376Y08516*
X01588Y08354*
X01835Y08252*
X021Y08217*
X02174Y08227*
X02594Y07806*
X02578Y07767*
X02163*
Y06763*
X03167*
Y07178*
X03206Y07194*
X03277Y07123*
Y04993*
X03316Y04799*
X03426Y04635*
X04705Y03356*
X04755Y03322*
X04758Y03231*
X04663Y03159*
X04484Y02925*
X04372Y02653*
X04342Y02425*
X0546*
X06579*
X06549Y02653*
X06437Y02925*
X06258Y03159*
X06238Y03173*
X0625Y03207*
X06937*
Y01298*
X09064*
Y03207*
X15301*
X15299Y03207*
X15298Y03207*
X16801*
X16994Y03246*
X17159Y03356*
X17443Y0364*
X17553Y03805*
X17592Y03998*
Y04407*
X18382Y05197*
X1843Y05177*
Y03999*
Y02813*
X18186*
Y00786*
X20213*
Y02813*
X19969*
Y03266*
X20636*
Y0033*
X00318*
Y38086*
X00326Y38086*
X00331Y3805*
X00439Y37789*
X0061Y37567*
X00832Y37396*
X01014Y37319*
X00965Y37472*
X00939Y37539*
X00906Y37606*
X00868Y37669*
X00824Y37731*
X00774Y37792*
X00763Y37803*
X01288Y38339*
X00763Y38876*
X00774Y38887*
X00824Y38948*
X00868Y3901*
X00906Y39073*
X00939Y3914*
X01016Y39334*
X00833Y39261*
X0061Y3909*
X00439Y38867*
X00331Y38607*
X00326Y3857*
X00318Y3857*
Y40626*
X00326Y40626*
X00331Y40589*
X00439Y40329*
X0061Y40107*
X00832Y39936*
X01014Y39859*
X00965Y40012*
X00939Y40079*
X00906Y40146*
X00868Y40209*
X00824Y40271*
X00774Y40332*
X00763Y40343*
X01288Y40879*
X00763Y41416*
X00774Y41427*
X00824Y41488*
X00868Y4155*
X00906Y41613*
X00939Y4168*
X01016Y41874*
X00833Y41801*
X0061Y4163*
X00439Y41407*
X00331Y41147*
X00326Y4111*
X00318Y4111*
Y43166*
X00326Y43166*
X00331Y43129*
X00439Y42869*
X0061Y42647*
X00832Y42476*
X01014Y42399*
X00965Y42552*
X00939Y42619*
X00906Y42686*
X00868Y42749*
X00824Y42811*
X00774Y42872*
X00763Y42883*
X01288Y43419*
X00763Y43956*
X00774Y43967*
X00824Y44028*
X00868Y4409*
X00906Y44153*
X00939Y4422*
X01016Y44414*
X00833Y44341*
X0061Y4417*
X00439Y43947*
X00331Y43687*
X00326Y4365*
X00318Y4365*
Y45706*
X00326Y45706*
X00331Y4567*
X00439Y45409*
X0061Y45187*
X00832Y45016*
X01014Y44939*
X00965Y45092*
X00939Y45159*
X00906Y45226*
X00868Y45289*
X00824Y45351*
X00774Y45412*
X00824Y4536*
X01308*
Y45948*
Y47017*
X01093Y46988*
X00832Y46881*
X0061Y4671*
X00439Y46487*
X00331Y46227*
X00326Y4619*
X00318Y4619*
Y49681*
X09282*
Y49088*
X0038Y00355D02*
Y37896D01*
Y38785D02*
Y40436D01*
Y41325D02*
Y42976D01*
Y43865D02*
Y45516D01*
Y46405D02*
Y49682D01*
X00482Y00355D02*
Y37718D01*
Y38963D02*
Y40258D01*
Y41503D02*
Y42798D01*
Y44043D02*
Y45338D01*
Y46583D02*
Y49682D01*
X00584Y00355D02*
Y37591D01*
Y3909D02*
Y40131D01*
Y4163D02*
Y42671D01*
Y4417D02*
Y45211D01*
Y4671D02*
Y49682D01*
X00685Y00355D02*
Y3749D01*
Y39192D02*
Y4003D01*
Y41732D02*
Y4257D01*
Y44272D02*
Y4511D01*
Y46812D02*
Y49682D01*
X00787Y00355D02*
Y37414D01*
Y37795D02*
Y3782D01*
Y38887D02*
Y38912D01*
Y39268D02*
Y39954D01*
Y40335D02*
Y4036D01*
Y41427D02*
Y41452D01*
Y41808D02*
Y42494D01*
Y42875D02*
Y429D01*
Y43967D02*
Y43992D01*
Y44348D02*
Y45034D01*
Y46888D02*
Y49682D01*
X00888Y00355D02*
Y37363D01*
Y37668D02*
Y37922D01*
Y38785D02*
Y39039D01*
Y39319D02*
Y39903D01*
Y40208D02*
Y40462D01*
Y41325D02*
Y41579D01*
Y41859D02*
Y42443D01*
Y42748D02*
Y43002D01*
Y43865D02*
Y44119D01*
Y44399D02*
Y44983D01*
Y45288D02*
Y45338D01*
Y46939D02*
Y49682D01*
X0099Y00355D02*
Y37312D01*
Y37414D02*
Y38023D01*
Y38684D02*
Y39268D01*
Y39369D02*
Y39852D01*
Y39954D02*
Y40563D01*
Y41224D02*
Y41808D01*
Y41909D02*
Y42392D01*
Y42494D02*
Y43103D01*
Y43764D02*
Y44348D01*
Y44449D02*
Y44932D01*
Y45034D02*
Y45338D01*
Y46989D02*
Y49682D01*
X01092Y00355D02*
Y09093D01*
Y09423D02*
Y11633D01*
Y11963D02*
Y14173D01*
Y14503D02*
Y38125D01*
Y38582D02*
Y40665D01*
Y41122D02*
Y43205D01*
Y43662D02*
Y45338D01*
Y4704D02*
Y49682D01*
X01193Y00355D02*
Y08788D01*
Y09728D02*
Y11328D01*
Y12268D02*
Y13868D01*
Y14808D02*
Y38226D01*
Y3848D02*
Y40766D01*
Y4102D02*
Y43306D01*
Y4356D02*
Y45338D01*
Y4704D02*
Y49682D01*
X01295Y00355D02*
Y0861D01*
Y09905D02*
Y1115D01*
Y12445D02*
Y1369D01*
Y14985D02*
Y45338D01*
Y4704D02*
Y49682D01*
X01396Y00355D02*
Y08483D01*
Y10007D02*
Y11023D01*
Y12547D02*
Y13563D01*
Y15087D02*
Y49682D01*
X01498Y00355D02*
Y08407D01*
Y10083D02*
Y10947D01*
Y12623D02*
Y13487D01*
Y15163D02*
Y49682D01*
X016Y00355D02*
Y08331D01*
Y10185D02*
Y10871D01*
Y12725D02*
Y13411D01*
Y15265D02*
Y49682D01*
X01701Y00355D02*
Y08305D01*
Y1021D02*
Y10845D01*
Y1275D02*
Y13385D01*
Y1529D02*
Y49682D01*
X01803Y00355D02*
Y08254D01*
Y10261D02*
Y10794D01*
Y12801D02*
Y13334D01*
Y15341D02*
Y49682D01*
X01904Y00355D02*
Y08229D01*
Y10286D02*
Y10769D01*
Y12826D02*
Y13309D01*
Y15366D02*
Y49682D01*
X02006Y00355D02*
Y08229D01*
Y10286D02*
Y10769D01*
Y12826D02*
Y13309D01*
Y15366D02*
Y49682D01*
X02108Y00355D02*
Y08204D01*
Y10286D02*
Y10744D01*
Y12826D02*
Y13309D01*
Y15366D02*
Y49682D01*
X02209Y00355D02*
Y0673D01*
Y07797D02*
Y08178D01*
Y10286D02*
Y10718D01*
Y12826D02*
Y13309D01*
Y15366D02*
Y49682D01*
X02311Y00355D02*
Y0673D01*
Y07797D02*
Y08077D01*
Y10286D02*
Y10617D01*
Y12826D02*
Y13309D01*
Y15366D02*
Y49682D01*
X02412Y00355D02*
Y0673D01*
Y07797D02*
Y07975D01*
Y10261D02*
Y10515D01*
Y12801D02*
Y13334D01*
Y15341D02*
Y49682D01*
X02514Y00355D02*
Y0673D01*
Y07797D02*
Y07873D01*
Y1021D02*
Y10413D01*
Y1275D02*
Y13385D01*
Y1529D02*
Y49682D01*
X02616Y00355D02*
Y0673D01*
Y10159D02*
Y10312D01*
Y12699D02*
Y13436D01*
Y15239D02*
Y49682D01*
X02717Y00355D02*
Y0673D01*
Y10083D02*
Y1021D01*
Y12623D02*
Y13512D01*
Y15163D02*
Y49682D01*
X02819Y00355D02*
Y0673D01*
Y09982D02*
Y10109D01*
Y12522D02*
Y13563D01*
Y15062D02*
Y49682D01*
X0292Y00355D02*
Y0673D01*
Y0988D02*
Y10007D01*
Y1242D02*
Y13563D01*
Y1496D02*
Y38049D01*
Y38633D02*
Y40589D01*
Y41173D02*
Y49682D01*
X03022Y00355D02*
Y0673D01*
Y09702D02*
Y09905D01*
Y11404D02*
Y11379D01*
Y12268D02*
Y13563D01*
Y14808D02*
Y37795D01*
Y38887D02*
Y40335D01*
Y41427D02*
Y49682D01*
X03124Y00355D02*
Y0673D01*
Y11302D02*
Y13512D01*
Y14655D02*
Y37693D01*
Y38988D02*
Y40233D01*
Y41528D02*
Y49682D01*
X03225Y00355D02*
Y07137D01*
Y11201D02*
Y13411D01*
Y14655D02*
Y37591D01*
Y3909D02*
Y40131D01*
Y4163D02*
Y49682D01*
X03327Y00355D02*
Y04775D01*
Y11099D02*
Y13309D01*
Y14655D02*
Y3749D01*
Y39192D02*
Y4003D01*
Y41732D02*
Y49682D01*
X03428Y00355D02*
Y04597D01*
Y10998D02*
Y11201D01*
Y14655D02*
Y37414D01*
Y39268D02*
Y39954D01*
Y41808D02*
Y49682D01*
X0353Y00355D02*
Y04495D01*
Y10896D02*
Y11074D01*
Y14604D02*
Y37363D01*
Y39319D02*
Y39903D01*
Y41859D02*
Y49682D01*
X03632Y00355D02*
Y04394D01*
Y10794D02*
Y10972D01*
Y14528D02*
Y37337D01*
Y39344D02*
Y39877D01*
Y41884D02*
Y49682D01*
X03733Y00355D02*
Y04292D01*
Y10693D02*
Y10871D01*
Y14427D02*
Y37312D01*
Y39369D02*
Y39852D01*
Y41909D02*
Y49682D01*
X03835Y00355D02*
Y0419D01*
Y10591D02*
Y10769D01*
Y14325D02*
Y37312D01*
Y39369D02*
Y39852D01*
Y41909D02*
Y49682D01*
X03936Y00355D02*
Y04089D01*
Y1049D02*
Y10667D01*
Y14223D02*
Y37312D01*
Y39369D02*
Y39852D01*
Y41909D02*
Y49682D01*
X04038Y00355D02*
Y03987D01*
Y10388D02*
Y10566D01*
Y14122D02*
Y37312D01*
Y39369D02*
Y39852D01*
Y41909D02*
Y49682D01*
X0414Y00355D02*
Y03886D01*
Y09448D02*
Y10464D01*
Y1402D02*
Y37312D01*
Y39369D02*
Y39852D01*
Y41909D02*
Y49682D01*
X04241Y00355D02*
Y03784D01*
Y09347D02*
Y10363D01*
Y13919D02*
Y37363D01*
Y39319D02*
Y39903D01*
Y41859D02*
Y49682D01*
X04343Y00355D02*
Y02387D01*
Y02463D02*
Y03682D01*
Y09296D02*
Y10261D01*
Y13792D02*
Y37388D01*
Y39293D02*
Y39928D01*
Y41833D02*
Y49682D01*
X04444Y00355D02*
Y02387D01*
Y02844D02*
Y03581D01*
Y09651D02*
Y10159D01*
Y12217D02*
Y37439D01*
Y39242D02*
Y39877D01*
Y41782D02*
Y49682D01*
X04546Y00355D02*
Y02387D01*
Y03022D02*
Y03479D01*
Y09829D02*
Y10083D01*
Y12369D02*
Y37541D01*
Y39141D02*
Y39776D01*
Y41681D02*
Y49682D01*
X04648Y00355D02*
Y02387D01*
Y03149D02*
Y03378D01*
Y09982D02*
D01*
Y12522D02*
Y37591D01*
Y39039D02*
Y39674D01*
Y41579D02*
Y49682D01*
X04749Y00355D02*
Y02387D01*
Y12598D02*
Y37591D01*
Y38938D02*
Y39573D01*
Y41478D02*
Y49682D01*
X04851Y00355D02*
Y02387D01*
Y12699D02*
Y37591D01*
Y3876D02*
Y39471D01*
Y41274D02*
Y49682D01*
X04952Y00355D02*
Y02387D01*
Y12725D02*
Y37591D01*
Y38684D02*
Y39369D01*
Y40919D02*
Y49682D01*
X05054Y00355D02*
Y02387D01*
Y12776D02*
Y37591D01*
Y38684D02*
Y39268D01*
Y40817D02*
Y49682D01*
X05156Y00355D02*
Y02387D01*
Y12801D02*
Y37591D01*
Y38684D02*
Y39166D01*
Y40716D02*
Y49682D01*
X05257Y00355D02*
Y02387D01*
Y12801D02*
Y37566D01*
Y38684D02*
Y39065D01*
Y40614D02*
Y49682D01*
X05359Y00355D02*
Y02387D01*
Y12801D02*
Y37464D01*
Y38684D02*
Y38963D01*
Y40512D02*
Y49682D01*
X0546Y00355D02*
Y02387D01*
Y12801D02*
Y17449D01*
Y17525D02*
Y19989D01*
Y20065D02*
Y22529D01*
Y22605D02*
Y25069D01*
Y25145D02*
Y27609D01*
Y27685D02*
Y30149D01*
Y30225D02*
Y32689D01*
Y32765D02*
Y35229D01*
Y35305D02*
Y37363D01*
Y38684D02*
Y38861D01*
Y40411D02*
Y49682D01*
X05562Y00355D02*
Y02387D01*
Y12801D02*
Y17068D01*
Y17906D02*
Y19608D01*
Y20446D02*
Y22148D01*
Y22986D02*
Y24688D01*
Y25526D02*
Y27228D01*
Y28066D02*
Y29768D01*
Y30606D02*
Y32308D01*
Y33146D02*
Y34848D01*
Y35686D02*
Y37261D01*
Y38684D02*
Y3876D01*
Y40309D02*
Y49682D01*
X05664Y00355D02*
Y02387D01*
Y12776D02*
Y16865D01*
Y1811D02*
Y19405D01*
Y2065D02*
Y21945D01*
Y2319D02*
Y24485D01*
Y2573D02*
Y27025D01*
Y2827D02*
Y29565D01*
Y3081D02*
Y32105D01*
Y3335D02*
Y34645D01*
Y3589D02*
Y3716D01*
Y38658D02*
D01*
Y40208D02*
Y49682D01*
X05765Y00355D02*
Y02387D01*
Y12725D02*
Y16713D01*
Y18262D02*
Y19253D01*
Y20802D02*
Y21793D01*
Y23342D02*
Y24333D01*
Y25882D02*
Y26873D01*
Y28422D02*
Y29413D01*
Y30962D02*
Y31953D01*
Y33502D02*
Y34493D01*
Y36042D02*
Y37058D01*
Y38582D02*
Y38557D01*
Y40106D02*
Y49682D01*
X05867Y00355D02*
Y02387D01*
Y12776D02*
Y16662D01*
Y18313D02*
Y19202D01*
Y20853D02*
Y21742D01*
Y23393D02*
Y24282D01*
Y25933D02*
Y26822D01*
Y28473D02*
Y29362D01*
Y31013D02*
Y31902D01*
Y33553D02*
Y34442D01*
Y36093D02*
Y36956D01*
Y40004D02*
Y49682D01*
X05968Y00355D02*
Y02387D01*
Y12877D02*
Y16586D01*
Y18389D02*
Y19126D01*
Y20929D02*
Y21666D01*
Y23469D02*
Y24206D01*
Y26009D02*
Y26746D01*
Y28549D02*
Y29286D01*
Y31089D02*
Y31826D01*
Y33629D02*
Y34366D01*
Y36169D02*
Y36855D01*
Y39903D02*
Y49682D01*
X0607Y00355D02*
Y02387D01*
Y12979D02*
Y16535D01*
Y1844D02*
Y19075D01*
Y2098D02*
Y21615D01*
Y2352D02*
Y24155D01*
Y2606D02*
Y26695D01*
Y286D02*
Y29235D01*
Y3114D02*
Y31775D01*
Y3368D02*
Y34315D01*
Y3622D02*
Y36753D01*
Y39801D02*
Y49682D01*
X06172Y00355D02*
Y02387D01*
Y1308D02*
Y16484D01*
Y18491D02*
Y19024D01*
Y21031D02*
Y21564D01*
Y23571D02*
Y24104D01*
Y26111D02*
Y26644D01*
Y28651D02*
Y29184D01*
Y31191D02*
Y31724D01*
Y33731D02*
Y34264D01*
Y36271D02*
Y36652D01*
Y397D02*
Y49682D01*
X06273Y00355D02*
Y02387D01*
Y03149D02*
Y03174D01*
Y13182D02*
Y16459D01*
Y18516D02*
Y18999D01*
Y21056D02*
Y21539D01*
Y23596D02*
Y24079D01*
Y26136D02*
Y26619D01*
Y28676D02*
Y29159D01*
Y31216D02*
Y31699D01*
Y33756D02*
Y34239D01*
Y36296D02*
Y3655D01*
Y39598D02*
Y49682D01*
X06375Y00355D02*
Y02387D01*
Y03022D02*
Y03174D01*
Y13284D02*
Y16433D01*
Y18541D02*
Y18973D01*
Y21081D02*
Y21513D01*
Y23621D02*
Y24053D01*
Y26161D02*
Y26593D01*
Y28701D02*
Y29133D01*
Y31241D02*
Y31673D01*
Y33781D02*
Y34213D01*
Y36321D02*
Y36448D01*
Y39496D02*
Y49682D01*
X06476Y00355D02*
Y02387D01*
Y02844D02*
Y03174D01*
Y13385D02*
Y16433D01*
Y18541D02*
Y18973D01*
Y21081D02*
Y21513D01*
Y23621D02*
Y23952D01*
Y26161D02*
Y26492D01*
Y28701D02*
Y29133D01*
Y31241D02*
Y31673D01*
Y33781D02*
Y34112D01*
Y36321D02*
Y36347D01*
Y39395D02*
Y49682D01*
X06578Y00355D02*
Y03174D01*
Y13487D02*
Y16433D01*
Y18541D02*
Y18872D01*
Y21081D02*
Y21513D01*
Y23621D02*
Y2385D01*
Y26161D02*
Y2639D01*
Y28701D02*
Y29133D01*
Y31241D02*
Y31673D01*
Y33781D02*
Y3401D01*
Y39293D02*
Y49682D01*
X0668Y00355D02*
Y03174D01*
Y13588D02*
Y16459D01*
Y18516D02*
Y1877D01*
Y21056D02*
Y21539D01*
Y23596D02*
Y23748D01*
Y26136D02*
Y26288D01*
Y28676D02*
Y29159D01*
Y31216D02*
Y31572D01*
Y33756D02*
Y33908D01*
Y39192D02*
Y49682D01*
X06781Y00355D02*
Y03174D01*
Y13665D02*
Y16484D01*
Y18491D02*
Y18668D01*
Y21031D02*
Y21564D01*
Y23571D02*
Y23647D01*
Y26111D02*
Y26187D01*
Y28651D02*
Y29184D01*
Y31191D02*
Y3147D01*
Y33731D02*
Y33807D01*
Y3909D02*
Y49682D01*
X06883Y00355D02*
Y03174D01*
Y1369D02*
Y16509D01*
Y18465D02*
Y18567D01*
Y21005D02*
Y21539D01*
Y23545D02*
D01*
Y26085D02*
D01*
Y28625D02*
Y29209D01*
Y31165D02*
Y31394D01*
Y33705D02*
D01*
Y38988D02*
Y49682D01*
X06984Y00355D02*
Y01269D01*
Y1369D02*
Y1656D01*
Y18414D02*
Y18465D01*
Y20954D02*
Y21437D01*
Y28574D02*
Y2926D01*
Y31267D02*
Y31343D01*
Y38887D02*
Y39979D01*
Y40055D02*
Y49682D01*
X07086Y00355D02*
Y01269D01*
Y1369D02*
Y16636D01*
Y18338D02*
Y18364D01*
Y20878D02*
Y21335D01*
Y28498D02*
Y29336D01*
Y38785D02*
Y39242D01*
Y40792D02*
Y49682D01*
X07188Y00355D02*
Y01269D01*
Y1369D02*
Y16687D01*
Y18287D02*
Y18262D01*
Y20827D02*
Y21234D01*
Y28447D02*
Y29387D01*
Y38684D02*
Y38938D01*
Y41097D02*
Y49682D01*
X07289Y00355D02*
Y01269D01*
Y1369D02*
Y16687D01*
Y1816D02*
D01*
Y207D02*
Y21132D01*
Y2832D02*
Y29514D01*
Y38582D02*
Y38684D01*
Y41351D02*
Y49682D01*
X07391Y00355D02*
Y01269D01*
Y1369D02*
Y16687D01*
Y18008D02*
Y18059D01*
Y20548D02*
Y21031D01*
Y27076D02*
Y27127D01*
Y28168D02*
Y29667D01*
Y3848D02*
Y38455D01*
Y41554D02*
Y49682D01*
X07492Y00355D02*
Y01269D01*
Y1369D02*
Y16687D01*
Y17779D02*
Y17957D01*
Y19507D02*
Y19735D01*
Y20319D02*
Y20929D01*
Y26974D02*
Y27355D01*
Y27939D02*
Y29895D01*
Y41732D02*
Y49682D01*
X07594Y00355D02*
Y01269D01*
Y1369D02*
Y16687D01*
Y17779D02*
Y17856D01*
Y19405D02*
Y20827D01*
Y26873D02*
Y30352D01*
Y41884D02*
Y49682D01*
X07696Y00355D02*
Y01269D01*
Y1369D02*
Y16687D01*
Y19303D02*
Y20726D01*
Y26771D02*
Y30454D01*
Y36626D02*
D01*
Y41986D02*
Y49682D01*
X07797Y00355D02*
Y01269D01*
Y1369D02*
Y16636D01*
Y26669D02*
Y30556D01*
Y42087D02*
Y49682D01*
X07899Y00355D02*
Y01269D01*
Y1369D02*
Y16535D01*
Y26568D02*
Y30556D01*
Y42189D02*
Y49682D01*
X08Y00355D02*
Y01269D01*
Y1369D02*
Y16433D01*
Y26466D02*
Y30556D01*
Y4229D02*
Y49682D01*
X08102Y00355D02*
Y01269D01*
Y1369D02*
Y16332D01*
Y26365D02*
Y30556D01*
Y42367D02*
Y49682D01*
X08204Y00355D02*
Y01269D01*
Y1369D02*
Y1623D01*
Y27203D02*
Y30556D01*
Y42468D02*
Y49682D01*
X08305Y00355D02*
Y01269D01*
Y1369D02*
Y16128D01*
Y27203D02*
Y30556D01*
Y42519D02*
Y49682D01*
X08407Y00355D02*
Y01269D01*
Y1369D02*
Y16027D01*
Y24663D02*
Y25196D01*
Y27203D02*
Y30556D01*
Y42595D02*
Y49682D01*
X08508Y00355D02*
Y01269D01*
Y1369D02*
Y15925D01*
Y24561D02*
Y25196D01*
Y27203D02*
Y30556D01*
Y42646D02*
Y49682D01*
X0861Y00355D02*
Y01269D01*
Y1369D02*
Y15824D01*
Y2446D02*
Y25196D01*
Y27203D02*
Y30556D01*
Y42722D02*
Y49682D01*
X08712Y00355D02*
Y01269D01*
Y1369D02*
Y15722D01*
Y24358D02*
Y25196D01*
Y27203D02*
Y30556D01*
Y42773D02*
Y49682D01*
X08813Y00355D02*
Y01269D01*
Y1369D02*
Y1562D01*
Y24256D02*
Y25196D01*
Y27203D02*
Y30556D01*
Y42798D02*
Y49682D01*
X08915Y00355D02*
Y01269D01*
Y1369D02*
Y15519D01*
Y24155D02*
Y25196D01*
Y27203D02*
Y30556D01*
Y42849D02*
Y49682D01*
X09016Y00355D02*
Y01269D01*
Y1369D02*
Y15417D01*
Y24053D02*
Y30556D01*
Y429D02*
Y49682D01*
X09118Y00355D02*
Y03174D01*
Y1369D02*
Y15316D01*
Y23952D02*
Y26238D01*
Y27203D02*
Y30556D01*
Y42925D02*
Y49682D01*
X0922Y00355D02*
Y03174D01*
Y1369D02*
Y15214D01*
Y2385D02*
Y26238D01*
Y27203D02*
Y30556D01*
Y42951D02*
Y49682D01*
X09321Y00355D02*
Y03174D01*
Y1369D02*
Y15112D01*
Y23748D02*
Y26238D01*
Y27863D02*
Y27939D01*
Y28905D02*
Y30556D01*
Y42976D02*
Y49098D01*
X09423Y00355D02*
Y03174D01*
Y1369D02*
Y15011D01*
Y23647D02*
Y26238D01*
Y27863D02*
Y27939D01*
Y28905D02*
Y30556D01*
Y43002D02*
Y49098D01*
X09524Y00355D02*
Y03174D01*
Y1369D02*
Y14909D01*
Y23545D02*
Y26238D01*
Y27863D02*
Y27939D01*
Y28905D02*
Y30556D01*
Y43027D02*
Y49174D01*
X09626Y00355D02*
Y03174D01*
Y1369D02*
Y14808D01*
Y23444D02*
Y26238D01*
Y27863D02*
Y27939D01*
Y28905D02*
Y30556D01*
Y43027D02*
Y48945D01*
Y49098D02*
Y4925D01*
X09728Y00355D02*
Y03174D01*
Y1369D02*
Y14706D01*
Y23342D02*
Y24383D01*
Y24968D02*
Y26238D01*
Y27863D02*
Y27939D01*
Y28905D02*
Y29032D01*
Y30073D02*
Y30556D01*
Y43027D02*
Y48945D01*
X09829Y00355D02*
Y03174D01*
Y1369D02*
Y14604D01*
Y2324D02*
Y24155D01*
Y25196D02*
Y25323D01*
Y27863D02*
Y27939D01*
Y28905D02*
Y2893D01*
Y30175D02*
Y30556D01*
Y43052D02*
Y48945D01*
X09931Y00355D02*
Y03174D01*
Y1369D02*
Y14503D01*
Y23139D02*
Y24028D01*
Y27863D02*
Y27939D01*
Y30276D02*
Y30556D01*
Y43052D02*
Y48945D01*
X10032Y00355D02*
Y03174D01*
Y1369D02*
Y14401D01*
Y23037D02*
Y23825D01*
Y30378D02*
Y30556D01*
Y43052D02*
Y48945D01*
X10134Y00355D02*
Y03174D01*
Y1369D02*
Y143D01*
Y22936D02*
Y23698D01*
Y30479D02*
Y30556D01*
Y43052D02*
Y48818D01*
X10236Y00355D02*
Y03174D01*
Y1369D02*
Y14198D01*
Y22834D02*
Y23596D01*
Y3053D02*
Y30556D01*
Y43027D02*
Y47853D01*
X10337Y00355D02*
Y03174D01*
Y1369D02*
Y14096D01*
Y22732D02*
Y23494D01*
Y3053D02*
Y30556D01*
Y43027D02*
Y47853D01*
X10439Y00355D02*
Y03174D01*
Y1369D02*
Y13995D01*
Y22605D02*
Y23393D01*
Y3053D02*
Y30556D01*
Y43027D02*
Y47853D01*
X1054Y00355D02*
Y03174D01*
Y1369D02*
Y13893D01*
Y1971D02*
Y19888D01*
Y21132D02*
Y23291D01*
Y3053D02*
Y30556D01*
Y43002D02*
Y47853D01*
X10642Y00355D02*
Y03174D01*
Y1369D02*
Y13792D01*
Y19608D02*
Y19888D01*
Y21132D02*
Y2319D01*
Y3053D02*
Y30556D01*
Y42976D02*
Y47853D01*
X10744Y00355D02*
Y03174D01*
Y19507D02*
Y23088D01*
Y3053D02*
Y30556D01*
Y42951D02*
Y43637D01*
X10845Y00355D02*
Y03174D01*
Y19405D02*
Y22986D01*
Y3053D02*
Y30556D01*
Y42925D02*
Y43535D01*
X10947Y00355D02*
Y03174D01*
Y19303D02*
Y22885D01*
Y3053D02*
Y30556D01*
Y429D02*
Y43433D01*
X11048Y00355D02*
Y03174D01*
Y19202D02*
Y22783D01*
Y3053D02*
Y30556D01*
Y42875D02*
Y43332D01*
X1115Y00355D02*
Y03174D01*
Y191D02*
Y22682D01*
Y3053D02*
Y30556D01*
Y42824D02*
Y4323D01*
X11252Y00355D02*
Y03174D01*
Y18999D02*
Y19786D01*
Y19862D02*
Y21285D01*
Y21564D02*
Y2258D01*
Y30429D02*
Y30556D01*
Y42773D02*
Y43129D01*
X11353Y00355D02*
Y03174D01*
Y16865D02*
Y1684D01*
Y18897D02*
Y19456D01*
Y20167D02*
Y21056D01*
Y21767D02*
Y22478D01*
Y30327D02*
Y30479D01*
Y37261D02*
Y37287D01*
Y42748D02*
Y43027D01*
X11455Y00355D02*
Y03174D01*
Y16763D02*
Y1684D01*
Y18795D02*
Y19354D01*
Y20294D02*
Y20954D01*
Y21869D02*
Y22377D01*
Y30225D02*
Y30378D01*
Y37261D02*
Y37337D01*
Y42697D02*
Y42925D01*
X11556Y00355D02*
Y03174D01*
Y16662D02*
Y1684D01*
Y18745D02*
Y19303D01*
Y20345D02*
Y20878D01*
Y21945D02*
Y22275D01*
Y30124D02*
Y30276D01*
Y37261D02*
Y37414D01*
Y42621D02*
Y42824D01*
X11658Y00355D02*
Y03174D01*
Y1656D02*
Y1684D01*
Y18745D02*
Y19253D01*
Y2037D02*
Y20853D01*
Y2197D02*
Y22174D01*
Y2959D02*
Y30175D01*
Y37261D02*
Y37464D01*
Y4257D02*
Y42722D01*
X1176Y00355D02*
Y03174D01*
Y16459D02*
Y1684D01*
Y18745D02*
Y19227D01*
Y20396D02*
Y20827D01*
Y21996D02*
Y22072D01*
Y29489D02*
Y30073D01*
Y37261D02*
Y37541D01*
Y42494D02*
Y42621D01*
X11861Y00355D02*
Y03174D01*
Y16357D02*
Y1684D01*
Y18745D02*
Y19227D01*
Y20396D02*
Y20827D01*
Y29387D02*
Y29971D01*
Y37261D02*
Y37617D01*
Y42417D02*
Y42519D01*
X11963Y00355D02*
Y03174D01*
Y16255D02*
Y1684D01*
Y18745D02*
Y19227D01*
Y20396D02*
Y20827D01*
Y29286D02*
Y2987D01*
Y37261D02*
Y37718D01*
Y42316D02*
Y42417D01*
X12064Y00355D02*
Y03174D01*
Y16154D02*
Y1684D01*
Y18821D02*
Y19202D01*
Y20421D02*
Y20802D01*
Y29184D02*
Y29768D01*
Y37261D02*
Y37795D01*
Y4224D02*
Y42316D01*
X12166Y00355D02*
Y03174D01*
Y16052D02*
Y1684D01*
Y18846D02*
Y19176D01*
Y20446D02*
Y20777D01*
Y29082D02*
Y29667D01*
Y37261D02*
Y37896D01*
Y42138D02*
Y42214D01*
X12268Y00355D02*
Y03174D01*
Y15951D02*
Y1684D01*
Y18846D02*
Y19176D01*
Y20446D02*
Y20777D01*
Y28981D02*
Y29565D01*
Y37261D02*
Y37998D01*
Y42036D02*
Y42113D01*
X12369Y00355D02*
Y03174D01*
Y159D02*
Y1684D01*
Y18846D02*
Y19176D01*
Y20446D02*
Y20777D01*
Y28879D02*
Y29463D01*
Y37261D02*
Y38125D01*
Y41909D02*
Y42011D01*
X12471Y00355D02*
Y03174D01*
Y159D02*
Y1684D01*
Y18821D02*
Y19176D01*
Y20421D02*
Y20777D01*
Y23901D02*
Y29362D01*
Y37261D02*
Y38252D01*
Y41782D02*
Y41909D01*
X12572Y00355D02*
Y03174D01*
Y159D02*
Y1684D01*
Y18973D02*
Y19049D01*
Y20573D02*
Y2065D01*
Y23799D02*
Y2926D01*
Y37261D02*
Y3843D01*
Y41605D02*
Y41808D01*
X12674Y00355D02*
Y03174D01*
Y159D02*
Y16814D01*
Y18973D02*
Y19049D01*
Y20573D02*
Y2065D01*
Y23698D02*
Y29159D01*
Y37261D02*
Y38582D01*
Y41452D02*
Y41706D01*
X12776Y00355D02*
Y03174D01*
Y159D02*
Y16814D01*
Y18973D02*
Y19049D01*
Y20573D02*
Y2065D01*
Y23596D02*
Y29057D01*
Y37261D02*
Y38811D01*
Y41224D02*
Y41605D01*
X12877Y00355D02*
Y03174D01*
Y159D02*
Y16814D01*
Y18973D02*
Y19049D01*
Y20573D02*
Y2065D01*
Y23571D02*
Y28955D01*
Y37261D02*
Y39065D01*
Y4097D02*
Y41503D01*
X12979Y00355D02*
Y03174D01*
Y159D02*
Y16814D01*
Y18973D02*
Y19049D01*
Y20573D02*
Y2065D01*
Y23571D02*
Y28854D01*
Y37261D02*
Y39522D01*
Y40487D02*
Y41401D01*
X1308Y00355D02*
Y03174D01*
Y159D02*
Y16814D01*
Y18973D02*
Y19049D01*
Y20573D02*
Y2065D01*
Y23571D02*
Y28752D01*
Y37261D02*
Y413D01*
X13182Y00355D02*
Y03174D01*
Y159D02*
Y16814D01*
Y18973D02*
Y19049D01*
Y20573D02*
Y2065D01*
Y23571D02*
Y28651D01*
Y37261D02*
Y41198D01*
X13284Y00355D02*
Y03174D01*
Y159D02*
Y16814D01*
Y18973D02*
Y19049D01*
Y20573D02*
Y2065D01*
Y23571D02*
Y28549D01*
Y37261D02*
Y41097D01*
X13385Y00355D02*
Y03174D01*
Y159D02*
Y16814D01*
Y18973D02*
Y19049D01*
Y20573D02*
Y2065D01*
Y23571D02*
Y28447D01*
Y37261D02*
Y40995D01*
X13487Y00355D02*
Y03174D01*
Y159D02*
Y16814D01*
Y18973D02*
Y19049D01*
Y20573D02*
Y2065D01*
Y23571D02*
Y28346D01*
Y37261D02*
Y40893D01*
X13588Y00355D02*
Y03174D01*
Y159D02*
Y16814D01*
Y18973D02*
Y19049D01*
Y20573D02*
Y2065D01*
Y23571D02*
Y28244D01*
Y37261D02*
Y40792D01*
X1369Y00355D02*
Y03174D01*
Y159D02*
Y16814D01*
Y18973D02*
Y19049D01*
Y20573D02*
Y2065D01*
Y23571D02*
Y28143D01*
Y37261D02*
Y4069D01*
X13792Y00355D02*
Y03174D01*
Y159D02*
Y1684D01*
Y18973D02*
Y19049D01*
Y20573D02*
Y2065D01*
Y23571D02*
Y28041D01*
Y37261D02*
Y40589D01*
X13893Y00355D02*
Y03174D01*
Y159D02*
Y16865D01*
Y18846D02*
Y19176D01*
Y20573D02*
Y2065D01*
Y23545D02*
Y27939D01*
Y37261D02*
Y40487D01*
X13995Y00355D02*
Y03174D01*
Y159D02*
Y1689D01*
Y18846D02*
Y19176D01*
Y20573D02*
Y2065D01*
Y2352D02*
Y27838D01*
Y37261D02*
Y40385D01*
X14096Y00355D02*
Y03174D01*
Y16814D02*
Y16967D01*
Y18846D02*
Y19176D01*
Y20573D02*
Y2065D01*
Y23469D02*
Y23621D01*
Y37261D02*
Y40284D01*
X14198Y00355D02*
Y03174D01*
Y16941D02*
Y17094D01*
Y17729D02*
Y17881D01*
Y18541D02*
Y18618D01*
Y18846D02*
Y19176D01*
Y20573D02*
Y2065D01*
Y22529D02*
Y22682D01*
Y23342D02*
Y23494D01*
Y37261D02*
Y39065D01*
X143Y00355D02*
Y03174D01*
Y17043D02*
Y18745D01*
Y18846D02*
Y19176D01*
Y20396D02*
Y2037D01*
Y20573D02*
Y2065D01*
Y21945D02*
Y23393D01*
Y37261D02*
Y38861D01*
X14401Y00355D02*
Y03174D01*
Y17119D02*
Y19253D01*
Y20345D02*
Y20853D01*
Y21945D02*
Y23317D01*
Y37261D02*
Y38734D01*
X14503Y00355D02*
Y03174D01*
Y17119D02*
Y19253D01*
Y20345D02*
Y20853D01*
Y21945D02*
Y23291D01*
Y37261D02*
Y38633D01*
X14604Y00355D02*
Y03174D01*
Y17119D02*
Y19253D01*
Y20345D02*
Y20853D01*
Y21945D02*
Y23291D01*
Y37261D02*
Y38531D01*
X14706Y00355D02*
Y03174D01*
Y17119D02*
Y19253D01*
Y20345D02*
Y20853D01*
Y21945D02*
Y23317D01*
Y37261D02*
Y3843D01*
X14808Y00355D02*
Y03174D01*
Y17094D02*
Y19253D01*
Y20345D02*
Y20853D01*
Y21945D02*
Y23342D01*
Y37261D02*
Y38328D01*
X14909Y00355D02*
Y03174D01*
Y17017D02*
Y19253D01*
Y20345D02*
Y20853D01*
Y21945D02*
Y23037D01*
Y23291D02*
Y23393D01*
Y37261D02*
Y38226D01*
X15011Y00355D02*
Y03174D01*
Y16992D02*
Y19253D01*
Y20345D02*
Y20853D01*
Y21945D02*
Y23037D01*
Y23393D02*
Y23418D01*
Y37261D02*
Y38125D01*
X15112Y00355D02*
Y03174D01*
Y17043D02*
Y19253D01*
Y20345D02*
Y20853D01*
Y21945D02*
Y23037D01*
Y37261D02*
Y38023D01*
X15214Y00355D02*
Y03174D01*
Y17119D02*
Y19253D01*
Y20345D02*
Y20853D01*
Y21945D02*
Y23037D01*
Y37261D02*
Y37922D01*
X15316Y00355D02*
Y03174D01*
Y17119D02*
Y19253D01*
Y20345D02*
Y20853D01*
Y21945D02*
Y23037D01*
Y37261D02*
Y3782D01*
X15417Y00355D02*
Y03174D01*
Y17119D02*
Y19253D01*
Y20345D02*
Y20853D01*
Y21996D02*
Y23037D01*
Y37261D02*
Y37718D01*
X15519Y00355D02*
Y03174D01*
Y17119D02*
Y19253D01*
Y20396D02*
Y20853D01*
Y22097D02*
Y23037D01*
Y37261D02*
Y37617D01*
X1562Y00355D02*
Y03174D01*
Y17094D02*
Y19253D01*
Y20497D02*
Y20878D01*
Y22199D02*
Y23037D01*
Y37261D02*
Y37515D01*
X15722Y00355D02*
Y03174D01*
Y17043D02*
Y19278D01*
Y20599D02*
Y20878D01*
Y22301D02*
Y23037D01*
Y37261D02*
Y37414D01*
X15824Y00355D02*
Y03174D01*
Y16992D02*
Y19278D01*
Y207D02*
Y20904D01*
Y22402D02*
Y23037D01*
Y37261D02*
Y37312D01*
X15925Y00355D02*
Y03174D01*
Y17068D02*
Y19303D01*
Y20802D02*
Y2098D01*
Y22504D02*
Y23037D01*
Y3721D02*
D01*
X16027Y00355D02*
Y03174D01*
Y17119D02*
Y19405D01*
Y20904D02*
Y21081D01*
Y22631D02*
Y23037D01*
Y37134D02*
Y37109D01*
X16128Y00355D02*
Y03174D01*
Y17119D02*
Y19481D01*
Y21031D02*
Y21183D01*
Y22682D02*
Y23291D01*
Y37033D02*
Y37007D01*
X1623Y00355D02*
Y03174D01*
Y17119D02*
Y19583D01*
Y21081D02*
Y21285D01*
Y22732D02*
Y23291D01*
Y36931D02*
Y36906D01*
X16332Y00355D02*
Y03174D01*
Y17119D02*
Y19684D01*
Y21132D02*
Y21386D01*
Y22758D02*
Y23317D01*
Y36829D02*
Y36804D01*
X16433Y00355D02*
Y03174D01*
Y17094D02*
Y19786D01*
Y21158D02*
Y21488D01*
Y22758D02*
Y23342D01*
Y36728D02*
Y36702D01*
X16535Y00355D02*
Y03174D01*
Y16992D02*
Y19888D01*
Y21158D02*
Y21589D01*
Y22758D02*
Y23418D01*
Y36626D02*
Y36601D01*
X16636Y00355D02*
Y03174D01*
Y16992D02*
Y19989D01*
Y21158D02*
Y2164D01*
Y22758D02*
Y23418D01*
Y36525D02*
Y36499D01*
X16738Y00355D02*
Y03174D01*
Y17068D02*
Y2004D01*
Y21158D02*
Y2164D01*
Y22758D02*
Y23367D01*
Y36423D02*
Y36398D01*
X1684Y00355D02*
Y032D01*
Y17119D02*
Y2004D01*
Y21158D02*
Y2164D01*
Y22758D02*
Y23317D01*
Y36321D02*
Y36296D01*
X16941Y00355D02*
Y03225D01*
Y17119D02*
Y2004D01*
Y21158D02*
Y2164D01*
Y22758D02*
Y23291D01*
Y3622D02*
Y36194D01*
X17043Y00355D02*
Y03276D01*
Y17119D02*
Y2004D01*
Y21158D02*
Y2164D01*
Y22758D02*
Y23291D01*
Y36118D02*
Y36093D01*
X17144Y00355D02*
Y03327D01*
Y17119D02*
Y2004D01*
Y21158D02*
Y2164D01*
Y22758D02*
Y23317D01*
Y36017D02*
Y35991D01*
X17246Y00355D02*
Y03428D01*
Y17094D02*
Y2004D01*
Y21158D02*
Y2164D01*
Y22758D02*
Y23342D01*
Y35915D02*
Y3589D01*
X17348Y00355D02*
Y0353D01*
Y16992D02*
Y2004D01*
Y21158D02*
Y2164D01*
Y22758D02*
Y23418D01*
Y35813D02*
Y35788D01*
X17449Y00355D02*
Y03632D01*
Y17017D02*
Y2004D01*
Y21158D02*
Y2164D01*
Y22758D02*
Y23393D01*
Y35712D02*
Y35686D01*
X17551Y00355D02*
Y03809D01*
Y17068D02*
Y2004D01*
Y21158D02*
Y2164D01*
Y22758D02*
Y23342D01*
Y3561D02*
Y35585D01*
X17652Y00355D02*
Y0447D01*
Y17119D02*
Y2004D01*
Y21158D02*
Y2164D01*
Y22758D02*
Y23317D01*
Y35509D02*
Y35483D01*
X17754Y00355D02*
Y04571D01*
Y17119D02*
Y2004D01*
Y21158D02*
Y2164D01*
Y22758D02*
Y23291D01*
Y35407D02*
Y35382D01*
X17856Y00355D02*
Y04673D01*
Y17119D02*
Y2004D01*
Y21158D02*
Y2164D01*
Y22758D02*
Y23291D01*
Y35305D02*
Y3528D01*
X17957Y00355D02*
Y04775D01*
Y17119D02*
Y2004D01*
Y21158D02*
Y2164D01*
Y22758D02*
Y23317D01*
Y35204D02*
Y35178D01*
X18059Y00355D02*
Y04876D01*
Y17068D02*
Y2004D01*
Y21158D02*
Y2164D01*
Y22758D02*
Y23367D01*
Y35102D02*
Y35077D01*
X1816Y00355D02*
Y04978D01*
Y16992D02*
Y2004D01*
Y21158D02*
Y2164D01*
Y22758D02*
Y23418D01*
Y35001D02*
Y34975D01*
X18262Y00355D02*
Y00761D01*
Y02844D02*
Y05079D01*
Y17017D02*
Y2004D01*
Y21158D02*
Y2164D01*
Y22758D02*
Y23418D01*
Y34899D02*
Y34874D01*
X18364Y00355D02*
Y00761D01*
Y02844D02*
Y05181D01*
Y17094D02*
Y2004D01*
Y21158D02*
Y2164D01*
Y22758D02*
Y23342D01*
Y34797D02*
Y34772D01*
X18465Y00355D02*
Y00761D01*
Y17119D02*
Y2004D01*
Y21158D02*
Y2164D01*
Y22758D02*
Y23317D01*
Y34696D02*
Y3467D01*
X18567Y00355D02*
Y00761D01*
Y17119D02*
Y2004D01*
Y21158D02*
Y2164D01*
Y22758D02*
Y23291D01*
Y34594D02*
Y34569D01*
X18668Y00355D02*
Y00761D01*
Y17119D02*
Y2004D01*
Y21158D02*
Y2164D01*
Y22758D02*
Y23291D01*
Y34493D02*
Y34467D01*
X1877Y00355D02*
Y00761D01*
Y17119D02*
Y2004D01*
Y21158D02*
Y2164D01*
Y22758D02*
Y23317D01*
Y34391D02*
Y34366D01*
X18872Y00355D02*
Y00761D01*
Y17068D02*
Y2004D01*
Y21158D02*
Y2164D01*
Y22758D02*
Y23367D01*
Y34289D02*
Y34264D01*
X18973Y00355D02*
Y00761D01*
Y16992D02*
Y2004D01*
Y21158D02*
Y2164D01*
Y22758D02*
Y23418D01*
Y34188D02*
Y34162D01*
X19075Y00355D02*
Y00761D01*
Y17017D02*
Y2004D01*
Y21158D02*
Y2164D01*
Y22758D02*
Y23393D01*
Y34086D02*
Y34061D01*
X19176Y00355D02*
Y00761D01*
Y17094D02*
Y2004D01*
Y21158D02*
Y2164D01*
Y22758D02*
Y23342D01*
Y33985D02*
Y33959D01*
X19278Y00355D02*
Y00761D01*
Y17119D02*
Y2004D01*
Y21158D02*
Y2164D01*
Y22758D02*
Y23317D01*
Y33883D02*
Y33858D01*
X1938Y00355D02*
Y00761D01*
Y17119D02*
Y2004D01*
Y21158D02*
Y2164D01*
Y22758D02*
Y23291D01*
Y33781D02*
Y33756D01*
X19481Y00355D02*
Y00761D01*
Y17119D02*
Y2004D01*
Y21158D02*
Y2164D01*
Y22758D02*
Y23291D01*
Y3368D02*
Y33654D01*
X19583Y00355D02*
Y00761D01*
Y17119D02*
Y2004D01*
Y21158D02*
Y2164D01*
Y22758D02*
Y23317D01*
Y33578D02*
Y33553D01*
X19684Y00355D02*
Y00761D01*
Y17043D02*
Y2004D01*
Y21158D02*
Y2164D01*
Y22758D02*
Y23367D01*
Y33477D02*
Y33451D01*
X19786Y00355D02*
Y00761D01*
Y16992D02*
Y2004D01*
Y21158D02*
Y2164D01*
Y22758D02*
Y23418D01*
Y33375D02*
Y3335D01*
X19888Y00355D02*
Y00761D01*
Y17017D02*
Y2004D01*
Y21158D02*
Y2164D01*
Y22758D02*
Y23393D01*
Y33273D02*
Y33248D01*
X19989Y00355D02*
Y00761D01*
Y02844D02*
Y03251D01*
Y17119D02*
Y2004D01*
Y21158D02*
Y2164D01*
Y22758D02*
Y23317D01*
Y33172D02*
Y33146D01*
X20091Y00355D02*
Y00761D01*
Y02844D02*
Y03251D01*
Y17119D02*
Y2004D01*
Y21158D02*
Y2164D01*
Y22758D02*
Y23291D01*
Y3307D02*
Y33045D01*
X20192Y00355D02*
Y00761D01*
Y02844D02*
Y03251D01*
Y17119D02*
Y2004D01*
Y21158D02*
Y2164D01*
Y22758D02*
Y23291D01*
Y32969D02*
Y32943D01*
X20294Y00355D02*
Y03251D01*
Y17119D02*
Y2004D01*
Y21158D02*
Y2164D01*
Y22758D02*
Y23291D01*
Y32867D02*
Y32842D01*
X20396Y00355D02*
Y03251D01*
Y17119D02*
Y2004D01*
Y21158D02*
Y2164D01*
Y22758D02*
Y23317D01*
Y32765D02*
Y3274D01*
X20497Y00355D02*
Y03251D01*
Y17043D02*
Y17373D01*
Y17449D02*
Y18186D01*
Y18262D02*
Y18973D01*
Y19049D02*
Y19557D01*
Y19634D02*
Y20015D01*
Y21158D02*
Y21386D01*
Y21462D02*
Y2164D01*
Y22758D02*
Y22986D01*
Y23063D02*
Y23393D01*
Y32664D02*
Y32638D01*
X20599Y00355D02*
Y03251D01*
Y16967D02*
Y17094D01*
Y17729D02*
Y17881D01*
Y18541D02*
Y18694D01*
Y19354D02*
Y19405D01*
Y19634D02*
Y19964D01*
Y23342D02*
Y23469D01*
Y32562D02*
Y32537D01*
X207Y16789D02*
Y16967D01*
Y19634D02*
Y19964D01*
Y23469D02*
Y23647D01*
Y32461D02*
Y32435D01*
X20802Y15493D02*
Y1689D01*
Y19634D02*
Y19964D01*
Y2352D02*
Y30835D01*
Y32359D02*
Y32334D01*
X20904Y15392D02*
Y16865D01*
Y19761D02*
Y19837D01*
Y23545D02*
Y30733D01*
Y32257D02*
Y32232D01*
X21005Y1529D02*
Y1684D01*
Y19761D02*
Y19837D01*
Y23571D02*
Y30632D01*
Y32156D02*
Y3213D01*
X21107Y15189D02*
Y16814D01*
Y19761D02*
Y19837D01*
Y23571D02*
Y3053D01*
Y32054D02*
Y32029D01*
X21208Y15087D02*
Y16814D01*
Y19761D02*
Y19837D01*
Y23571D02*
Y30429D01*
Y31953D02*
Y31927D01*
X2131Y14985D02*
Y16814D01*
Y19761D02*
Y19837D01*
Y23571D02*
Y30327D01*
Y31851D02*
Y31826D01*
X21412Y14884D02*
Y16814D01*
Y19761D02*
Y19837D01*
Y23571D02*
Y30225D01*
Y31749D02*
Y31724D01*
X21513Y14782D02*
Y16814D01*
Y19761D02*
Y19837D01*
Y23571D02*
Y30124D01*
Y31648D02*
Y31622D01*
X21615Y14681D02*
Y16814D01*
Y23571D02*
Y30022D01*
Y31546D02*
Y31521D01*
X21716Y14554D02*
Y16814D01*
Y31445D02*
Y31419D01*
X21818Y12191D02*
Y16814D01*
Y31343D02*
Y31318D01*
X2192Y12293D02*
Y16814D01*
Y31241D02*
Y31216D01*
X22021Y12395D02*
Y16789D01*
Y3114D02*
Y31114D01*
X22123Y12496D02*
Y16687D01*
Y31064D02*
Y31038D01*
X07587Y35477D02*
X08586D01*
Y33586*
X10174*
X10619Y33141*
X10603Y33102*
X08976*
X07373Y34705*
X07398Y34737*
X07501Y34987*
X07537Y35255*
X07514Y3542*
X07579Y3549*
X07583Y35484*
X07587Y35477*
G54D27*
X0752Y3535D02*
X08459D01*
Y33459*
X10122*
X10469Y33111*
X10519Y33229*
X09028*
X07542Y34716*
X07509Y34673*
X07625Y34954*
X07665Y35255*
X07648Y35378*
X07564Y35286*
X07478Y35413*
X0752Y3535*
X09042Y33248D02*
X10286D01*
X08483Y33477D02*
X08762D01*
X08483Y33705D02*
X08508D01*
X08381Y33934D02*
X08407D01*
X08127Y34162D02*
X08407D01*
X07924Y34391D02*
X08407D01*
X0767Y3462D02*
X08407D01*
X07619Y34848D02*
X08407D01*
X0767Y35077D02*
X08407D01*
X07721Y35305D02*
X08407D01*
G54D55*
X19677Y30965D02*
Y29629D01*
X19629Y29609*
X15414Y33823*
X15419Y33898*
X15565Y34089*
X15667Y34335*
X15702Y34599*
X15667Y34864*
X15613Y34994*
X15634Y35008*
X19677Y30965*
G54D27*
X1955Y30913D02*
Y29714D01*
X19659Y29759*
X15545Y33872*
X15543Y33851*
X15676Y34025*
X15791Y34302*
X1583Y34599*
X15791Y34897*
X15771Y34946*
X15618Y34844*
X1955Y30913*
X15671Y33781D02*
Y3401D01*
Y34848D02*
Y34874D01*
X159Y33578D02*
Y34518D01*
X16128Y33324D02*
Y34315D01*
X16357Y33121D02*
Y34061D01*
X16586Y32867D02*
Y33858D01*
X16814Y32664D02*
Y33604D01*
X17043Y3241D02*
Y334D01*
X17271Y32207D02*
Y33146D01*
X175Y31953D02*
Y32943D01*
X17729Y31749D02*
Y32689D01*
X17957Y31495D02*
Y32486D01*
X18186Y31292D02*
Y32232D01*
X18414Y31038D02*
Y32029D01*
X18643Y30835D02*
Y31775D01*
X18872Y30581D02*
Y31572D01*
X191Y30378D02*
Y31318D01*
X19329Y30124D02*
Y31114D01*
X19557Y29768D02*
Y29844D01*
G54D55*
X17277Y28383D02*
Y25466D01*
X17232Y25441*
X17209Y25456*
X16999Y25498*
X1679Y25456*
X1678Y2545*
X16722Y25482*
Y2887*
X1677Y2889*
X17277Y28383*
G54D27*
X1715Y28331D02*
Y25542D01*
X17239Y25589*
X17258Y25576*
X16999Y25628*
X16742Y25576*
X16776Y25598*
X16849Y25556*
Y28785*
X1674Y2874*
X1715Y28331*
X1684Y25653D02*
Y28625D01*
X17068Y25653D02*
Y28371D01*
G54D55*
X19766Y13844D02*
X19769Y1383D01*
X19894Y13644*
X2008Y13519*
X20299Y13475*
X20519Y13519*
X20705Y13644*
X20801Y13786*
X20758Y13781*
X20828Y13737*
Y12033*
X20581Y11786*
X20511Y11806*
X20533Y11781*
X20562Y11999*
X20527Y12264*
X20425Y1251*
X20263Y12723*
X2005Y12885*
X19804Y12987*
X19539Y13022*
X19274Y12987*
X19285Y12992*
X19122Y13156*
Y1442*
X1917Y1444*
X19766Y13844*
X19176Y13131D02*
Y14452D01*
X19278Y1303D02*
Y14325D01*
X1938Y1303D02*
Y14223D01*
X19481Y13055D02*
Y14122D01*
X19583Y13055D02*
Y1402D01*
X19684Y1303D02*
Y13919D01*
X19786Y1303D02*
Y13792D01*
X19888Y12979D02*
Y13614D01*
X19989Y12928D02*
Y13563D01*
X20091Y12877D02*
Y13487D01*
X20192Y12801D02*
Y13487D01*
X20294Y12725D02*
Y13487D01*
X20396Y12598D02*
Y13487D01*
X20497Y12369D02*
Y13487D01*
X20599Y11861D02*
Y13563D01*
X207Y11963D02*
Y13639D01*
X20802Y12064D02*
Y13741D01*
X16525Y14059D02*
X16594Y13957D01*
X1678Y13833*
X16999Y13789*
X17219Y13833*
X17232Y13841*
X17277Y13816*
Y13016*
X17274Y13013*
X15986*
Y11171*
X14195*
X12028Y13338*
X12044Y13377*
X15524*
X15718Y13416*
X15883Y13526*
X16434Y14078*
X16525Y14059*
X16449Y13945D02*
X16502Y13865D01*
X1673Y13713*
X16999Y13659*
X17268Y13713*
X17238Y13693*
X1715Y1374*
Y13068*
X17222Y1314*
X15859*
Y11298*
X14247*
X12178Y13368*
X12128Y1325*
X15536*
X15768Y13296*
X15964Y13428*
X16476Y1394*
X16449Y13945*
X14173Y11226D02*
X15951D01*
X14071Y11328D02*
X15951D01*
X13969Y11429D02*
X15951D01*
X13868Y11531D02*
X15951D01*
X13766Y11633D02*
X15951D01*
X13665Y11734D02*
X15951D01*
X13563Y11836D02*
X15951D01*
X13461Y11937D02*
X15951D01*
X1336Y12039D02*
X15951D01*
X13258Y12141D02*
X15951D01*
X13157Y12242D02*
X15951D01*
X13055Y12344D02*
X15951D01*
X12953Y12445D02*
X15951D01*
X12852Y12547D02*
X15951D01*
X1275Y12649D02*
X15951D01*
X12649Y1275D02*
X15951D01*
X12547Y12852D02*
X15951D01*
X12445Y12953D02*
X15951D01*
X12344Y13055D02*
X17271D01*
X12242Y13157D02*
X17271D01*
X12141Y13258D02*
X17271D01*
X12064Y1336D02*
X17271D01*
X15824Y13461D02*
X17271D01*
X15951Y13563D02*
X17271D01*
X16052Y13665D02*
X17271D01*
X16154Y13766D02*
X17271D01*
X16255Y13868D02*
X16713D01*
X16357Y13969D02*
X1656D01*
X08658Y12706D02*
X08627Y12693D01*
X08223Y12445*
X07862Y12137*
X07554Y11776*
X07306Y11371*
X07125Y10933*
X07014Y10472*
X07006Y10372*
X06951Y10352*
X0643Y10873*
X06265Y10983*
X06145Y11007*
X06122Y11063*
X06122Y11065*
X06258Y11241*
X0636Y11488*
X06395Y11752*
X06374Y11908*
X07195Y12728*
X08654*
X08658Y12706*
X06934Y10413D02*
X06984D01*
X06832Y10515D02*
X0701D01*
X0673Y10617D02*
X07035D01*
X06629Y10718D02*
X07061D01*
X06527Y1082D02*
X07086D01*
X06375Y10921D02*
X07111D01*
X06172Y11023D02*
X07162D01*
X06197Y11125D02*
X07213D01*
X06273Y11226D02*
X07238D01*
X06324Y11328D02*
X07289D01*
X06375Y11429D02*
X0734D01*
X064Y11531D02*
X07391D01*
X06426Y11633D02*
X07442D01*
X06426Y11734D02*
X07492D01*
X06426Y11836D02*
X07569D01*
X06426Y11937D02*
X0767D01*
X06527Y12039D02*
X07772D01*
X06629Y12141D02*
X07848D01*
X0673Y12242D02*
X07975D01*
X06832Y12344D02*
X08102D01*
X06934Y12445D02*
X08204D01*
X07035Y12547D02*
X08381D01*
X07137Y12649D02*
X08534D01*
X13671Y10363D02*
X13674Y1036D01*
X13666Y10338*
X13701Y1033*
X13459Y10281*
X13255Y10144*
X13118Y0994*
X13082Y09763*
X13636*
Y09636*
X13082*
X13118Y09459*
X13255Y09255*
X13459Y09118*
X13671Y09075*
X13682Y09067*
Y09013*
X14057*
X13924Y09188*
X13858Y09267*
X13727Y09406*
X13917Y09747*
X13956Y0971*
X14203Y095*
X14274Y09454*
X14337Y09422*
X14398Y09402*
X14458Y09397*
X14515Y09413*
X14101Y09032*
X14087Y09013*
X14636*
Y09817*
X14306*
X14281Y0994*
X14144Y10144*
X14075Y10191*
X14086Y10228*
X19844*
X1986Y10189*
X17692Y08022*
X15663*
Y08082*
X15717*
Y08182*
X16636*
Y09049*
Y09917*
X15532*
Y09817*
X14763*
Y09013*
X14636*
Y08886*
X13996*
X14354Y09384*
X1412Y08886*
X13682*
Y08082*
X13736*
Y07625*
X13374Y07263*
X12399*
X11326*
X11322Y07285*
X11371Y07306*
X11776Y07554*
X12137Y07862*
X12445Y08223*
X12693Y08628*
X12874Y09066*
X12985Y09527*
X13022Y09999*
X12985Y10472*
X12874Y10933*
X1274Y11257*
X12761Y11271*
X13671Y10363*
X11404Y07315D02*
X13411D01*
X11607Y07416D02*
X13512D01*
X11785Y07518D02*
X13614D01*
X11912Y07619D02*
X13715D01*
X12014Y07721D02*
X13715D01*
X12115Y07823D02*
X13715D01*
X12217Y07924D02*
X13715D01*
X12318Y08026D02*
X13715D01*
X15697D02*
X17678D01*
X12395Y08127D02*
X13665D01*
X15747D02*
X17779D01*
X12471Y08229D02*
X13665D01*
X16662D02*
X17881D01*
X12547Y08331D02*
X13665D01*
X16662D02*
X17983D01*
X12598Y08432D02*
X13665D01*
X16662D02*
X18084D01*
X12674Y08534D02*
X13665D01*
X16662D02*
X18186D01*
X12725Y08635D02*
X13665D01*
X16662D02*
X18287D01*
X12776Y08737D02*
X13665D01*
X16662D02*
X18389D01*
X12826Y08839D02*
X13665D01*
X16662D02*
X18491D01*
X12852Y0894D02*
X14604D01*
X16662D02*
X18592D01*
X12903Y09042D02*
X13665D01*
X14071D02*
D01*
X14147D02*
X14173D01*
X14655D02*
X14731D01*
X16662D02*
X18694D01*
X12928Y09143D02*
X13411D01*
X13995D02*
X14223D01*
X14655D02*
X14731D01*
X16662D02*
X18795D01*
X12953Y09245D02*
X13233D01*
X13919D02*
X143D01*
X14655D02*
X14731D01*
X16662D02*
X18897D01*
X12979Y09347D02*
X13157D01*
X13817D02*
X14401D01*
X14655D02*
X14731D01*
X16662D02*
X18999D01*
X13004Y09448D02*
X1308D01*
X13792D02*
X14249D01*
X14655D02*
X14731D01*
X16662D02*
X191D01*
X1303Y0955D02*
X1308D01*
X13842D02*
X14122D01*
X14655D02*
X14731D01*
X16662D02*
X19202D01*
X1303Y09651D02*
X13614D01*
X13893D02*
X13995D01*
X14655D02*
X14731D01*
X16662D02*
X19303D01*
X1303Y09753D02*
X13055D01*
X14655D02*
X14731D01*
X16662D02*
X19405D01*
X13055Y09855D02*
X1308D01*
X14325D02*
X15519D01*
X16662D02*
X19507D01*
X13055Y09956D02*
X13106D01*
X143D02*
X19608D01*
X13055Y10058D02*
X13182D01*
X14223D02*
X1971D01*
X13055Y10159D02*
X13284D01*
X14147D02*
X19811D01*
X1303Y10261D02*
X13411D01*
X1303Y10363D02*
X13639D01*
X13004Y10464D02*
X13538D01*
X13004Y10566D02*
X13436D01*
X12979Y10667D02*
X13334D01*
X12953Y10769D02*
X13233D01*
X12928Y10871D02*
X13131D01*
X12903Y10972D02*
X1303D01*
X12852Y11074D02*
X12928D01*
X12826Y11175D02*
D01*
X09263Y04426D02*
X09427Y04316D01*
X09621Y04277*
X13613*
X13613*
X13612Y04278*
X13605Y04316*
X13568Y04252*
X05286*
X04322Y05216*
Y05583*
X0438Y05605*
X05309*
Y06609*
X05436*
Y06736*
X0644*
Y07193*
X06479Y07209*
X09263Y04426*
X05257Y04292D02*
X09499D01*
X05156Y04394D02*
X09296D01*
X05054Y04495D02*
X09169D01*
X04952Y04597D02*
X09067D01*
X04851Y04698D02*
X08966D01*
X04749Y048D02*
X08864D01*
X04648Y04902D02*
X08762D01*
X04546Y05003D02*
X08661D01*
X04444Y05105D02*
X08559D01*
X04343Y05206D02*
X08458D01*
X04343Y05308D02*
X08356D01*
X04343Y0541D02*
X08254D01*
X04343Y05511D02*
X08153D01*
X05333Y05613D02*
X08051D01*
X05333Y05714D02*
X0795D01*
X05333Y05816D02*
X07848D01*
X05333Y05918D02*
X07746D01*
X05333Y06019D02*
X07645D01*
X05333Y06121D02*
X07543D01*
X05333Y06222D02*
X07442D01*
X05333Y06324D02*
X0734D01*
X05333Y06426D02*
X07238D01*
X05333Y06527D02*
X07137D01*
X0546Y06629D02*
X07035D01*
X06476Y0673D02*
X06934D01*
X06476Y06832D02*
X06832D01*
X06476Y06934D02*
X0673D01*
X06476Y07035D02*
X06629D01*
X06476Y07137D02*
X06527D01*
X3985Y3454D02*
X39359D01*
Y32754*
X39467Y32799*
X38342Y33924*
X38826Y34409*
X39399*
X39526*
X3985*
Y3454*
X38201Y33908D02*
Y33959D01*
X38303Y33807D02*
Y34061D01*
X38404Y33705D02*
Y34162D01*
X38506Y33604D02*
Y34264D01*
X38607Y33502D02*
Y34366D01*
X38709Y334D02*
Y34467D01*
X38811Y33299D02*
Y34543D01*
X38912Y33197D02*
Y34543D01*
X39014Y33096D02*
Y34543D01*
X39115Y32994D02*
Y34543D01*
X39217Y32892D02*
Y34543D01*
X39319Y32791D02*
Y34543D01*
X3942Y32689D02*
Y34543D01*
X39522Y34442D02*
Y34543D01*
X39623Y34442D02*
Y34543D01*
X39725Y34442D02*
Y34543D01*
X39827Y34442D02*
Y34543D01*
X39928Y34442D02*
Y34543D01*
X30537Y31803D02*
X31629D01*
X32003Y31429*
Y31268*
X32029Y3129*
X30608*
X30562Y31296*
X2997*
X29349Y31917*
X29304Y31809*
X30491*
X30537Y31803*
X29895Y31216D02*
X3213D01*
X29794Y31318D02*
X3213D01*
X29692Y31419D02*
X3213D01*
X2959Y31521D02*
X32054D01*
X29489Y31622D02*
X31953D01*
X29387Y31724D02*
X31851D01*
X29286Y31826D02*
X31749D01*
%LNpcb_final_2-2*%
%LPC*%
G36*
X20496Y49356D02*
X20358Y49338D01*
X20111Y49235*
X19898Y49073*
X19878Y49046*
X20217Y49008*
X20238Y49006*
X20496Y48753*
Y49356*
G37*
G36*
X25576D02*
X25438Y49338D01*
X25191Y49235*
X24978Y49073*
X24958Y49046*
X25318Y49006*
X25576Y48753*
Y49356*
G37*
G36*
X23036D02*
X22898Y49338D01*
X22651Y49235*
X22438Y49073*
X22418Y49046*
X22757Y49008*
X22778Y49006*
X23036Y48753*
Y49356*
G37*
G36*
X2583D02*
Y48753D01*
X26088Y49006*
X26448Y49046*
X26428Y49073*
X26215Y49235*
X25968Y49338*
X2583Y49356*
G37*
G36*
X2329D02*
Y48753D01*
X23548Y49006*
X23908Y49046*
X23888Y49073*
X23675Y49235*
X23428Y49338*
X2329Y49356*
G37*
G36*
X2075D02*
Y48753D01*
X21008Y49006*
X21029Y49008*
X21368Y49046*
X21348Y49073*
X21135Y49235*
X20888Y49338*
X2075Y49356*
G37*
G36*
X26477Y49008D02*
X2669Y48475D01*
X26711*
X26693Y48613*
X2659Y4886*
X26477Y49008*
G37*
G36*
X23937D02*
X2415Y48475D01*
X24171*
X24153Y48613*
X2405Y4886*
X23937Y49008*
G37*
G36*
X21397D02*
X21441Y48899D01*
X21599Y48504*
X2161Y48475*
X21631*
X21613Y48613*
X2151Y4886*
X21397Y49008*
G37*
G36*
X2837Y49356D02*
Y48475D01*
X29251*
X29233Y48613*
X2913Y4886*
X28968Y49073*
X28755Y49235*
X28508Y49338*
X2837Y49356*
G37*
G36*
X2583Y48504D02*
Y48475D01*
X25859*
X2583Y48504*
G37*
G36*
X2329D02*
Y48475D01*
X23319*
X2329Y48504*
G37*
G36*
X2075D02*
Y48475D01*
X20779*
X2075Y48504*
G37*
G36*
X25576D02*
X25547Y48475D01*
X25576*
Y48504*
G37*
G36*
X23036D02*
X23007Y48475D01*
X23036*
Y48504*
G37*
G36*
X20496D02*
X20467Y48475D01*
X20496*
Y48504*
G37*
G36*
X28116Y49356D02*
X27978Y49338D01*
X27731Y49235*
X27518Y49073*
X27498Y49046*
X27858Y49006*
X27714Y48475*
X28116*
Y49356*
G37*
G36*
X27469Y49008D02*
X27356Y4886D01*
X27253Y48613*
X27235Y48475*
X27256*
X27469Y49008*
G37*
G36*
X24929D02*
X24816Y4886D01*
X24713Y48613*
X24695Y48475*
X24716*
X24929Y49008*
G37*
G36*
X22389D02*
X22276Y4886D01*
X22173Y48613*
X22155Y48475*
X22176*
X22389Y49008*
G37*
G36*
X19849D02*
X19736Y4886D01*
X19633Y48613*
X19615Y48475*
X19636*
X19798Y48881*
X19849Y49008*
G37*
G36*
X17395Y48492D02*
X17393D01*
X17386Y48439*
X17388Y48441*
X17395Y48492*
G37*
G36*
X14672Y48753D02*
X13895D01*
Y48126*
X14672*
Y48753*
G37*
G36*
X28116Y48221D02*
X27645D01*
X27578Y47976*
X27566Y4799*
X27545Y48002*
X27517Y48013*
X2748Y48022*
X27435Y4803*
X27381Y48036*
X27269Y48044*
X27356Y47836*
X27518Y47623*
X27731Y47461*
X27978Y47358*
X28116Y4734*
Y48221*
G37*
G36*
X25576D02*
X25288D01*
X25038Y47976*
X25026Y4799*
X25005Y48002*
X24977Y48013*
X2494Y48022*
X24895Y4803*
X24731Y48041*
X24816Y47836*
X24978Y47623*
X25191Y47461*
X25438Y47358*
X25576Y4734*
Y48221*
G37*
G36*
X23036D02*
X22748D01*
X22498Y47976*
X22486Y4799*
X22465Y48002*
X22437Y48013*
X224Y48022*
X22355Y4803*
X22191Y48041*
X22276Y47836*
X22438Y47623*
X22651Y47461*
X22898Y47358*
X23036Y4734*
Y48221*
G37*
G36*
X20496D02*
X20208D01*
X19958Y47976*
X19946Y4799*
X19925Y48002*
X19897Y48013*
X1986Y48022*
X19815Y4803*
X19656Y4804*
X19651*
X19736Y47836*
X19747Y4782*
X19659Y47727*
X19594Y4777*
X19399Y47809*
X19204Y4777*
X19039Y47659*
X18928Y47494*
X18889Y47299*
X18928Y47104*
X19039Y46939*
X19166Y46854*
Y42499*
X19191Y42371*
X19263Y42263*
X19663Y41863*
X19771Y41791*
X19899Y41766*
X25961*
X2901Y38716*
X28962Y38599*
X28623*
X28398Y38823*
X2825Y38923*
X28074Y38958*
X26912*
X26894Y3897*
X26699Y39009*
X26504Y3897*
X26339Y38859*
X26228Y38694*
X26189Y38499*
X26228Y38304*
X26339Y38139*
X26504Y38028*
X26699Y37989*
X26894Y38028*
X26912Y3804*
X27884*
X28249Y37675*
Y37049*
X29249*
Y38312*
X29366Y3836*
X31663Y36063*
X31771Y35991*
X31899Y35966*
X3322*
X33238Y35938*
X33404Y35828*
X33599Y35789*
X33794Y35828*
X33959Y35938*
X3407Y36104*
X34109Y36299*
X3407Y36494*
X33959Y36659*
X33794Y3677*
X33599Y36809*
X33404Y3677*
X33238Y36659*
X3322Y36632*
X32037*
X31191Y37478*
X31233Y37616*
X31294Y37628*
X31459Y37739*
X3157Y37904*
X31609Y38099*
X3157Y38294*
X31459Y38459*
X31433Y38477*
Y4396*
X31707Y44235*
X31839Y44239*
X32004Y44128*
X32074Y44114*
X32119Y43995*
X32036Y43888*
X3192Y43607*
X31897Y43433*
X32276*
X32307Y43564*
X32389Y43433*
X32917*
Y43977*
X32454Y43895*
X32539Y44017*
X3279Y44427*
X32814Y44476*
X32744Y44538*
Y44618*
X32844Y44708*
X32858Y44707*
X3283Y44774*
X3279Y44857*
X32682Y45047*
X32539Y45267*
X32454Y45389*
X32917Y45307*
Y45719*
X31897*
X3192Y45545*
X32036Y45264*
X32088Y45197*
X32043Y45078*
X32004Y4507*
X31839Y44959*
X31821Y44933*
X31599*
X31471Y44908*
X31363Y44835*
X30863Y44335*
X3079Y44227*
X30765Y44099*
Y38477*
X30739Y38459*
X30628Y38294*
X30616Y38233*
X30478Y38191*
X26335Y42335*
X26303Y42356*
X26298Y42512*
X26389Y42582*
X26543Y42783*
X2664Y43017*
X26673Y43268*
X2664Y43519*
X26543Y43753*
X26389Y43954*
X26188Y44108*
X25954Y44205*
X25703Y44238*
X25452Y44205*
X25218Y44108*
X25017Y43954*
X24863Y43753*
X24766Y43519*
X24733Y43268*
X24766Y43017*
X24863Y42783*
X25017Y42582*
X25055Y42553*
X25014Y42432*
X23852*
X23811Y42553*
X23849Y42582*
X24003Y42783*
X241Y43017*
X24133Y43268*
X241Y43519*
X24003Y43753*
X23849Y43954*
X23648Y44108*
X23414Y44205*
X23163Y44238*
X22912Y44205*
X22678Y44108*
X22477Y43954*
X22323Y43753*
X22226Y43519*
X22193Y43268*
X22226Y43017*
X22323Y42783*
X22477Y42582*
X22515Y42553*
X22474Y42432*
X21312*
X21271Y42553*
X21309Y42582*
X21463Y42783*
X2156Y43017*
X21593Y43268*
X2156Y43519*
X21463Y43753*
X21309Y43954*
X21108Y44108*
X20874Y44205*
X20623Y44238*
X20372Y44205*
X20138Y44108*
X19959Y43971*
X19832Y44008*
Y45068*
X19959Y45105*
X20138Y44968*
X20372Y44871*
X20623Y44838*
X20874Y44871*
X21108Y44968*
X21309Y45122*
X21463Y45323*
X2156Y45557*
X21593Y45808*
X2156Y46059*
X21463Y46293*
X21309Y46494*
X21108Y46648*
X20874Y46745*
X20623Y46778*
X20372Y46745*
X20138Y46648*
X19959Y46511*
X19832Y46548*
Y47048*
X1987Y47104*
X19909Y47299*
X19872Y47483*
X19893Y4751*
X19976Y47564*
X20111Y47461*
X20358Y47358*
X20496Y4734*
Y48221*
G37*
G36*
X16925Y48492D02*
X16526D01*
Y47623*
X16661Y47641*
X16905Y47742*
X17115Y47903*
X17188Y47998*
X17159Y48008*
X16989Y48038*
X16799Y48048*
X16888Y48108*
X16925Y48492*
G37*
G36*
X26118Y48221D02*
X2583D01*
Y4734*
X25968Y47358*
X26215Y47461*
X26428Y47623*
X2659Y47836*
X26675Y48041*
X26511Y4803*
X26466Y48022*
X26429Y48013*
X26401Y48002*
X2638Y4799*
X26368Y47976*
X26118Y48221*
G37*
G36*
X23578D02*
X2329D01*
Y4734*
X23428Y47358*
X23675Y47461*
X23888Y47623*
X2405Y47836*
X24135Y48041*
X23971Y4803*
X23926Y48022*
X23889Y48013*
X23861Y48002*
X2384Y4799*
X23828Y47976*
X23578Y48221*
G37*
G36*
X29251D02*
X2837D01*
Y4734*
X28508Y47358*
X28755Y47461*
X28968Y47623*
X2913Y47836*
X29233Y48083*
X29251Y48221*
G37*
G36*
X21038D02*
X2075D01*
Y4734*
X20888Y47358*
X21135Y47461*
X21348Y47623*
X2151Y47836*
X21595Y48041*
X21431Y4803*
X21386Y48022*
X21349Y48013*
X21321Y48002*
X213Y4799*
X21288Y47976*
X21038Y48221*
G37*
G36*
X34144Y49486D02*
X31944D01*
Y47286*
X34144*
Y49486*
G37*
G36*
X35584Y49495D02*
X35297Y49458D01*
X3503Y49347*
X348Y49171*
X34624Y48941*
X34513Y48673*
X34475Y48386*
X34513Y48099*
X34624Y47831*
X348Y47601*
X3503Y47425*
X35297Y47314*
X35584Y47277*
X35872Y47314*
X36139Y47425*
X36369Y47601*
X36545Y47831*
X36656Y48099*
X36694Y48386*
X36656Y48673*
X36545Y48941*
X36369Y49171*
X36139Y49347*
X35872Y49458*
X35584Y49495*
G37*
G36*
X14672Y47872D02*
X13895D01*
Y47245*
X14672*
Y47872*
G37*
G36*
X12196Y48772D02*
X11776D01*
Y47945*
X11891*
X11932Y47825*
X11921Y47817*
X11769Y47618*
X11673Y47387*
X11641Y47139*
X11673Y46891*
X11769Y4666*
X11921Y46461*
X1212Y46309*
X12351Y46213*
X12599Y46181*
X12847Y46213*
X13078Y46309*
X13277Y46461*
X13429Y4666*
X13525Y46891*
X13557Y47139*
X13525Y47387*
X13429Y47618*
X13277Y47817*
X13078Y47969*
X12847Y48065*
X12599Y48097*
X12548Y48091*
X12453Y48174*
Y48351*
X12446Y4835*
X12356Y48328*
X12286Y48302*
X12236Y48273*
X12206Y48239*
X12196Y48202*
Y48772*
G37*
G36*
X33171Y46993D02*
Y45973D01*
X34192*
X34169Y46147*
X34052Y46428*
X33867Y46669*
X33626Y46854*
X33346Y4697*
X33171Y46993*
G37*
G36*
X32917D02*
X32743Y4697D01*
X32462Y46854*
X32221Y46669*
X32036Y46428*
X3192Y46147*
X31897Y45973*
X32917*
Y46993*
G37*
G36*
X28243Y46778D02*
X27992Y46745D01*
X27758Y46648*
X27557Y46494*
X27403Y46293*
X27306Y46059*
X27273Y45808*
X27306Y45557*
X27403Y45323*
X27557Y45122*
X27758Y44968*
X27992Y44871*
X28243Y44838*
X28494Y44871*
X28728Y44968*
X28929Y45122*
X29083Y45323*
X2918Y45557*
X29213Y45808*
X2918Y46059*
X29083Y46293*
X28929Y46494*
X28728Y46648*
X28494Y46745*
X28243Y46778*
G37*
G36*
X25703D02*
X25452Y46745D01*
X25218Y46648*
X25017Y46494*
X24863Y46293*
X24766Y46059*
X24733Y45808*
X24766Y45557*
X24863Y45323*
X25017Y45122*
X25218Y44968*
X25452Y44871*
X25703Y44838*
X25954Y44871*
X26188Y44968*
X26389Y45122*
X26543Y45323*
X2664Y45557*
X26673Y45808*
X2664Y46059*
X26543Y46293*
X26389Y46494*
X26188Y46648*
X25954Y46745*
X25703Y46778*
G37*
G36*
X23163D02*
X22912Y46745D01*
X22678Y46648*
X22477Y46494*
X22323Y46293*
X22226Y46059*
X22193Y45808*
X22226Y45557*
X22323Y45323*
X22477Y45122*
X22678Y44968*
X22912Y44871*
X23163Y44838*
X23414Y44871*
X23648Y44968*
X23849Y45122*
X24003Y45323*
X241Y45557*
X24133Y45808*
X241Y46059*
X24003Y46293*
X23849Y46494*
X23648Y46648*
X23414Y46745*
X23163Y46778*
G37*
G36*
X35584Y46955D02*
X35297Y46918D01*
X3503Y46807*
X348Y46631*
X34624Y46401*
X34513Y46133*
X34475Y45846*
X34513Y45559*
X34624Y45291*
X348Y45061*
X3503Y44885*
X35297Y44774*
X35584Y44737*
X35872Y44774*
X36139Y44885*
X36369Y45061*
X36545Y45291*
X36656Y45559*
X36694Y45846*
X36656Y46133*
X36545Y46401*
X36369Y46631*
X36139Y46807*
X35872Y46918*
X35584Y46955*
G37*
G36*
X34192Y45719D02*
X33171D01*
Y45262*
X33694Y45169*
X33592Y45096*
X3342Y44952*
X3335Y44881*
X33291Y44811*
X33242Y44742*
X33222Y44705*
X33346Y44722*
X33626Y44838*
X33867Y45023*
X34052Y45264*
X34169Y45545*
X34192Y45719*
G37*
G36*
X46603Y44753D02*
X45826D01*
Y44126*
X46346*
Y44496*
X46351Y44449*
X46366Y44407*
X46391Y4437*
X46426Y44338*
X46471Y44311*
X46526Y44289*
X46591Y44271*
X46603Y44269*
Y44753*
G37*
G36*
X44503Y44853D02*
X43726D01*
Y44226*
X44503*
Y44853*
G37*
G36*
X43472D02*
X42695D01*
Y44226*
X43472*
Y44853*
G37*
G36*
X45572Y44753D02*
X44795D01*
Y44126*
X45572*
Y44753*
G37*
G36*
X43149Y47909D02*
X42954Y4787D01*
X42789Y47759*
X42678Y47594*
X42639Y47399*
X42678Y47204*
X4269Y47186*
Y46349*
X42615Y46258*
X41899*
X41723Y46223*
X41575Y46123*
X40325Y44874*
X40304Y4487*
X40139Y44759*
X40028Y44594*
X39989Y44399*
X40028Y44204*
X40139Y44039*
X40304Y43928*
X40499Y43889*
X40694Y43928*
X40859Y44039*
X4097Y44204*
X40974Y44225*
X42089Y4534*
X42749*
Y44999*
X44449*
Y4534*
X44849*
Y44899*
X46549*
Y4514*
X47609*
X48456Y44293*
X4846Y44271*
X48571Y44106*
X48736Y43996*
X48931Y43957*
X49127Y43996*
X49292Y44106*
X49402Y44271*
X49441Y44467*
X49402Y44662*
X49292Y44827*
X49127Y44938*
X49105Y44942*
X48123Y45923*
X47975Y46023*
X47799Y46058*
X46549*
Y46299*
X44849*
Y46258*
X44449*
Y46399*
X43748*
X43608Y46539*
Y47186*
X4362Y47204*
X43659Y47399*
X4362Y47594*
X43509Y47759*
X43344Y4787*
X43149Y47909*
G37*
G36*
X13549Y45549D02*
X11649D01*
Y43649*
X13549*
Y45549*
G37*
G36*
X33324Y44433D02*
X3335Y44403D01*
X3342Y44332*
X335Y44261*
X33592Y44188*
X33694Y44115*
X33171Y44022*
Y43433*
X34192*
X34169Y43607*
X34052Y43888*
X33867Y44129*
X33626Y44314*
X33346Y4443*
X33324Y44433*
G37*
G36*
X46346Y43872D02*
X45826D01*
Y43245*
X46603*
Y43729*
X46591Y43727*
X46526Y43709*
X46471Y43687*
X46426Y4366*
X46391Y43628*
X46366Y43591*
X46351Y43549*
X46346Y43502*
Y43872*
G37*
G36*
X45572D02*
X44795D01*
Y43245*
X45572*
Y43872*
G37*
G36*
X44503Y43972D02*
X42695D01*
Y43345*
X43111*
X43225Y43175*
X43408Y43052*
X43497Y43034*
Y43574*
X43751*
Y43034*
X4384Y43052*
X44023Y43175*
X44137Y43345*
X44503*
Y43972*
G37*
G36*
X35584Y44415D02*
X35297Y44378D01*
X3503Y44267*
X348Y44091*
X34624Y43861*
X34513Y43593*
X34475Y43306*
X34513Y43019*
X34562Y429*
X34471Y42789*
X34369Y42809*
X34212Y42778*
X34128Y42857*
X34116Y42878*
X34169Y43005*
X34192Y43179*
X33171*
Y42159*
X33346Y42182*
X33626Y42298*
X33748Y42391*
X33863Y4232*
X33859Y42299*
X33898Y42104*
X34002Y41948*
Y41523*
X33882Y41482*
X33829Y41551*
X33599Y41727*
X33332Y41838*
X33044Y41875*
X32757Y41838*
X3249Y41727*
X3226Y41551*
X32084Y41321*
X31973Y41053*
X31935Y40766*
X31973Y40479*
X32084Y40211*
X3226Y39981*
X3249Y39805*
X32757Y39694*
X33044Y39657*
X33332Y39694*
X33599Y39805*
X33829Y39981*
X33882Y4005*
X34002Y40009*
Y39071*
X33882Y3903*
X33867Y39049*
X33626Y39234*
X33346Y3935*
X33171Y39373*
Y38226*
Y37079*
X33346Y37102*
X33626Y37218*
X33867Y37403*
X33882Y37422*
X34002Y37381*
Y37262*
X34027Y37134*
X341Y37025*
X35595Y3553*
X35589Y35499*
X35628Y35304*
X35739Y35139*
X35904Y35028*
X36099Y34989*
X36294Y35028*
X36459Y35139*
X3657Y35304*
X36609Y35499*
X3657Y35694*
X36459Y35859*
X36294Y3597*
X36099Y36009*
X36068Y36003*
X34756Y37315*
X34839Y37411*
X3503Y37265*
X35297Y37154*
X35584Y37117*
X35872Y37154*
X36139Y37265*
X36203Y37314*
X3684Y36676*
X36839Y36659*
X36728Y36494*
X36689Y36299*
X36728Y36104*
X36839Y35939*
X37004Y35828*
X37199Y35789*
X37394Y35828*
X37559Y35939*
X3767Y36104*
X37709Y36299*
X3767Y36494*
X37559Y36659*
X37532Y36678*
Y36789*
X37507Y36917*
X37435Y37025*
X36616Y37843*
X36656Y37939*
X36694Y38226*
X36656Y38513*
X36545Y38781*
X36369Y39011*
X36139Y39187*
X35872Y39298*
X35584Y39335*
X35297Y39298*
X3503Y39187*
X348Y39011*
X34791Y38999*
X34671Y3904*
Y39952*
X34791Y39993*
X348Y39981*
X3503Y39805*
X35297Y39694*
X35584Y39657*
X35872Y39694*
X36139Y39805*
X36369Y39981*
X36545Y40211*
X36656Y40479*
X36694Y40766*
X36656Y41053*
X36545Y41321*
X36369Y41551*
X36139Y41727*
X35872Y41838*
X35584Y41875*
X35297Y41838*
X3503Y41727*
X348Y41551*
X34791Y41539*
X34671Y4158*
Y41899*
X34729Y41939*
X3484Y42104*
X34879Y42299*
X34876Y42313*
X34984Y4238*
X3503Y42345*
X35297Y42234*
X35584Y42197*
X35872Y42234*
X36139Y42345*
X36369Y42521*
X36545Y42751*
X36656Y43019*
X36694Y43306*
X36656Y43593*
X36545Y43861*
X36369Y44091*
X36139Y44267*
X35872Y44378*
X35584Y44415*
G37*
G36*
X32212Y43179D02*
X31897D01*
X3192Y43005*
X32036Y42724*
X32042Y42716*
X32043Y42717*
X32075Y42779*
X32108Y42854*
X32173Y43041*
X32212Y43179*
G37*
G36*
X32917D02*
X32548D01*
X32917Y42591*
Y43179*
G37*
G36*
X16399Y44497D02*
X16151Y44465D01*
X1592Y44369*
X15721Y44217*
X15569Y44018*
X15473Y43787*
X15441Y43539*
X15473Y43291*
X15569Y4306*
X15721Y42861*
X1592Y42709*
X16151Y42613*
X16399Y42581*
X16647Y42613*
X16878Y42709*
X17077Y42861*
X17229Y4306*
X17325Y43291*
X17357Y43539*
X17325Y43787*
X17229Y44018*
X17077Y44217*
X16878Y44369*
X16647Y44465*
X16399Y44497*
G37*
G36*
X28243Y44238D02*
X27992Y44205D01*
X27758Y44108*
X27557Y43954*
X27403Y43753*
X27306Y43519*
X27273Y43268*
X27306Y43017*
X27403Y42783*
X27557Y42582*
X27758Y42428*
X27992Y42331*
X28243Y42298*
X28494Y42331*
X28728Y42428*
X28929Y42582*
X29083Y42783*
X2918Y43017*
X29213Y43268*
X2918Y43519*
X29083Y43753*
X28929Y43954*
X28728Y44108*
X28494Y44205*
X28243Y44238*
G37*
G36*
X32541Y42554D02*
X32451Y42549D01*
X32369Y42536*
X32295Y42516*
X32228Y42488*
X32221Y42483*
X32462Y42298*
X32743Y42182*
X32917Y42159*
Y42509*
X32856Y42523*
X32638Y42551*
X32541Y42554*
G37*
G36*
X21453Y40703D02*
X20751D01*
Y40276*
X21453*
Y40703*
G37*
G36*
X20497D02*
X19795D01*
Y40276*
X20497*
Y40703*
G37*
G36*
X17349Y41949D02*
X15449D01*
Y40049*
X17349*
Y41949*
G37*
G36*
X21453Y40022D02*
X20751D01*
Y39595*
X21453*
Y40022*
G37*
G36*
X20497D02*
X19795D01*
Y39595*
X20497*
Y40022*
G37*
G36*
X39999Y42958D02*
X39536Y42922D01*
X39085Y42813*
X38656Y42636*
X3826Y42393*
X37907Y42091*
X37605Y41738*
X37362Y41342*
X37185Y40913*
X37076Y40462*
X3704Y39999*
X37076Y39536*
X37185Y39085*
X37362Y38656*
X37605Y3826*
X37907Y37907*
X3826Y37605*
X38656Y37362*
X39085Y37185*
X39536Y37076*
X39999Y3704*
X40462Y37076*
X40913Y37185*
X41342Y37362*
X41738Y37605*
X42Y37829*
X42087Y37735*
X4075Y36399*
X39526*
X39399*
X39272*
X37899*
Y35747*
X36857Y34705*
X30363*
X30253Y34745*
Y34832*
Y35447*
X29145*
Y34832*
Y34745*
X29035Y34705*
X28699*
X28516Y34681*
X28346Y3461*
X282Y34498*
X274Y33698*
X27308Y33579*
X27196Y33561*
X27156Y33566*
X27132Y33584*
Y34161*
X27771Y34799*
X28299*
Y36349*
X27299*
Y35271*
X26563Y34535*
X26491Y34427*
X26466Y34299*
Y33478*
X26439Y33459*
X26328Y33294*
X26289Y33099*
X26328Y32904*
X26439Y32739*
X26604Y32628*
X26799Y32589*
X26994Y32628*
X27066Y32676*
X27193Y32608*
Y32441*
X27051Y32299*
X26599*
Y30853*
X26545*
Y30176*
X27499*
X28093*
X28193Y30309*
X28169Y30266*
X28159Y30217*
X28161Y30176*
X28453*
Y30381*
X2857Y30429*
X28999Y30001*
Y29699*
X29553*
X29599Y29693*
X30549*
X30595Y29699*
X32099*
X32193Y29619*
Y28963*
X32153Y28853*
X32066*
X30676*
Y28099*
Y27605*
X30699*
X30676Y27603*
Y27345*
X32066*
X32153*
X32193Y27235*
Y26291*
X31807Y25905*
X30224*
X30041Y25881*
X29871Y2581*
X29726Y25699*
X29449*
Y24699*
X29726*
X29871Y24588*
X30041Y24517*
X30224Y24493*
X32099*
X32282Y24517*
X32452Y24588*
X32598Y247*
X33398Y255*
X3351Y25646*
X33581Y25816*
X33605Y25999*
Y31799*
X33581Y31982*
X3351Y32152*
X33398Y32298*
X32531Y33166*
X32576Y33293*
X36707*
X37579Y3242*
X37531Y32303*
X36576*
Y30526*
X38053*
Y31781*
X3817Y31829*
X3968Y3032*
X39826Y30208*
X39996Y30137*
X40179Y30113*
X44853*
Y29639*
X44729Y29478*
X44633Y29247*
X44601Y28999*
X44633Y28751*
X44729Y2852*
X44881Y28321*
X4508Y28169*
X451Y28161*
Y27089*
X45135Y26913*
X45235Y26765*
X45299Y267*
Y25699*
X4554*
Y20812*
X45528Y20794*
X45489Y20599*
X45528Y20404*
X45639Y20239*
X45804Y20128*
X45999Y20089*
X46194Y20128*
X46359Y20239*
X4647Y20404*
X46509Y20599*
X4647Y20794*
X46458Y20812*
Y25699*
X46745*
Y25645*
X4709*
X47129Y25518*
X471Y25498*
X46977Y25315*
X46959Y25226*
X48039*
X48021Y25315*
X47898Y25498*
X47869Y25518*
X47908Y25645*
X48353*
Y26472*
X47549*
Y26599*
X47422*
Y27295*
X47002Y27296*
X47049Y27301*
X47091Y27316*
X47128Y27341*
X4716Y27376*
X47187Y27421*
X47209Y27476*
X47227Y27541*
X47229Y27553*
X46745*
Y27499*
X46018*
Y28161*
X46038Y28169*
X46237Y28321*
X46389Y2852*
X46485Y28751*
X46517Y28999*
X46485Y29247*
X46389Y29478*
X46285Y29613*
Y32759*
X46409Y3292*
X46505Y33151*
X46537Y33399*
X46505Y33647*
X46409Y33878*
X46257Y34077*
X46058Y34229*
X45827Y34325*
X45579Y34357*
X45331Y34325*
X451Y34229*
X44901Y34077*
X44749Y33878*
X44653Y33647*
X44621Y33399*
X44653Y33151*
X44749Y3292*
X44873Y32759*
Y31525*
X40471*
X39674Y32322*
X39727Y32449*
X41449*
Y34349*
X40958*
Y35309*
X44839Y3919*
X46617*
X46619Y39185*
X46771Y38986*
X4697Y38834*
X47201Y38738*
X47449Y38706*
X47697Y38738*
X47928Y38834*
X48127Y38986*
X48279Y39185*
X48375Y39416*
X48407Y39664*
X48375Y39912*
X48279Y40143*
X48127Y40342*
X47928Y40494*
X47697Y4059*
X47449Y40622*
X47201Y4059*
X4697Y40494*
X46771Y40342*
X46619Y40143*
X46605Y40108*
X44649*
X44473Y40073*
X44325Y39973*
X42263Y37911*
X42169Y37998*
X42393Y3826*
X42636Y38656*
X42813Y39085*
X42922Y39536*
X42958Y39999*
X42922Y40462*
X42813Y40913*
X42636Y41342*
X42393Y41738*
X42091Y42091*
X41738Y42393*
X41342Y42636*
X40913Y42813*
X40462Y42922*
X39999Y42958*
G37*
G36*
X25553Y39103D02*
X24954D01*
X25195Y38888*
X25255Y38857*
X25296Y38846*
X24969Y38676*
X25296Y38846*
X25303Y38808*
X25324Y38759*
X2536Y387*
X25376Y38676*
X25553*
Y39103*
G37*
G36*
X32917Y39373D02*
X32743Y3935D01*
X32462Y39234*
X32221Y39049*
X32036Y38808*
X3192Y38527*
X31897Y38353*
X32917*
Y39373*
G37*
G36*
X24479Y38422D02*
D01*
X24152Y38252*
X24145Y3829*
X24124Y38339*
X24088Y38398*
X24072Y38422*
X23895*
Y37995*
X24494*
X24253Y3821*
X24193Y38241*
X24152Y38252*
X24479Y38422*
G37*
G36*
X32917Y38099D02*
X31897D01*
X3192Y37925*
X32036Y37644*
X32221Y37403*
X32462Y37218*
X32743Y37102*
X32917Y37079*
Y38099*
G37*
G36*
X23249D02*
X21699D01*
Y37099*
X21909*
X2199Y37001*
X21989Y36999*
X22028Y36804*
X22139Y36639*
X22304Y36528*
X22499Y36489*
X22694Y36528*
X22859Y36639*
X2297Y36804*
X23009Y36999*
X23008Y37001*
X23089Y37099*
X23249*
Y38099*
G37*
G36*
X48399Y38074D02*
X46499D01*
Y36174*
X48399*
Y38074*
G37*
G36*
X30253Y36403D02*
X29826D01*
Y36399*
X29849*
X2985Y3635*
X29858Y36268*
X29865Y36235*
X29875Y36207*
X29886Y36184*
X29899Y36166*
X29915Y36153*
X29932Y36145*
X29952Y36143*
X29826*
Y35701*
X30253*
Y36403*
G37*
G36*
X29572D02*
X29145D01*
Y35701*
X29572*
Y36143*
X29446*
X29466Y36145*
X29483Y36153*
X29499Y36166*
X29512Y36184*
X29523Y36207*
X29533Y36235*
X2954Y36268*
X29545Y36307*
X29548Y3635*
X29549Y36399*
X29572*
Y36403*
G37*
G36*
X48246Y34395D02*
Y34265D01*
X48301Y34297*
X48358Y34335*
X48402Y34368*
X48381Y34377*
X48246Y34395*
G37*
G36*
X48866Y34075D02*
X4886Y34067D01*
X48834Y34009*
X48815Y3395*
X48803Y33889*
X48799Y33827*
X48803Y33764*
X48813Y33699*
X48832Y33632*
X48246Y33937*
Y33526*
X49115*
X49097Y33661*
X48996Y33905*
X48866Y34075*
G37*
G36*
X47992Y34395D02*
X47857Y34377D01*
X47613Y34276*
X47403Y34115*
X47242Y33905*
X47141Y33661*
X47123Y33526*
X47992*
Y34068*
X479Y34116*
X47974Y34141*
X47992Y34148*
Y34395*
G37*
G36*
X43039Y34357D02*
X42791Y34325D01*
X4256Y34229*
X42361Y34077*
X42209Y33878*
X42113Y33647*
X42081Y33399*
X42113Y33151*
X42209Y3292*
X42361Y32721*
X4256Y32569*
X42791Y32473*
X43039Y32441*
X43287Y32473*
X43518Y32569*
X43717Y32721*
X43869Y3292*
X43965Y33151*
X43997Y33399*
X43965Y33647*
X43869Y33878*
X43717Y34077*
X43518Y34229*
X43287Y34325*
X43039Y34357*
G37*
G36*
X49115Y33272D02*
X48246D01*
Y32863*
X48644*
X48592Y32809*
X48545Y32752*
X48504Y32694*
X48468Y32635*
X48438Y32573*
X48413Y3251*
X48394Y32446*
X48389Y32424*
X48625Y32522*
X48835Y32683*
X48996Y32893*
X49097Y33137*
X49115Y33272*
G37*
G36*
X47992D02*
X47123D01*
X47141Y33137*
X47242Y32893*
X47403Y32683*
X47613Y32522*
X47849Y32424*
X47844Y32446*
X47825Y3251*
X478Y32573*
X4777Y32635*
X47734Y32694*
X47693Y32752*
X47646Y32809*
X47594Y32863*
X47992*
Y33272*
G37*
G36*
X36322Y32303D02*
X34845D01*
Y30526*
X36322*
Y32303*
G37*
G36*
X28453Y29922D02*
X28274D01*
X28304Y29879*
X28373Y29793*
X28453Y29702*
Y29922*
G37*
G36*
X27902D02*
X27626D01*
Y29555*
X27902Y29922*
G37*
G36*
X28453Y29429D02*
X2835Y29245D01*
X28453*
Y29429*
G37*
G36*
X27716Y29557D02*
X27665Y29555D01*
X27626Y29539*
Y29245*
X28196*
X28189Y29252*
X27998Y29414*
X27916Y29473*
X27841Y29516*
X27774Y29544*
X27716Y29557*
G37*
G36*
X27372Y29922D02*
X26545D01*
Y29245*
X27372*
Y29922*
G37*
G36*
X49103Y30003D02*
X48389D01*
X48392Y29989*
X48409Y29924*
X48431Y29869*
X48459Y29823*
X48492Y29788*
X48529Y29763*
X48571Y29748*
X48619Y29743*
X48226*
Y29126*
X49103*
Y30003*
G37*
G36*
X47849D02*
X47095D01*
Y29126*
X47972*
Y29743*
X47619*
X47666Y29748*
X47709Y29763*
X47747Y29788*
X47779Y29823*
X47806Y29869*
X47829Y29924*
X47846Y29989*
X47849Y30003*
G37*
G36*
X38053Y30272D02*
X36576D01*
Y28755*
X36949*
X36902Y2875*
X36859Y28735*
X36821Y2871*
X36789Y28675*
X36762Y28629*
X36739Y28574*
X36721Y28509*
X36719Y28495*
X38053*
Y30272*
G37*
G36*
X36322D02*
X34845D01*
Y28495*
X36179*
X36177Y28509*
X36159Y28574*
X36137Y28629*
X36109Y28675*
X36076Y2871*
X36039Y28735*
X35997Y2875*
X35949Y28755*
X36322*
Y30272*
G37*
G36*
X30422Y28853D02*
X29343D01*
X29562Y28661*
X29619Y28627*
X29665Y28606*
X29699Y28599*
X29681Y2858*
X29711Y28568*
X29771Y28554*
X29824*
X2987Y28568*
X29909Y28596*
X29539Y28226*
X30422*
Y28853*
G37*
G36*
X28945Y28476D02*
Y28226D01*
X29143*
X29137Y28236*
X29089Y28303*
X28951Y2847*
X28945Y28476*
G37*
G36*
X43019Y29957D02*
X42771Y29925D01*
X4254Y29829*
X42341Y29677*
X42189Y29478*
X42093Y29247*
X42061Y28999*
X42093Y28751*
X42189Y2852*
X42341Y28321*
X4254Y28169*
X42771Y28073*
X43019Y28041*
X43267Y28073*
X43498Y28169*
X43697Y28321*
X43849Y2852*
X43945Y28751*
X43977Y28999*
X43945Y29247*
X43849Y29478*
X43697Y29677*
X43498Y29829*
X43267Y29925*
X43019Y29957*
G37*
G36*
X40479D02*
X40231Y29925D01*
X4Y29829*
X39801Y29677*
X39649Y29478*
X39553Y29247*
X39521Y28999*
X39553Y28751*
X39649Y2852*
X39801Y28321*
X4Y28169*
X40231Y28073*
X40479Y28041*
X40727Y28073*
X40958Y28169*
X41157Y28321*
X41309Y2852*
X41405Y28751*
X41437Y28999*
X41405Y29247*
X41309Y29478*
X41157Y29677*
X40958Y29829*
X40727Y29925*
X40479Y29957*
G37*
G36*
X49103Y28872D02*
X48226D01*
Y27995*
X49103*
Y28872*
G37*
G36*
X47972Y28249D02*
X47951Y28247D01*
X47909Y28232*
X47872Y28207*
X47839Y28172*
X47811Y28127*
X47789Y28072*
X47771Y28007*
X47769Y27995*
X47972*
Y28249*
G37*
G36*
Y28872D02*
X47095D01*
Y27995*
X4726*
X47265Y28072*
X47275Y28127*
X47286Y28172*
X47299Y28207*
X47315Y28232*
X47332Y28247*
X47352Y28252*
X47972*
Y28872*
G37*
G36*
X30422Y27972D02*
X29285D01*
X29202Y27889*
X2923Y27928*
X29244Y27972*
X28945*
Y27345*
X29929*
X29926Y27359*
X29909Y27424*
X29887Y27479*
X29859Y27525*
X29826Y2756*
X29789Y27585*
X29746Y276*
X29699Y27605*
X30422*
Y27972*
G37*
G36*
X48353Y27553D02*
X47769D01*
X47771Y2754*
X47789Y27474*
X47811Y27419*
X47839Y27374*
X47872Y27339*
X47909Y27313*
X47951Y27298*
X47999Y27293*
X47676Y27294*
Y26726*
X48353*
Y27553*
G37*
G36*
X44553Y25853D02*
X44019D01*
X44021Y25839*
X44039Y25774*
X44061Y25719*
X44089Y25673*
X44122Y25638*
X44159Y25613*
X44201Y25598*
X44249Y25593*
X43876*
Y25026*
X44553*
Y25853*
G37*
G36*
X48039Y24972D02*
X47626D01*
Y24559*
X47715Y24577*
X47898Y247*
X48021Y24883*
X48039Y24972*
G37*
G36*
X47372D02*
X46959D01*
X46977Y24883*
X471Y247*
X47283Y24577*
X47372Y24559*
Y24972*
G37*
G36*
X43479Y25853D02*
X42945D01*
Y25799*
X41499*
Y24789*
X41404Y2477*
X41239Y24659*
X41128Y24494*
X41089Y24299*
X41128Y24104*
X41239Y23939*
X41404Y23828*
X41599Y23789*
X41794Y23828*
X41959Y23939*
X42Y23999*
X42945*
Y23945*
X43622*
Y24899*
Y25593*
X43249*
X43297Y25598*
X43339Y25613*
X43376Y25638*
X43409Y25673*
X43437Y25719*
X43459Y25774*
X43477Y25839*
X43479Y25853*
G37*
G36*
X44839Y24172D02*
X44426D01*
Y23759*
X44515Y23777*
X44698Y239*
X44821Y24083*
X44839Y24172*
G37*
G36*
X44588Y24772D02*
X43876D01*
Y23935*
X439Y239*
X44083Y23777*
X44172Y23759*
Y24299*
X44299*
Y24426*
X44839*
X44821Y24515*
X44698Y24698*
X44588Y24772*
G37*
G36*
X35299Y24209D02*
X35104Y2417D01*
X35086Y24158*
X34499*
X34323Y24123*
X34175Y24023*
X33575Y23424*
X33554Y2342*
X33389Y23309*
X33278Y23144*
X33251Y2301*
X33122*
X33121Y23015*
X32998Y23198*
X32815Y23321*
X32726Y23339*
Y22799*
Y22259*
X32815Y22277*
X32833Y22289*
X32933Y22219*
X33054Y22253*
X33008*
X32969Y2238*
X32998Y224*
X33121Y22583*
X33152Y22738*
X33252Y22751*
X33283Y22747*
X33389Y22589*
X33554Y22478*
X33749Y22439*
X33944Y22478*
X34109Y22589*
X3422Y22754*
X34224Y22775*
X34689Y2324*
X35086*
X35104Y23228*
X35299Y23189*
X35494Y23228*
X35659Y23339*
X3577Y23504*
X35809Y23699*
X3577Y23894*
X35659Y24059*
X35494Y2417*
X35299Y24209*
G37*
G36*
X41302Y22867D02*
X412Y22798D01*
X41077Y22615*
X41059Y22526*
X41302*
Y22867*
G37*
G36*
X31699Y23609D02*
X31504Y2357D01*
X31339Y23459*
X31228Y23294*
X31189Y23099*
X31228Y22904*
X31339Y22739*
X31366Y2272*
Y21478*
X31339Y21459*
X31228Y21294*
X31189Y21099*
X31228Y20904*
X31339Y20739*
X31504Y20628*
X31699Y20589*
X31894Y20628*
X32059Y20739*
X3217Y20904*
X32209Y21099*
X3217Y21294*
X32059Y21459*
X32032Y21478*
Y22421*
X32159Y2246*
X322Y224*
X32383Y22277*
X32472Y22259*
Y22799*
Y23339*
X32383Y23321*
X32305Y23269*
X3217Y23294*
X32059Y23459*
X31894Y2357*
X31699Y23609*
G37*
G36*
X42222Y23653D02*
X41545D01*
Y22969*
X41557Y22971*
X41622Y22989*
X41677Y23012*
X41722Y23039*
X41757Y23072*
X41782Y23109*
X41797Y23152*
X41802Y23199*
Y22199*
X41797Y22246*
X41782Y22289*
X41757Y22326*
X41722Y22359*
X41677Y22387*
X41622Y22409*
X41599Y22415*
Y22272*
X41059*
X41077Y22183*
X412Y22*
X41383Y21877*
X41545Y21845*
Y21745*
X42222*
Y22699*
Y23653*
G37*
G36*
X35326Y22839D02*
Y2235D01*
X35753*
X35689Y22282*
X35639Y22221*
X35603Y22168*
X35582Y22121*
X35575Y22082*
X35582Y2205*
X35603Y22025*
X35639Y22007*
X35689Y21996*
X35753Y21993*
X34339*
X34409Y21996*
X34479Y22007*
X3455Y22025*
X3462Y2205*
X34691Y22082*
X34762Y22121*
X34833Y22168*
X34904Y22221*
X34975Y22282*
X35046Y2235*
X35072*
Y22839*
X34983Y22821*
X348Y22698*
X34677Y22515*
X34634Y22299*
X34596Y22253*
X33503*
X33668Y22115*
X33747Y22061*
X3382Y22019*
X33888Y2199*
X33951Y21972*
X34009Y21967*
X34062Y21974*
X34109Y21993*
X33451Y21626*
X34549*
Y21499*
X34676*
Y20745*
X34888*
X34926Y20618*
X34839Y20559*
X34728Y20394*
X34689Y20199*
Y2006*
X34528Y19899*
X32999*
Y18499*
X36099*
Y18689*
X36449*
X36522Y18704*
X36649Y186*
Y17699*
X3834*
Y17553*
X37626*
Y16799*
Y16305*
X37872*
X37849Y16301*
X37828Y1629*
X37809Y16271*
X37793Y16245*
X3778Y16211*
X37769Y1617*
X3776Y16121*
X37754Y16064*
X37753Y16045*
X3793*
X37979Y15928*
X37509Y15458*
X30299*
X30123Y15423*
X29975Y15323*
X28575Y13923*
X28475Y13775*
X2844Y13599*
Y12089*
X27825Y11474*
X27804Y1147*
X27639Y11359*
X27528Y11194*
X27489Y10999*
X27528Y10804*
X27639Y10639*
X27804Y10528*
X27999Y10489*
X28194Y10528*
X28359Y10639*
X2847Y10804*
X28474Y10825*
X29223Y11575*
X29323Y11723*
X29358Y11899*
Y13409*
X30489Y1454*
X37699*
X37875Y14575*
X38023Y14675*
X39123Y15775*
X39223Y15923*
X39258Y16099*
Y17207*
X39385Y1725*
X39478Y17128*
X39646Y17*
X3984Y1692*
X40049Y16892*
X40258Y1692*
X40452Y17*
X4062Y17128*
X40748Y17296*
X40828Y1749*
X40856Y17699*
X40828Y17908*
X40748Y18102*
X4062Y1827*
X40452Y18398*
X40258Y18478*
X40049Y18506*
X3984Y18478*
X39646Y18398*
X39478Y1827*
X39385Y18148*
X39258Y18191*
Y20986*
X3927Y21004*
X39309Y21199*
X3927Y21394*
X39159Y21559*
X38994Y2167*
X38799Y21709*
X38604Y2167*
X38439Y21559*
X38328Y21394*
X38289Y21199*
X38328Y21004*
X3834Y20986*
Y19099*
X37999*
X3797Y19244*
X37859Y19409*
X37799Y1947*
Y20345*
X37853*
Y21022*
X36899*
Y21149*
X36772*
Y21953*
X36153*
Y22253*
X35802*
X35764Y22299*
X35721Y22515*
X35598Y22698*
X35415Y22821*
X35326Y22839*
G37*
G36*
X32945Y22093D02*
Y21626D01*
X33263*
X33256Y21662*
X33228Y21728*
X33185Y21804*
X33125Y21888*
X33049Y21982*
X32945Y22093*
G37*
G36*
X29739Y21972D02*
X29326D01*
Y21559*
X29415Y21577*
X29598Y217*
X29721Y21883*
X29739Y21972*
G37*
G36*
X43153Y23653D02*
X42476D01*
Y22699*
Y21745*
X43153*
Y21799*
X43489*
X43528Y21604*
X43639Y21439*
X43804Y21328*
X43999Y21289*
X44194Y21328*
X44359Y21439*
X4447Y21604*
X44509Y21799*
X44599*
Y23599*
X43153*
Y23653*
G37*
G36*
X37853Y21953D02*
X37026D01*
Y21276*
X37853*
Y21953*
G37*
G36*
X28929Y21103D02*
X28776D01*
Y20858*
X28789Y20863*
X28826Y20888*
X28859Y20923*
X28887Y20969*
X28909Y21024*
X28926Y21089*
X28929Y21103*
G37*
G36*
X34422Y21372D02*
X32945D01*
Y21029*
X329Y20998*
X32777Y20815*
X32759Y20726*
X33349*
X33122Y20776*
X33137Y20792*
X33151Y2081*
X33163Y2083*
X33173Y2085*
X33182Y20872*
X33189Y20896*
X33195Y2092*
X33199Y20946*
X33201Y20973*
X33202Y21002*
X34409Y21005*
X34339Y21001*
X34268Y20991*
X34198Y20973*
X34127Y20948*
X34057Y20916*
X33986Y20876*
X33915Y2083*
X33844Y20777*
X33785Y20726*
X33919*
X33935Y20745*
X34422*
Y21372*
G37*
G36*
X33839Y20472D02*
X33426D01*
Y20059*
X33515Y20077*
X33698Y202*
X33821Y20383*
X33839Y20472*
G37*
G36*
X33172D02*
X32759D01*
X32777Y20383*
X329Y202*
X33083Y20077*
X33172Y20059*
Y20472*
G37*
G36*
X30253Y21103D02*
X29469D01*
X29471Y21089*
X29489Y21024*
X29512Y20969*
X29539Y20923*
X29572Y20888*
X29609Y20863*
X29652Y20848*
X29699Y20843*
X28776*
Y19326*
X29996*
Y19699*
X30001Y19652*
X30016Y19609*
X30041Y19572*
X30076Y19539*
X30121Y19512*
X30176Y19489*
X30241Y19471*
X30253Y19469*
Y21103*
G37*
G36*
X37372Y17553D02*
X36595D01*
Y16926*
X37372*
Y17553*
G37*
G36*
X42149Y18506D02*
X4194Y18478D01*
X41746Y18398*
X41578Y1827*
X4145Y18102*
X4137Y17908*
X41342Y17699*
X4137Y1749*
X4145Y17296*
X41578Y17128*
X41746Y17*
X4194Y1692*
X42149Y16892*
X42358Y1692*
X42552Y17*
X4272Y17128*
X42848Y17296*
X42928Y1749*
X42956Y17699*
X42928Y17908*
X42848Y18102*
X4272Y1827*
X42552Y18398*
X42358Y18478*
X42149Y18506*
G37*
G36*
X37372Y16672D02*
X36595D01*
Y16045*
X37244*
X37238Y16121*
X37229Y1617*
X37218Y16211*
X37205Y16245*
X37189Y16271*
X3717Y1629*
X37149Y16301*
X37126Y16305*
X37372*
Y16672*
G37*
G36*
X47929Y16019D02*
X47681Y15987D01*
X4745Y15891*
X47251Y15739*
X47099Y1554*
X47003Y15309*
X46971Y15061*
X47003Y14813*
X47099Y14582*
X47251Y14384*
X4745Y14231*
X47681Y14136*
X47929Y14103*
X48177Y14136*
X48408Y14231*
X48606Y14384*
X48759Y14582*
X48854Y14813*
X48887Y15061*
X48854Y15309*
X48759Y1554*
X48606Y15739*
X48408Y15891*
X48177Y15987*
X47929Y16019*
G37*
G36*
X48879Y13471D02*
X46979D01*
Y11571*
X48879*
Y13471*
G37*
G36*
X31899Y14109D02*
X31704Y1407D01*
X31539Y13959*
X31428Y13794*
X31389Y13599*
X31428Y13404*
X31465Y13349*
X31379Y13249*
X31285*
X29999*
Y11676*
Y11549*
Y09849*
X31399*
Y11422*
Y11549*
Y13088*
X3148Y13146*
X31526Y13157*
X31545Y13144*
Y12526*
X32299*
X33053*
Y1314*
X33809*
X35624Y11325*
X35628Y11304*
X35739Y11139*
X35904Y11028*
X36099Y10989*
X36294Y11028*
X36459Y11139*
X3657Y11304*
X36609Y11499*
X3657Y11694*
X36459Y11859*
X36294Y1197*
X36273Y11974*
X34273Y13973*
X34229Y14003*
X34125Y14073*
X33949Y14108*
X3387Y14092*
X33773Y14073*
X33751Y14058*
X32112*
X32094Y1407*
X31899Y14109*
G37*
G36*
X33053Y12272D02*
X32299D01*
X31545*
Y11495*
Y10826*
X32299*
X33053*
Y11495*
Y12272*
G37*
G36*
Y10572D02*
X32426D01*
Y10052*
X32796*
X32754Y10047*
X32706Y10031*
X32651Y10004*
X32589Y09967*
X32521Y09919*
X32426Y09843*
Y09795*
X33053*
Y10572*
G37*
G36*
X32172D02*
X31545D01*
Y09795*
X31634*
X31738Y09915*
X31761Y09949*
X31779Y0998*
X31792Y10007*
X31799Y10031*
X31802Y10052*
X32172*
Y10572*
G37*
G36*
X39999Y12958D02*
X39536Y12922D01*
X39085Y12813*
X38656Y12636*
X3826Y12393*
X37907Y12091*
X37605Y11738*
X37362Y11342*
X37185Y10913*
X37076Y10462*
X3704Y09999*
X37076Y09536*
X37185Y09085*
X37362Y08656*
X37605Y0826*
X37907Y07907*
X3826Y07605*
X38656Y07362*
X39085Y07185*
X39536Y07076*
X39999Y0704*
X40462Y07076*
X40913Y07185*
X41342Y07362*
X41738Y07605*
X42091Y07907*
X42393Y0826*
X42636Y08656*
X42813Y09085*
X42922Y09536*
X42958Y09999*
X42922Y10462*
X42813Y10913*
X42636Y11342*
X42393Y11738*
X42091Y12091*
X41738Y12393*
X41342Y12636*
X40913Y12813*
X40462Y12922*
X39999Y12958*
G37*
G36*
X30327Y07726D02*
X30075Y07693D01*
X29841Y07596*
X29641Y07442*
X29486Y07241*
X29389Y07007*
X29356Y06755*
X29389Y06504*
X29486Y0627*
X29641Y06069*
X29841Y05915*
X30075Y05818*
X30327Y05785*
X30578Y05818*
X30812Y05915*
X31013Y06069*
X31167Y0627*
X31264Y06504*
X31297Y06755*
X31264Y07007*
X31167Y07241*
X31013Y07442*
X30812Y07596*
X30578Y07693*
X30327Y07726*
G37*
G36*
X27787D02*
X27535Y07693D01*
X27301Y07596*
X271Y07442*
X26946Y07241*
X26849Y07007*
X26816Y06755*
X26849Y06504*
X26946Y0627*
X271Y06069*
X27301Y05915*
X27535Y05818*
X27787Y05785*
X28038Y05818*
X28272Y05915*
X28473Y06069*
X28627Y0627*
X28724Y06504*
X28757Y06755*
X28724Y07007*
X28627Y07241*
X28473Y07442*
X28272Y07596*
X28038Y07693*
X27787Y07726*
G37*
G36*
X25247D02*
X24995Y07693D01*
X24761Y07596*
X24561Y07442*
X24406Y07241*
X24309Y07007*
X24276Y06755*
X24309Y06504*
X24406Y0627*
X24561Y06069*
X24761Y05915*
X24995Y05818*
X25247Y05785*
X25498Y05818*
X25732Y05915*
X25933Y06069*
X26087Y0627*
X26184Y06504*
X26217Y06755*
X26184Y07007*
X26087Y07241*
X25933Y07442*
X25732Y07596*
X25498Y07693*
X25247Y07726*
G37*
G36*
X27914Y02683D02*
Y01802D01*
X28157*
X28412Y02052*
X2846Y01994*
X2851Y01942*
X28563Y01896*
X28618Y01856*
X28677Y01822*
X28719Y01802*
X28795*
X28776Y01941*
X28674Y02188*
X28511Y024*
X28299Y02563*
X28052Y02665*
X27914Y02683*
G37*
G36*
X25374D02*
Y01802D01*
X25617*
X25872Y02052*
X2592Y01994*
X2597Y01942*
X26023Y01896*
X26078Y01856*
X26137Y01822*
X26179Y01802*
X26255*
X26236Y01941*
X26134Y02188*
X25971Y024*
X25759Y02563*
X25512Y02665*
X25374Y02683*
G37*
G36*
X22834D02*
Y01802D01*
X23299*
X23332Y02052*
X2338Y01994*
X2343Y01942*
X23483Y01896*
X23538Y01856*
X23597Y01822*
X23639Y01802*
X23715*
X23696Y01941*
X23594Y02188*
X23431Y024*
X23219Y02563*
X22972Y02665*
X22834Y02683*
G37*
G36*
X30454D02*
Y01802D01*
X31335*
X31316Y01941*
X31214Y02188*
X31051Y024*
X30839Y02563*
X30592Y02665*
X30454Y02683*
G37*
G36*
X2766D02*
X27521Y02665D01*
X27274Y02563*
X27062Y024*
X26899Y02188*
X26797Y01941*
X26779Y01802*
X26887*
X26929Y01822*
X26988Y01856*
X27043Y01896*
X27096Y01942*
X27146Y01994*
X27194Y02052*
X27449Y01802*
X2766*
Y02683*
G37*
G36*
X2512D02*
X24981Y02665D01*
X24734Y02563*
X24522Y024*
X24359Y02188*
X24257Y01941*
X24239Y01802*
X24347*
X24389Y01822*
X24448Y01856*
X24503Y01896*
X24556Y01942*
X24606Y01994*
X24654Y02052*
X24909Y01802*
X2512*
Y02683*
G37*
G36*
X302D02*
X30061Y02665D01*
X29814Y02563*
X29602Y024*
X29439Y02188*
X29337Y01941*
X29319Y01802*
X29427*
X29469Y01822*
X29528Y01856*
X29583Y01896*
X29636Y01942*
X29686Y01994*
X29734Y02052*
X29767Y01802*
X302*
Y02683*
G37*
G36*
X2258D02*
X22441Y02665D01*
X22194Y02563*
X21982Y024*
X21819Y02188*
X21717Y01941*
X21699Y01802*
X2258*
Y02683*
G37*
G36*
X302Y01548D02*
X298D01*
X29874Y00995*
X29809Y01042*
X29745Y01085*
X29679Y01122*
X29614Y01155*
X29547Y01182*
X29481Y01205*
X29415Y01222*
X29439Y01163*
X29602Y00951*
X29814Y00788*
X30061Y00686*
X302Y00667*
Y01548*
G37*
G36*
X2766Y01314D02*
X27334Y00995D01*
X27269Y01042*
X27205Y01085*
X27139Y01122*
X27074Y01155*
X27007Y01182*
X26941Y01205*
X26875Y01222*
X26899Y01163*
X27062Y00951*
X27274Y00788*
X27521Y00686*
X2766Y00667*
Y01314*
G37*
G36*
X2512D02*
X24794Y00995D01*
X24729Y01042*
X24665Y01085*
X24599Y01122*
X24534Y01155*
X24467Y01182*
X24401Y01205*
X24335Y01222*
X24359Y01163*
X24522Y00951*
X24734Y00788*
X24981Y00686*
X2512Y00667*
Y01314*
G37*
G36*
X31335Y01548D02*
X30454D01*
Y00667*
X30592Y00686*
X30839Y00788*
X31051Y00951*
X31214Y01163*
X31316Y0141*
X31335Y01548*
G37*
G36*
X27914Y01347D02*
Y00667D01*
X28052Y00686*
X28299Y00788*
X28511Y00951*
X28674Y01163*
X28695Y01213*
X28665Y01205*
X28599Y01182*
X28532Y01155*
X28467Y01122*
X28401Y01085*
X28337Y01042*
X28272Y00995*
X27914Y01347*
G37*
G36*
X25374D02*
Y00667D01*
X25512Y00686*
X25759Y00788*
X25971Y00951*
X26134Y01163*
X26155Y01213*
X26125Y01205*
X26059Y01182*
X25992Y01155*
X25927Y01122*
X25861Y01085*
X25797Y01042*
X25732Y00995*
X25374Y01347*
G37*
G36*
X23266Y01548D02*
X22834D01*
Y00667*
X22972Y00686*
X23219Y00788*
X23431Y00951*
X23594Y01163*
X23615Y01213*
X23585Y01205*
X23519Y01182*
X23452Y01155*
X23387Y01122*
X23321Y01085*
X23257Y01042*
X23192Y00995*
X23266Y01548*
G37*
G36*
X2258D02*
X21699D01*
X21717Y0141*
X21819Y01163*
X21982Y00951*
X22194Y00788*
X22441Y00686*
X2258Y00667*
Y01548*
G37*
G36*
X10022Y48772D02*
X09602D01*
Y48399*
X09597Y48446*
X09582Y48489*
X09557Y48527*
X09522Y48559*
X09477Y48587*
X09422Y48609*
X09357Y48626*
X09345Y48629*
Y48049*
X07849*
Y46149*
X09749*
Y47945*
X10022*
Y48772*
G37*
G36*
X02321Y49438D02*
X00421D01*
Y47538*
X02321*
Y49438*
G37*
G36*
X03911Y49446D02*
X03663Y49413D01*
X03431Y49317*
X03233Y49165*
X03081Y48967*
X02985Y48736*
X02952Y48488*
X02985Y4824*
X03081Y48008*
X03233Y4781*
X03431Y47658*
X03663Y47562*
X03911Y47529*
X04159Y47562*
X0439Y47658*
X04588Y4781*
X0474Y48008*
X04836Y4824*
X04869Y48488*
X04836Y48736*
X0474Y48967*
X04588Y49165*
X0439Y49317*
X04159Y49413*
X03911Y49446*
G37*
G36*
X01498Y46944D02*
Y46678D01*
X01555Y4668*
X01619Y46689*
X01682Y46704*
X01743Y46726*
X01801Y46754*
X01858Y46789*
X01891Y46814*
X01877Y46825*
X01633Y46926*
X01498Y46944*
G37*
G36*
X02233Y46472D02*
X02246Y46453D01*
X022Y46404*
X02158Y46351*
X02118Y46296*
X02082Y46238*
X0205Y46176*
X0202Y46112*
X02006Y46075*
X02367*
X02349Y4621*
X02248Y46454*
X02233Y46472*
G37*
G36*
X01498Y46473D02*
Y46075D01*
X01768*
X01498Y46473*
G37*
G36*
X03911Y46906D02*
X03663Y46873D01*
X03431Y46777*
X03233Y46625*
X03081Y46427*
X02985Y46196*
X02952Y45948*
X02985Y457*
X03081Y45469*
X03233Y4527*
X03431Y45118*
X03663Y45022*
X03911Y44989*
X04159Y45022*
X0439Y45118*
X04588Y4527*
X0474Y45469*
X04836Y457*
X04869Y45948*
X04836Y46196*
X0474Y46427*
X04588Y46625*
X0439Y46777*
X04159Y46873*
X03911Y46906*
G37*
G36*
X02367Y45821D02*
X01498D01*
Y45423*
X01724*
X01672Y45369*
X01625Y45312*
X01584Y45254*
X01548Y45195*
X01518Y45133*
X01498Y45082*
Y44952*
X01633Y44969*
X01877Y45071*
X02087Y45232*
X02248Y45441*
X02349Y45686*
X02367Y45821*
G37*
G36*
X08799Y45517D02*
X08551Y45485D01*
X0832Y45389*
X08121Y45237*
X07969Y45038*
X07873Y44807*
X07841Y44559*
X07873Y44311*
X07969Y4408*
X08121Y43881*
X0832Y43729*
X08551Y43633*
X08799Y43601*
X09047Y43633*
X09278Y43729*
X09477Y43881*
X09629Y4408*
X09725Y44311*
X09757Y44559*
X09725Y44807*
X09629Y45038*
X09477Y45237*
X09278Y45389*
X09047Y45485*
X08799Y45517*
G37*
G36*
X01498Y44404D02*
Y44296D01*
X01518Y44245*
X01548Y44183*
X01584Y44124*
X01625Y44066*
X01672Y44009*
X01724Y43955*
X01498Y43724*
Y43535*
X02367*
X02349Y4367*
X02248Y43914*
X02087Y44124*
X01877Y44285*
X01633Y44386*
X01498Y44404*
G37*
G36*
X01244Y43465D02*
X01199Y43419D01*
X01244Y43373*
Y43408*
Y43465*
G37*
G36*
X03911Y44366D02*
X03663Y44333D01*
X03431Y44237*
X03233Y44085*
X03081Y43887*
X02985Y43656*
X02952Y43408*
X02985Y4316*
X03081Y42929*
X03233Y4273*
X03431Y42578*
X03663Y42482*
X03911Y42449*
X04159Y42482*
X0439Y42578*
X04588Y4273*
X0474Y42929*
X04836Y4316*
X04869Y43408*
X04836Y43656*
X0474Y43887*
X04588Y44085*
X0439Y44237*
X04159Y44333*
X03911Y44366*
G37*
G36*
X02367Y43281D02*
X01498D01*
Y43114*
X01724Y42883*
X01672Y42829*
X01625Y42772*
X01584Y42714*
X01548Y42655*
X01518Y42593*
X01498Y42542*
Y42412*
X01633Y42429*
X01877Y42531*
X02087Y42692*
X02248Y42901*
X02349Y43145*
X02367Y43281*
G37*
G36*
X01498Y41864D02*
Y41756D01*
X01518Y41705*
X01548Y41643*
X01584Y41584*
X01625Y41526*
X01672Y41469*
X01724Y41415*
X01498Y41184*
Y40995*
X02367*
X02349Y4113*
X02248Y41374*
X02087Y41584*
X01877Y41745*
X01633Y41846*
X01498Y41864*
G37*
G36*
X01244Y40925D02*
X01199Y40879D01*
X01244Y40833*
Y40868*
Y40925*
G37*
G36*
X02367Y40741D02*
X01498D01*
Y40574*
X01724Y40343*
X01672Y40289*
X01625Y40232*
X01584Y40174*
X01548Y40115*
X01518Y40053*
X01498Y40002*
Y39872*
X01633Y39889*
X01877Y39991*
X02087Y40152*
X02248Y40361*
X02349Y40605*
X02367Y40741*
G37*
G36*
X01498Y39324D02*
Y39216D01*
X01518Y39165*
X01548Y39103*
X01584Y39044*
X01625Y38986*
X01672Y38929*
X01724Y38875*
X01498Y38644*
Y38455*
X02367*
X02349Y3859*
X02248Y38834*
X02087Y39044*
X01877Y39205*
X01633Y39306*
X01498Y39324*
G37*
G36*
X01244Y38385D02*
X01199Y38339D01*
X01244Y38293*
Y38328*
Y38385*
G37*
G36*
X02367Y38201D02*
X01498D01*
Y38034*
X01724Y37803*
X01672Y37749*
X01625Y37692*
X01584Y37634*
X01548Y37575*
X01518Y37513*
X01498Y37462*
Y37332*
X01633Y37349*
X01877Y37451*
X02087Y37612*
X02248Y37821*
X02349Y38066*
X02367Y38201*
G37*
G36*
X01548Y36262D02*
Y36068D01*
X01562Y36046*
X01603Y35992*
X0165Y35942*
X01704Y35896*
X01763Y35852*
X01548Y35633*
Y35381*
X02429*
X02411Y35519*
X02309Y35767*
X02146Y35979*
X01934Y36142*
X01687Y36244*
X01548Y36262*
G37*
G36*
X00932Y36151D02*
X00909Y36142D01*
X00697Y35979*
X00534Y35767*
X00432Y35519*
X00413Y35381*
X00984*
X00715Y35656*
X00759Y35723*
X00834Y35857*
X00865Y35925*
X0089Y35992*
X00912Y3606*
X00928Y36127*
X00932Y36151*
G37*
G36*
X01294Y35127D02*
X01233D01*
X01294Y35064*
Y35127*
G37*
G36*
X01053D02*
X00413D01*
X00432Y34989*
X00534Y34742*
X00697Y3453*
X00909Y34367*
X00915Y34364*
X00912Y34378*
X0089Y34446*
X00865Y34513*
X00834Y34581*
X00759Y34715*
X00715Y34782*
X01053Y35127*
G37*
G36*
X03961Y36224D02*
X0371Y36191D01*
X03476Y36095*
X03275Y3594*
X03121Y35739*
X03024Y35505*
X02991Y35254*
X03024Y35003*
X03121Y34769*
X03275Y34568*
X03476Y34414*
X0371Y34317*
X03961Y34284*
X04213Y34317*
X04447Y34414*
X04647Y34568*
X04802Y34769*
X04899Y35003*
X04932Y35254*
X04899Y35505*
X04802Y35739*
X04647Y3594*
X04447Y36095*
X04213Y36191*
X03961Y36224*
G37*
G36*
X02429Y35127D02*
X01548D01*
Y34805*
X01763Y34586*
X01704Y34542*
X0165Y34496*
X01603Y34446*
X01562Y34392*
X01548Y3437*
Y34246*
X01687Y34264*
X01934Y34367*
X02146Y3453*
X02309Y34742*
X02411Y34989*
X02429Y35127*
G37*
G36*
X01548Y33722D02*
Y33528D01*
X01562Y33506*
X01603Y33452*
X0165Y33402*
X01704Y33356*
X01763Y33312*
X01548Y33093*
Y32841*
X02429*
X02411Y32979*
X02309Y33227*
X02146Y33439*
X01934Y33602*
X01687Y33704*
X01548Y33722*
G37*
G36*
X00932Y33611D02*
X00909Y33602D01*
X00697Y33439*
X00534Y33227*
X00432Y32979*
X00413Y32841*
X00984*
X00715Y33116*
X00759Y33183*
X00834Y33317*
X00865Y33385*
X0089Y33452*
X00912Y3352*
X00928Y33587*
X00932Y33611*
G37*
G36*
X01294Y32587D02*
X01233D01*
X01294Y32525*
Y32587*
G37*
G36*
X01053D02*
X00413D01*
X00432Y32449*
X00534Y32202*
X00697Y3199*
X00909Y31827*
X00915Y31824*
X00912Y31838*
X0089Y31906*
X00865Y31973*
X00834Y32041*
X00759Y32175*
X00715Y32242*
X01053Y32587*
G37*
G36*
X03961Y33685D02*
X0371Y33651D01*
X03476Y33555*
X03275Y334*
X03121Y33199*
X03024Y32965*
X02991Y32714*
X03024Y32463*
X03121Y32229*
X03275Y32028*
X03476Y31874*
X0371Y31777*
X03961Y31744*
X04213Y31777*
X04447Y31874*
X04647Y32028*
X04802Y32229*
X04899Y32463*
X04932Y32714*
X04899Y32965*
X04802Y33199*
X04647Y334*
X04447Y33555*
X04213Y33651*
X03961Y33685*
G37*
G36*
X02429Y32587D02*
X01548D01*
Y32265*
X01763Y32046*
X01704Y32002*
X0165Y31956*
X01603Y31906*
X01562Y31852*
X01548Y3183*
Y31706*
X01687Y31724*
X01934Y31827*
X02146Y3199*
X02309Y32202*
X02411Y32449*
X02429Y32587*
G37*
G36*
X01548Y31182D02*
Y30301D01*
X02429*
X02411Y30439*
X02309Y30687*
X02146Y30899*
X01934Y31062*
X01687Y31164*
X01548Y31182*
G37*
G36*
X01294D02*
X01156Y31164D01*
X00909Y31062*
X00697Y30899*
X00534Y30687*
X00432Y30439*
X00413Y30301*
X01294*
Y31182*
G37*
G36*
X03961Y31145D02*
X0371Y31111D01*
X03476Y31015*
X03275Y3086*
X03121Y30659*
X03024Y30425*
X02991Y30174*
X03024Y29923*
X03121Y29689*
X03275Y29488*
X03476Y29334*
X0371Y29237*
X03961Y29204*
X04213Y29237*
X04447Y29334*
X04647Y29488*
X04802Y29689*
X04899Y29923*
X04932Y30174*
X04899Y30425*
X04802Y30659*
X04647Y3086*
X04447Y31015*
X04213Y31111*
X03961Y31145*
G37*
G36*
X02429Y30047D02*
X01548D01*
Y29166*
X01687Y29184*
X01934Y29287*
X02146Y2945*
X02309Y29662*
X02411Y29909*
X02429Y30047*
G37*
G36*
X01294D02*
X00413D01*
X00432Y29909*
X00534Y29662*
X00697Y2945*
X00909Y29287*
X01156Y29184*
X01294Y29166*
Y30047*
G37*
G36*
X01548Y28642D02*
Y27761D01*
X02429*
X02411Y27899*
X02309Y28147*
X02146Y28359*
X01934Y28522*
X01687Y28624*
X01548Y28642*
G37*
G36*
X01294D02*
X01156Y28624D01*
X00909Y28522*
X00697Y28359*
X00534Y28147*
X00432Y27899*
X00413Y27761*
X01294*
Y28642*
G37*
G36*
X03961Y28604D02*
X0371Y28571D01*
X03476Y28475*
X03275Y2832*
X03121Y28119*
X03024Y27885*
X02991Y27634*
X03024Y27383*
X03121Y27149*
X03275Y26948*
X03476Y26794*
X0371Y26697*
X03961Y26664*
X04213Y26697*
X04447Y26794*
X04647Y26948*
X04802Y27149*
X04899Y27383*
X04932Y27634*
X04899Y27885*
X04802Y28119*
X04647Y2832*
X04447Y28475*
X04213Y28571*
X03961Y28604*
G37*
G36*
X02429Y27507D02*
X01548D01*
Y26626*
X01687Y26644*
X01934Y26747*
X02146Y2691*
X02309Y27122*
X02411Y27369*
X02429Y27507*
G37*
G36*
X01294D02*
X00413D01*
X00432Y27369*
X00534Y27122*
X00697Y2691*
X00909Y26747*
X01156Y26644*
X01294Y26626*
Y27507*
G37*
G36*
X09753Y26072D02*
X09126D01*
Y25295*
X09753*
Y26072*
G37*
G36*
X01548Y26102D02*
Y25908D01*
X01562Y25886*
X01603Y25832*
X0165Y25782*
X01704Y25736*
X01763Y25692*
X01548Y25473*
Y25221*
X02429*
X02411Y25359*
X02309Y25607*
X02146Y25819*
X01934Y25982*
X01687Y26084*
X01548Y26102*
G37*
G36*
X00932Y25991D02*
X00909Y25982D01*
X00697Y25819*
X00534Y25607*
X00432Y25359*
X00413Y25221*
X00984*
X00715Y25496*
X00759Y25563*
X00834Y25697*
X00865Y25765*
X0089Y25832*
X00912Y259*
X00928Y25967*
X00932Y25991*
G37*
G36*
X01294Y24967D02*
X01233D01*
X01294Y24905*
Y24967*
G37*
G36*
X01053D02*
X00413D01*
X00432Y24829*
X00534Y24582*
X00697Y2437*
X00909Y24207*
X00915Y24204*
X00912Y24218*
X0089Y24286*
X00865Y24353*
X00834Y24421*
X00759Y24555*
X00715Y24622*
X01053Y24967*
G37*
G36*
X03961Y26065D02*
X0371Y26031D01*
X03476Y25935*
X03275Y2578*
X03121Y25579*
X03024Y25345*
X02991Y25094*
X03024Y24843*
X03121Y24609*
X03275Y24408*
X03476Y24254*
X0371Y24157*
X03961Y24124*
X04213Y24157*
X04447Y24254*
X04647Y24408*
X04802Y24609*
X04899Y24843*
X04932Y25094*
X04899Y25345*
X04802Y25579*
X04647Y2578*
X04447Y25935*
X04213Y26031*
X03961Y26065*
G37*
G36*
X02429Y24967D02*
X01548D01*
Y24645*
X01763Y24426*
X01704Y24382*
X0165Y24336*
X01603Y24286*
X01562Y24232*
X01548Y2421*
Y24086*
X01687Y24104*
X01934Y24207*
X02146Y2437*
X02309Y24582*
X02411Y24829*
X02429Y24967*
G37*
G36*
X01548Y23562D02*
Y23368D01*
X01562Y23346*
X01603Y23292*
X0165Y23242*
X01704Y23196*
X01763Y23152*
X01548Y22933*
Y22681*
X02429*
X02411Y22819*
X02309Y23067*
X02146Y23279*
X01934Y23442*
X01687Y23544*
X01548Y23562*
G37*
G36*
X00932Y23451D02*
X00909Y23442D01*
X00697Y23279*
X00534Y23067*
X00432Y22819*
X00413Y22681*
X00984*
X00715Y22956*
X00759Y23023*
X00834Y23157*
X00865Y23225*
X0089Y23292*
X00912Y2336*
X00928Y23427*
X00932Y23451*
G37*
G36*
X16039Y22872D02*
X15626D01*
Y22459*
X15715Y22477*
X15898Y226*
X16021Y22783*
X16039Y22872*
G37*
G36*
X15372D02*
X14959D01*
X14977Y22783*
X151Y226*
X15283Y22477*
X15372Y22459*
Y22872*
G37*
G36*
X01294Y22427D02*
X01233D01*
X01294Y22364*
Y22427*
G37*
G36*
X01053D02*
X00413D01*
X00432Y22289*
X00534Y22042*
X00697Y2183*
X00909Y21667*
X00915Y21664*
X00912Y21678*
X0089Y21746*
X00865Y21813*
X00834Y21881*
X00759Y22015*
X00715Y22082*
X01053Y22427*
G37*
G36*
X03961Y23524D02*
X0371Y23491D01*
X03476Y23395*
X03275Y2324*
X03121Y23039*
X03024Y22805*
X02991Y22554*
X03024Y22303*
X03121Y22069*
X03275Y21868*
X03476Y21714*
X0371Y21617*
X03961Y21584*
X04213Y21617*
X04447Y21714*
X04647Y21868*
X04802Y22069*
X04899Y22303*
X04932Y22554*
X04899Y22805*
X04802Y23039*
X04647Y2324*
X04447Y23395*
X04213Y23491*
X03961Y23524*
G37*
G36*
X02429Y22427D02*
X01548D01*
Y22105*
X01763Y21886*
X01704Y21842*
X0165Y21796*
X01603Y21746*
X01562Y21692*
X01548Y2167*
Y21546*
X01687Y21564*
X01934Y21667*
X02146Y2183*
X02309Y22042*
X02411Y22289*
X02429Y22427*
G37*
G36*
X10926Y21039D02*
Y20626D01*
X11339*
X11321Y20715*
X11198Y20898*
X11015Y21021*
X10926Y21039*
G37*
G36*
X01548Y21022D02*
Y20828D01*
X01562Y20806*
X01603Y20752*
X0165Y20702*
X01704Y20656*
X01763Y20612*
X01548Y20393*
Y20141*
X02429*
X02411Y20279*
X02309Y20527*
X02146Y20739*
X01934Y20902*
X01687Y21004*
X01548Y21022*
G37*
G36*
X00932Y20911D02*
X00909Y20902D01*
X00697Y20739*
X00534Y20527*
X00432Y20279*
X00413Y20141*
X00984*
X00715Y20416*
X00759Y20483*
X00834Y20617*
X00865Y20685*
X0089Y20752*
X00912Y2082*
X00928Y20887*
X00932Y20911*
G37*
G36*
X11339Y20372D02*
X10926D01*
Y19959*
X11015Y19977*
X11198Y201*
X11321Y20283*
X11339Y20372*
G37*
G36*
X01294Y19887D02*
X01233D01*
X01294Y19825*
Y19887*
G37*
G36*
X17026Y19639D02*
Y19226D01*
X17439*
X17421Y19315*
X17298Y19498*
X17115Y19621*
X17026Y19639*
G37*
G36*
X16772D02*
X16683Y19621D01*
X165Y19498*
X16377Y19315*
X16359Y19226*
X16772*
Y19639*
G37*
G36*
X01053Y19887D02*
X00413D01*
X00432Y19749*
X00534Y19502*
X00697Y1929*
X00909Y19127*
X00915Y19124*
X00912Y19138*
X0089Y19206*
X00865Y19273*
X00834Y19341*
X00759Y19475*
X00715Y19542*
X01053Y19887*
G37*
G36*
X03961Y20985D02*
X0371Y20951D01*
X03476Y20855*
X03275Y207*
X03121Y20499*
X03024Y20265*
X02991Y20014*
X03024Y19763*
X03121Y19529*
X03275Y19328*
X03476Y19174*
X0371Y19077*
X03961Y19044*
X04213Y19077*
X04447Y19174*
X04647Y19328*
X04802Y19529*
X04899Y19763*
X04932Y20014*
X04899Y20265*
X04802Y20499*
X04647Y207*
X04447Y20855*
X04213Y20951*
X03961Y20985*
G37*
G36*
X02429Y19887D02*
X01548D01*
Y19565*
X01763Y19346*
X01704Y19302*
X0165Y19256*
X01603Y19206*
X01562Y19152*
X01548Y1913*
Y19006*
X01687Y19024*
X01934Y19127*
X02146Y1929*
X02309Y19502*
X02411Y19749*
X02429Y19887*
G37*
G36*
X17439Y18972D02*
X17026D01*
Y18559*
X17115Y18577*
X17298Y187*
X17421Y18883*
X17439Y18972*
G37*
G36*
X16772D02*
X16359D01*
X16377Y18883*
X165Y187*
X16683Y18577*
X16772Y18559*
Y18972*
G37*
G36*
X01548Y18482D02*
Y18288D01*
X01562Y18266*
X01603Y18212*
X0165Y18162*
X01704Y18116*
X01763Y18072*
X01548Y18032*
Y17601*
X02429*
X02411Y17739*
X02309Y17987*
X02146Y18199*
X01934Y18362*
X01687Y18464*
X01548Y18482*
G37*
G36*
X00932Y18371D02*
X00909Y18362D01*
X00697Y18199*
X00534Y17987*
X00432Y17739*
X00413Y17601*
X01294*
Y17984*
X00715Y17876*
X00759Y17943*
X00834Y18077*
X00865Y18145*
X0089Y18212*
X00912Y1828*
X00928Y18347*
X00932Y18371*
G37*
G36*
X01294Y17347D02*
X00413D01*
X00432Y17209*
X00534Y16962*
X00697Y1675*
X00909Y16587*
X00951Y16569*
X00949Y16577*
X00926Y16643*
X00899Y1671*
X00866Y16775*
X00829Y16841*
X00786Y16905*
X00739Y1697*
X01294Y16896*
Y17347*
G37*
G36*
X03961Y18444D02*
X0371Y18411D01*
X03476Y18315*
X03275Y1816*
X03121Y17959*
X03024Y17725*
X02991Y17474*
X03024Y17223*
X03121Y16989*
X03275Y16788*
X03476Y16634*
X0371Y16537*
X03961Y16504*
X04213Y16537*
X04447Y16634*
X04647Y16788*
X04802Y16989*
X04899Y17223*
X04932Y17474*
X04899Y17725*
X04802Y17959*
X04647Y1816*
X04447Y18315*
X04213Y18411*
X03961Y18444*
G37*
G36*
X02429Y17347D02*
X01548D01*
Y16862*
X01796Y1683*
X01738Y16782*
X01686Y16732*
X0164Y16679*
X016Y16624*
X01566Y16565*
X01548Y16527*
Y16466*
X01687Y16484*
X01934Y16587*
X02146Y1675*
X02309Y16962*
X02411Y17209*
X02429Y17347*
G37*
G36*
X01972Y07703D02*
X01095D01*
Y0706*
X01121Y07035*
X01196Y06975*
X01274Y06922*
X01355Y06876*
X01439Y06837*
X0147Y06826*
X01972*
Y07703*
G37*
G36*
Y06572D02*
X01475D01*
X01299Y06499*
X01122Y06322*
X01095Y06349*
Y05695*
X01972*
Y06572*
G37*
G36*
X03103D02*
X02226D01*
Y05695*
X03103*
Y06572*
G37*
G36*
X04571Y02234D02*
X04414D01*
X04433Y02086*
X04515Y01888*
X04534Y01945*
X04551Y02019*
X04563Y02097*
X0457Y02179*
X04571Y02234*
G37*
G36*
X05333D02*
X04602D01*
X05333Y01503*
Y02234*
G37*
G36*
X0292Y0337D02*
X02659Y03335D01*
X02416Y03235*
X02207Y03074*
X02046Y02866*
X01946Y02622*
X01911Y02361*
X01946Y021*
X02046Y01857*
X02207Y01648*
X02416Y01488*
X02659Y01387*
X0292Y01353*
X03181Y01387*
X03424Y01488*
X03633Y01648*
X03794Y01857*
X03894Y021*
X03929Y02361*
X03894Y02622*
X03794Y02866*
X03633Y03074*
X03424Y03235*
X03181Y03335*
X0292Y0337*
G37*
G36*
X06506Y02234D02*
X05587D01*
Y01315*
X05735Y01334*
X05992Y01441*
X06212Y01609*
X06381Y0183*
X06487Y02086*
X06506Y02234*
G37*
G36*
X05333Y01471D02*
X05279Y0147D01*
X05197Y01463*
X05119Y01451*
X05045Y01434*
X04989Y01416*
X05185Y01334*
X05333Y01315*
Y01471*
G37*
G36*
X16659Y02757D02*
X16411Y02725D01*
X1618Y02629*
X15981Y02477*
X15829Y02278*
X15733Y02047*
X15701Y01799*
X15733Y01551*
X15829Y0132*
X15981Y01121*
X1618Y00969*
X16411Y00873*
X16659Y00841*
X16907Y00873*
X17138Y00969*
X17337Y01121*
X17489Y0132*
X17585Y01551*
X17617Y01799*
X17585Y02047*
X17489Y02278*
X17337Y02477*
X17138Y02629*
X16907Y02725*
X16659Y02757*
G37*
G36*
X17803Y09853D02*
X16826D01*
Y09176*
X17803*
Y09853*
G37*
G36*
Y08922D02*
X16826D01*
Y08245*
X17803*
Y08922*
G37*
G36*
X06376Y06545D02*
X05499D01*
Y05668*
X06376*
Y06545*
G37*
%LNpcb_final_2-3*%
%LPD*%
G54D13*
X36899Y21149D03*
Y19649D03*
X27499Y30049D03*
Y31549D03*
X14699Y07449D03*
Y08949D03*
G54D14*
X43849Y22699D03*
X42349D03*
X47549Y26599D03*
X46049D03*
X43749Y24899D03*
X42249D03*
X40149Y35499D03*
X38649D03*
X11649Y48899D03*
X10149D03*
X27449Y27599D03*
X25949D03*
X11649Y06299D03*
X13149D03*
X14549Y04899D03*
X16049D03*
G54D15*
X16699Y06349D03*
Y09049D03*
G54D17*
X30699Y10699D03*
X32299D03*
X30699Y12399D03*
X32299D03*
X10599Y26199D03*
X08999D03*
X11699Y27899D03*
X10099D03*
G54D19*
X24724Y38549D03*
Y36649D03*
X22474Y37599D03*
X20624Y40149D03*
Y38249D03*
X18374Y39199D03*
X27974Y24249D03*
Y26149D03*
X30224Y25199D03*
G54D20*
X14799Y47999D03*
Y46399D03*
X43599Y45699D03*
Y44099D03*
X45699Y45599D03*
Y43999D03*
X37499Y16799D03*
Y18399D03*
G54D27*
X19399Y47299D02*
X19499Y47199D01*
Y42499D02*
Y47199D01*
Y42499D02*
X19899Y42099D01*
X24499Y35399D02*
Y36599D01*
Y33599D02*
Y35399D01*
X21252Y34746D02*
X22067D01*
X17232Y38766D02*
X21252Y34746D01*
X17232Y38766D02*
Y38781D01*
X17182Y38831D02*
X17232Y38781D01*
X16167Y38831D02*
X17182D01*
X21478Y3522D02*
X22263D01*
X20599Y36099D02*
X21478Y3522D01*
X20599Y36099D02*
Y38249D01*
X22067Y34746D02*
X24647Y32166D01*
X22263Y3522D02*
X22984Y34499D01*
X23299*
X16099Y38899D02*
X16167Y38831D01*
X16899Y38184D02*
X19331Y35752D01*
X19346*
X24647Y22921D02*
Y32166D01*
X21669Y34099D02*
X24173Y31595D01*
X21646Y33452D02*
X23699Y31399D01*
X21531Y33452D02*
X21646D01*
X21152Y33831D02*
X21531Y33452D01*
X21152Y33831D02*
Y33946D01*
X19346Y35752D02*
X21152Y33946D01*
X21669Y34099D02*
X21799D01*
X25949Y24749D02*
Y28199D01*
Y24749D02*
X27399Y23299D01*
X26799Y33099D02*
Y34299D01*
X27799Y35299*
X29699D02*
X29999Y34999D01*
X29699Y35299D02*
Y35574D01*
X33029Y43499D02*
Y46039D01*
X31782Y42252D02*
X33029Y43499D01*
X19899Y42099D02*
X26099D01*
X27799Y35299D02*
Y35574D01*
X24647Y22921D02*
X25299Y22269D01*
Y20899D02*
Y22269D01*
X24952Y20552D02*
X25299Y20899D01*
X24086Y20552D02*
X24952D01*
X24019Y20619D02*
X24086Y20552D01*
X24173Y22725D02*
Y31595D01*
Y22725D02*
X24599Y22299D01*
Y21199D02*
Y22299D01*
X23699Y21499D02*
Y31399D01*
X37199Y36299D02*
Y36789D01*
X35569Y38419D02*
X37199Y36789D01*
X31699Y21099D02*
Y23099D01*
X26099Y42099D02*
X31899Y36299D01*
X33599*
X29999Y34999D02*
X33799D01*
X34299Y35499*
X31782Y39016D02*
Y42252D01*
Y39016D02*
X33852Y36946D01*
X33867*
X34299Y36514*
Y35499D02*
Y36514D01*
G54D28*
X41899Y45799D02*
X45499D01*
X47799Y45599D02*
X48931Y44467D01*
X45699Y45599D02*
X47799D01*
X44649Y39649D02*
X46789D01*
X40499Y35499D02*
X44649Y39649D01*
X43349Y43574D02*
X43774Y43999D01*
X45699*
X43349Y43574D02*
X43624D01*
X43149Y46349D02*
X43899Y45599D01*
X43149Y46349D02*
Y47399D01*
X08299Y19144D02*
Y20876D01*
X06856Y22319D02*
X08299Y20876D01*
X06319Y22319D02*
X06856D01*
X10919Y19579D02*
Y22403D01*
X08999Y24323D02*
X10919Y22403D01*
X08999Y24323D02*
Y26399D01*
X09999Y19481D02*
Y22305D01*
X07861Y24443D02*
X09999Y22305D01*
X07861Y24443D02*
Y25857D01*
X09199Y19263D02*
Y21979D01*
X06319Y24859D02*
X09199Y21979D01*
X06539Y32459D02*
X07139Y31859D01*
X06319Y27399D02*
X07861Y25857D01*
X04539Y28799D02*
X05877D01*
X01199D02*
X02977D01*
X04472Y28866D02*
X04539Y28799D01*
X03045Y28866D02*
X04472D01*
X02977Y28799D02*
X03045Y28866D01*
X07024Y28955D02*
X08643D01*
X07012Y28942D02*
X07024Y28955D01*
X0602Y28942D02*
X07012D01*
X05877Y28799D02*
X0602Y28942D01*
X08643Y28955D02*
X09499Y28099D01*
X17069Y04004D02*
Y04623D01*
X22659Y1225D02*
Y16903D01*
X17908Y07499D02*
X22659Y1225D01*
X14349Y07499D02*
X17908D01*
X23379Y11951D02*
Y17223D01*
X17777Y06349D02*
X23379Y11951D01*
X16699Y06349D02*
X17777D01*
X24099Y11653D02*
Y17521D01*
X17069Y04623D02*
X24099Y11653D01*
X15108Y46008D02*
X1647D01*
X14699Y39199D02*
Y45599D01*
X26699Y38499D02*
X28074D01*
X28749Y37824*
X15381Y35999D02*
X20199Y31181D01*
X07599Y35999D02*
X15381D01*
X20199Y24399D02*
Y31181D01*
X22474Y37599D02*
X22499Y37574D01*
Y36999D02*
Y37574D01*
X14699Y39199D02*
X22929Y30969D01*
X14699Y45599D02*
Y46299D01*
X14799Y46399*
X14699Y45599D02*
X15108Y46008D01*
X27624Y30174D02*
X29699Y28099D01*
X45559Y27089D02*
X46049Y26599D01*
X45559Y27089D02*
Y28999D01*
X26119Y17779D02*
Y19399D01*
X30199Y22399D02*
Y23684D01*
X29899Y22099D02*
X30199Y22399D01*
X29199Y22099D02*
X29899D01*
X29179Y25694D02*
X30199Y26714D01*
X29179Y24704D02*
X30199Y23684D01*
Y26714D02*
Y27749D01*
X29179Y24704D02*
Y25694D01*
X22163Y17399D02*
X22659Y16903D01*
X22403Y18199D02*
X23379Y17223D01*
X22621Y18999D02*
X24099Y17521D01*
X21599Y18999D02*
X22621D01*
X21599Y18199D02*
X22403D01*
X21599Y17399D02*
X22163D01*
X22929Y20069D02*
Y30969D01*
X23599Y19399D02*
X24299D01*
X22929Y20069D02*
X23599Y19399D01*
X22209Y23109D02*
Y30189D01*
X22099Y22999D02*
X22209Y23109D01*
X21599Y22999D02*
X22099D01*
X15679Y36719D02*
X22209Y30189D01*
X31899Y13599D02*
X33899D01*
X19399Y14949D02*
X20299Y14049D01*
X13199Y18999D02*
X16899D01*
X18599Y12939D02*
Y15999D01*
Y12939D02*
X19539Y11999D01*
X33949Y13649D02*
X36099Y11499D01*
X33899Y13599D02*
X33949Y13649D01*
X32299Y10099D02*
Y11499D01*
X47499Y25099D02*
Y28399D01*
X48099Y28999*
X35749Y22699D02*
X42349D01*
X45999Y26549D02*
X46049Y26599D01*
X45999Y20599D02*
Y26549D01*
X34499Y23699D02*
X35299D01*
X33749Y22949D02*
X34499Y23699D01*
X34549Y21499D02*
X36549D01*
X36899Y21149*
X40099Y22799D02*
X40199Y22899D01*
Y25199*
X41349Y26349*
X43749*
Y24899D02*
Y26349D01*
X34549Y21499D02*
X35749Y22699D01*
X40499Y33399D02*
Y35499D01*
X45499Y45799D02*
X45699Y45599D01*
X40499Y44399D02*
X41899Y45799D01*
X45699Y43999D02*
X46999D01*
X49099Y41899*
Y34699D02*
Y41899D01*
X48119Y33719D02*
X49099Y34699D01*
X48119Y33399D02*
Y33719D01*
X28649Y19199D02*
X31899D01*
X33299Y20599*
X31699Y09499D02*
X32299Y10099D01*
X27499Y09499D02*
X31699D01*
X26899Y10099D02*
X27499Y09499D01*
X26899Y10099D02*
Y14699D01*
X28129Y15929*
X37499*
Y16799*
X38799Y16099D02*
Y21199D01*
X37699Y14999D02*
X38799Y16099D01*
X30299Y14999D02*
X37699D01*
X48099Y28999D02*
X48119Y29019D01*
Y33399*
X06064Y48899D02*
X10149D01*
X27999Y10999D02*
X28899Y11899D01*
Y13599*
X30299Y14999*
X36449Y22799D02*
Y30399D01*
X27449Y26674D02*
X27974Y26149D01*
X27449Y26674D02*
Y27599D01*
X26119Y17779D02*
X26999Y16899D01*
X34549*
X28649Y19199D02*
X29199Y19749D01*
X22723Y01495D02*
X30343D01*
X29199Y19749D02*
Y22099D01*
X33899Y21199D02*
Y21499D01*
X34199*
X33299Y20599D02*
X33899Y21199D01*
X32599Y22799D02*
X33899Y21499D01*
X19399Y14949D02*
Y15999D01*
X15599Y21399D02*
X16399Y22199D01*
X13199Y21399D02*
X15599D01*
X16399Y22199D02*
X21599D01*
X16499Y20599D02*
X21599D01*
X15699Y19799D02*
X16499Y20599D01*
X13199Y19799D02*
X15699D01*
X17199Y18999D02*
X17999Y19799D01*
X21599*
X14549Y09049D02*
X16699D01*
X14449Y08949D02*
X14549Y09049D01*
X03279Y14119D02*
X03899Y13499D01*
Y11454D02*
Y13499D01*
X01299Y06499D02*
X02099D01*
X00599Y07199D02*
X01299Y06499D01*
X00599Y07199D02*
Y15399D01*
X01239Y16039*
Y17239*
X02099Y11579D02*
X03599Y10079D01*
Y09214D02*
Y10079D01*
X02099Y09039D02*
X03799Y07339D01*
Y04999D02*
Y07339D01*
X02099Y14119D02*
X03279D01*
X09245Y06199D02*
X11499D01*
X13699Y09699D02*
X14449Y08949D01*
X13149Y06299D02*
X14349Y07499D01*
X01299Y06499D02*
X01302Y06496D01*
Y00596D02*
Y06496D01*
Y00596D02*
X03696D01*
X05299Y02199*
X16999Y11999D02*
X17799Y12799D01*
Y15999*
X16999Y14363D02*
Y15999D01*
X14421Y15339D02*
X14599Y15517D01*
X14823Y14619D02*
X15399Y15195D01*
X15517Y13899D02*
X16199Y14581D01*
X06319Y19779D02*
X06437D01*
X06319Y17239D02*
X07959D01*
X15399Y15195D02*
Y15999D01*
X14599Y15517D02*
Y15999D01*
X08379Y36719D02*
X15679D01*
X04419Y40679D02*
X08379Y36719D01*
X03739Y40679D02*
X04419D01*
X01199Y17279D02*
Y45759D01*
Y17279D02*
X01239Y17239D01*
X05459Y38139D02*
X07599Y35999D01*
X14679Y33819D02*
Y34599D01*
Y33819D02*
X19399Y29099D01*
Y24399D02*
Y29099D01*
X18599Y24399D02*
Y28817D01*
X12817Y34599D02*
X18599Y28817D01*
X17799Y24399D02*
Y28599D01*
X13099Y33299D02*
X17799Y28599D01*
X11199Y33299D02*
X13099D01*
X16199Y24399D02*
Y28999D01*
X12619Y32579D02*
X16199Y28999D01*
X08759Y32579D02*
X12619D01*
X12139Y34599D02*
X12817D01*
X06319Y35019D02*
X08759Y32579D01*
X07139Y31859D02*
X12139D01*
X15399Y28599*
X09399Y35099D02*
X11199Y33299D01*
X11499Y31099D02*
X14599Y27999D01*
X07599Y31099D02*
X11499D01*
X06499Y29999D02*
X07599Y31099D01*
X03739Y38139D02*
X05459D01*
X16199Y14581D02*
Y15999D01*
X15399Y24399D02*
Y28599D01*
X14599Y24399D02*
Y27999D01*
X10499Y24859D02*
X10599Y24959D01*
Y26399*
X11799Y21399D02*
X13199D01*
X11063Y17399D02*
X13199D01*
X11281Y18199D02*
X13199D01*
X09999Y19481D02*
X11281Y18199D01*
X09199Y19263D02*
X11063Y17399D01*
X11499Y18999D02*
X13199D01*
X10919Y19579D02*
X11499Y18999D01*
X11817Y19799D02*
X13199D01*
X10919Y20599D02*
X13199D01*
X12381Y22199D02*
X13199D01*
X10499Y24081D02*
Y24859D01*
Y24081D02*
X12381Y22199D01*
X12599Y22999D02*
X13199D01*
X11899Y23699D02*
X12599Y22999D01*
X11899Y23699D02*
Y28599D01*
X10759Y29739D02*
X11899Y28599D01*
X10499Y29739D02*
X10759D01*
X08299Y19144D02*
X12104Y15339D01*
X14421*
X06437Y19779D02*
X11597Y14619D01*
X14823*
X07959Y17239D02*
X11299Y13899D01*
X15517*
X06779Y08665D02*
Y09719D01*
Y08665D02*
X09245Y06199D01*
X15294Y03729D02*
X15299Y03734D01*
X15304Y03729*
X16794*
X05069D02*
X15294D01*
X03799Y04999D02*
X05069Y03729D01*
X16794D02*
X17069Y04004D01*
X01199Y45759D02*
X02639Y47199D01*
X04364*
X06064Y48899*
X06719Y09779D02*
Y09844D01*
Y09779D02*
X06779Y09719D01*
X03899Y11454D02*
X04854Y10499D01*
X06064*
X06719Y09844*
X09627Y04799D02*
X14449D01*
X14549Y04899*
X06427Y07999D02*
X09627Y04799D01*
X05877Y07992D02*
X05884Y07999D01*
X06427*
X04821Y07992D02*
X05877D01*
X03599Y09214D02*
X04821Y07992D01*
G54D29*
X34336Y42266D02*
X34369Y42299D01*
X34336Y37262D02*
Y42266D01*
Y37262D02*
X36099Y35499D01*
X31099Y38099D02*
Y44099D01*
X31599Y44599*
X32199*
X34369Y42299D02*
X34434Y42234D01*
G54D30*
X16699Y05625D02*
Y06349D01*
X16099Y05025D02*
X16699Y05625D01*
X16099Y04949D02*
Y05025D01*
X16049Y04899D02*
X16099Y04949D01*
X25069Y11251D02*
Y17923D01*
X19199Y05381D02*
X25069Y11251D01*
X19199Y03999D02*
Y05381D01*
X18299Y41699D02*
Y48548D01*
Y41699D02*
X19799Y40199D01*
X18299Y48548D02*
X28243D01*
X1647D02*
X18299D01*
X13679Y48619D02*
X16399D01*
X1647Y48548*
X25599Y31099D02*
X26649Y30049D01*
X27499*
X25599Y31099D02*
Y34499D01*
X26099Y34999D02*
Y36819D01*
X25599Y34499D02*
X26099Y34999D01*
X27899Y33199D02*
X28699Y33999D01*
X27899Y32149D02*
Y33199D01*
X27499Y31749D02*
X27899Y32149D01*
X28699Y33999D02*
X36999D01*
X26099Y36819D02*
Y37174D01*
X24724Y38549D02*
X26099Y37174D01*
X23074Y40199D02*
X24724Y38549D01*
X19799Y40199D02*
X23074D01*
X29699Y28099D02*
X30549D01*
X29699D02*
D01*
X36999Y33999D02*
X37149D01*
X38649Y35499*
X36999Y33999D02*
X40179Y30819D01*
X45559*
Y28999D02*
Y30819D01*
Y28999D02*
X45579Y29019D01*
Y33399*
X27499Y31749D02*
X28249D01*
X27499Y31549D02*
Y31749D01*
X28249D02*
X29599Y30399D01*
X30549*
X30224Y25199D02*
X32099D01*
X32899Y25999*
Y31799*
X31999Y32699D02*
X32899Y31799D01*
X30549Y32699D02*
X31999D01*
X26119Y19399D02*
X26146D01*
X26099D02*
X26119D01*
X26146D02*
Y20714D01*
X27974Y24166D02*
X28419Y23721D01*
X26146Y20714D02*
X27711Y22279D01*
X27822*
X28419Y22877*
Y23721*
X27974Y24166D02*
Y24249D01*
X19199Y01799D02*
Y03999D01*
X19235Y04035D02*
X30343D01*
X19199Y03999D02*
X19235Y04035D01*
X24299Y18693D02*
Y19399D01*
Y18693D02*
X25069Y17923D01*
X11649Y48899D02*
X13399D01*
X13679Y48619*
X16399Y46079D02*
X1647Y46008D01*
X08999Y26399D02*
Y27599D01*
X09499Y28099*
X18299Y48548D02*
X23163D01*
X18299D02*
X20623D01*
G54D31*
X47929Y12521D03*
X02099Y06699D03*
X05372Y06672D03*
X47449Y37124D03*
X16399Y40999D03*
X12599Y44599D03*
X08799Y47099D03*
X01371Y48488D03*
G54D32*
X47929Y15061D03*
X02099Y14319D03*
Y11779D03*
Y09239D03*
X05372Y09212D03*
Y11752D03*
X12139Y34599D03*
X14679D03*
X16659Y01799D03*
X47449Y39664D03*
X19539Y11999D03*
X16399Y48619D03*
Y46079D03*
Y43539D03*
X48119Y33399D03*
X45579D03*
X43039D03*
X40479Y28999D03*
X43019D03*
X45559D03*
X12599Y47139D03*
X08799Y44559D03*
X03911Y48488D03*
X01371Y45948D03*
X03911D03*
X01371Y43408D03*
X03911D03*
X01371Y40868D03*
X03911D03*
X01371Y38328D03*
X03911D03*
G54D33*
X33044Y48386D03*
G54D34*
X35584Y48386D03*
X33044Y45846D03*
X35584D03*
X33044Y43306D03*
X35584D03*
X33044Y40766D03*
X35584D03*
X33044Y38226D03*
X35584D03*
G54D35*
X40049Y17699D03*
X42149D03*
G54D36*
X10674Y29539D03*
G54D37*
X10674Y24659D03*
G54D38*
X08Y02361D03*
G54D39*
X0546Y02361D03*
X0292D03*
G54D40*
X01421Y17474D03*
Y20014D03*
Y22554D03*
Y25094D03*
Y27634D03*
Y30174D03*
Y32714D03*
X03961Y17474D03*
Y20014D03*
Y22554D03*
Y25094D03*
Y27634D03*
Y30174D03*
Y32714D03*
X01421Y35254D03*
X06501D03*
Y32714D03*
Y30174D03*
Y27634D03*
Y25094D03*
Y22554D03*
Y20014D03*
Y17474D03*
X03961Y35254D03*
X20623Y48348D03*
X23163D03*
X25703D03*
X28243D03*
X20623Y45808D03*
X23163D03*
X25703D03*
X28243D03*
Y43268D03*
X25703D03*
X23163D03*
X20623D03*
X22707Y01675D03*
X25247D03*
X27787D03*
X30327D03*
X22707Y04215D03*
X25247D03*
X27787D03*
X30327D03*
Y06755D03*
X27787D03*
X25247D03*
X22707D03*
G54D41*
X09599Y34599D03*
X19199Y01799D03*
X16999Y11999D03*
X40499Y33399D03*
X48099Y28999D03*
G54D42*
X39999Y39999D03*
X09999D03*
Y09999D03*
X39999D03*
G54D43*
X48931Y44467D03*
X43149Y47399D03*
X43624Y43574D03*
X19399Y47299D03*
X15499Y22999D03*
X26699Y38499D03*
X24499Y33599D03*
X17879Y39034D03*
X22499Y36999D03*
X16899Y38184D03*
X16099Y38899D03*
X21799Y34099D03*
X26799Y33099D03*
X31099Y38099D03*
X23299Y34499D03*
X22799Y30999D03*
X23699Y21499D03*
X24019Y20619D03*
X24599Y21199D03*
X31899Y13599D03*
X20299Y14049D03*
X32299Y11499D03*
X30699D03*
X47499Y25099D03*
X45999Y20599D03*
X37199Y36299D03*
X33749Y22949D03*
X35299Y23699D03*
X35199Y22299D03*
X44299Y24299D03*
X41599Y22399D03*
X36099Y35499D03*
X34369Y42299D03*
X41599Y24299D03*
X43999Y21799D03*
X40499Y44399D03*
X36099Y11499D03*
X38799Y21199D03*
X27999Y10999D03*
X27399Y23299D03*
X35199Y20199D03*
X29199Y22099D03*
X33299Y20599D03*
X32599Y22799D03*
X27399Y20299D03*
X31699Y21099D03*
Y23099D03*
X10799Y20499D03*
X16899Y19099D03*
X13699Y09699D03*
X16999Y14363D03*
X11799Y21399D03*
X11817Y19799D03*
X32199Y44599D03*
X33599Y36299D03*
G54D44*
X29699Y35574D03*
X27799D03*
X28749Y37824D03*
G54D45*
X30549Y28099D03*
Y30399D03*
Y32699D03*
X34549Y21499D03*
Y19199D03*
Y16899D03*
G54D46*
X36449Y30399D03*
X28649Y19199D03*
G54D47*
X26099Y19399D03*
X24299D03*
G54D48*
X13199Y17399D03*
Y18199D03*
Y18999D03*
Y19799D03*
Y20599D03*
Y21399D03*
Y22199D03*
Y22999D03*
X21599D03*
Y22199D03*
Y21399D03*
Y20599D03*
Y19799D03*
Y18999D03*
Y18199D03*
Y17399D03*
G54D49*
X14599Y24399D03*
X15399D03*
X16199D03*
X16999D03*
X17799D03*
X18599D03*
X19399D03*
X20199D03*
Y15999D03*
X19399D03*
X18599D03*
X17799D03*
X16999D03*
X16199D03*
X15399D03*
X14599D03*
G54D50*
X21299Y11837D02*
Y14299D01*
X20161Y10699D02*
X21299Y11837D01*
X13999Y10699D02*
X20161D01*
X20199Y15399D02*
X21299Y14299D01*
X05439Y11639D02*
X06999Y13199D01*
X20199Y15399D02*
Y15999D01*
X06999Y13199D02*
X11499D01*
X13999Y10699*
G54D51*
X26099Y36819D02*
X29279D01*
X29699Y35574D02*
Y36399D01*
X29279Y36819D02*
X29699Y36399D01*
G54D52*
X36899Y19649D02*
X37499Y19049D01*
Y18399D02*
Y19049D01*
X36449Y19199D02*
X36899Y19649D01*
X34549Y19199D02*
X36449D01*
X34549D02*
X35199Y19849D01*
Y20199*
G54D55*
X39977Y34413D02*
X39486D01*
Y3267*
X39437Y32649*
X38162Y33924*
X38774Y34536*
X39399*
X39526*
X39977*
Y34413*
X30545Y3193D02*
X31681D01*
X3213Y31481*
Y31209*
X32076Y31163*
X306*
X30554Y31169*
X29918*
X29199Y31887*
X2922Y31936*
X30499*
X30545Y3193*
M02*