%FSTAX23Y23*%
%MOMM*%
%SFA1B1*%

%IPPOS*%
%ADD26C,0.200000*%
%ADD27C,0.253999*%
%ADD52C,0.599999*%
%ADD53C,0.000000*%
%ADD54C,0.250000*%
%ADD55C,0.127000*%
%ADD56C,0.152000*%
%ADD57C,0.203000*%
%LNpcb_final_2-1*%
%LPD*%
G54D26*
X46659Y16331D02*
X49199D01*
Y11251D02*
Y16331D01*
X46659Y11251D02*
X49199D01*
X46659D02*
Y16331D01*
X23599Y38599D02*
X24799D01*
X20499D02*
X21699D01*
X18499D02*
X19699D01*
X17349Y15399D02*
Y16199D01*
X18849Y15399D02*
Y16199D01*
X15927Y32794D02*
X21769D01*
X15673Y21364D02*
X21515D01*
X37014Y36727D02*
Y49885D01*
X31614Y36727D02*
X37014D01*
X31614D02*
Y49885D01*
X37014*
X44199Y35349D02*
Y36449D01*
X08324Y32799D02*
X13024D01*
Y21399D02*
Y32799D01*
X08324Y21399D02*
X13024D01*
X08324D02*
Y32799D01*
X00829Y05429D02*
X03369D01*
X00829D02*
Y15589D01*
X03369Y05429D02*
Y15589D01*
X00829D02*
X03369D01*
X18699Y03949D02*
Y05049D01*
X22849Y11799D02*
Y12599D01*
X21349Y11799D02*
Y12599D01*
X25199Y09499D02*
X26099D01*
X25199D02*
Y10299D01*
Y12499D02*
X26099D01*
X25199Y11699D02*
Y12499D01*
X13049Y02999D02*
X14149D01*
X11349D02*
X12449D01*
X06642Y05402D02*
Y13022D01*
X04102D02*
X06642D01*
X04102Y05402D02*
Y13022D01*
Y05402D02*
X06642D01*
X0011Y00611D02*
X1081D01*
X0011Y00111D02*
X1081D01*
X0011Y04911D02*
X1081D01*
Y00111D02*
Y04911D01*
X0011Y00111D02*
Y04911D01*
X12799Y04949D02*
Y06049D01*
X08329Y33329D02*
X15949D01*
Y35869*
X08329D02*
X15949D01*
X08329Y33329D02*
Y35869D01*
X15389Y00529D02*
Y03069D01*
X20469*
Y00529D02*
Y03069D01*
X15389Y00529D02*
X20469D01*
X42349Y44924D02*
X43449D01*
X39049Y47499D02*
X40149D01*
X40749D02*
X41849D01*
X46179Y40934D02*
X48719D01*
Y35854D02*
Y40934D01*
X46179Y35854D02*
X48719D01*
X46179D02*
Y40934D01*
X20809Y10729D02*
Y13269D01*
X15729Y10729D02*
X20809D01*
X15729D02*
Y13269D01*
X20809*
X27149Y17849D02*
Y26549D01*
X35849Y17849D02*
Y26549D01*
X27149D02*
X35849D01*
X27149Y17849D02*
X35849D01*
X15129Y39729D02*
X17669D01*
X15129D02*
Y49889D01*
X17669Y39729D02*
Y49889D01*
X15129D02*
X17669D01*
X39229Y32129D02*
Y34669D01*
X49389*
X39229Y32129D02*
X49389D01*
Y34669*
X31499Y10149D02*
Y11249D01*
Y11849D02*
Y12949D01*
X49369Y27729D02*
Y30269D01*
X39209Y27729D02*
X49369D01*
X39209Y30269D02*
X49369D01*
X39209Y27729D02*
Y30269D01*
X11329Y48409D02*
X13869D01*
Y43329D02*
Y48409D01*
X11329Y43329D02*
X13869D01*
X11329D02*
Y48409D01*
X07529Y43289D02*
X10069D01*
X07529D02*
Y48369D01*
X10069*
Y43289D02*
Y48369D01*
X31649Y31999D02*
X32949D01*
X46799Y23049D02*
Y24149D01*
X00101Y37058D02*
X05181D01*
X00101Y49758D02*
X05181D01*
Y37058D02*
Y49758D01*
X00101Y37058D02*
Y49758D01*
G54D27*
X00151Y36524D02*
X07771D01*
X00151Y16204D02*
Y36524D01*
Y16204D02*
X07771D01*
Y36524*
X29767Y41744D02*
Y49872D01*
X19099D02*
X29767D01*
X19099Y41744D02*
Y49872D01*
Y41744D02*
X29767D01*
X31851Y00151D02*
Y08279D01*
X21183Y00151D02*
X31851D01*
X21183D02*
Y08279D01*
X31851*
X47583Y4225D02*
Y43519D01*
X47329Y43773*
X46821*
X46567Y43519*
Y4225*
X45043Y43773D02*
X46059D01*
X45043Y42758*
Y42504*
X45297Y4225*
X45805*
X46059Y42504*
X44551Y18134D02*
Y16865D01*
X44805Y16611*
X45312*
X45566Y16865*
Y18134*
X4709Y1788D02*
X46836Y18134D01*
X46328*
X46074Y1788*
Y17626*
X46328Y17372*
X46836*
X4709Y17118*
Y16865*
X46836Y16611*
X46328*
X46074Y16865*
X47598Y18134D02*
Y16611D01*
X48359*
X48613Y16865*
Y17118*
X48359Y17372*
X47598*
X48359*
X48613Y17626*
Y1788*
X48359Y18134*
X47598*
X17099Y33199D02*
Y34723D01*
X17861*
X18115Y34469*
Y33961*
X17861Y33707*
X17099*
X17607D02*
X18115Y33199D01*
X19638Y34723D02*
X18623D01*
Y33961*
X1913Y34215*
X19384*
X19638Y33961*
Y33453*
X19384Y33199*
X18876*
X18623Y33453*
X26799Y35299D02*
Y36823D01*
X27561*
X27815Y36569*
Y36061*
X27561Y35807*
X26799*
X27307D02*
X27815Y35299D01*
X28323Y36569D02*
X28576Y36823D01*
X29084*
X29338Y36569*
Y36315*
X29084Y36061*
X2883*
X29084*
X29338Y35807*
Y35553*
X29084Y35299*
X28576*
X28323Y35553*
X13282Y2799D02*
X13536D01*
X14044Y28498*
X13536Y29005*
X13282*
X14044Y28498D02*
X14806D01*
X13536Y29513D02*
X13282Y29767D01*
Y30275*
X13536Y30529*
X1379*
X14044Y30275*
Y30021*
Y30275*
X14298Y30529*
X14552*
X14806Y30275*
Y29767*
X14552Y29513*
X38599Y24623D02*
Y24369D01*
X39107Y23861*
X39615Y24369*
Y24623*
X39107Y23861D02*
Y23099D01*
X40123D02*
X4063D01*
X40376*
Y24623*
X40123Y24369*
X07687Y07012D02*
Y05742D01*
X07941Y05488*
X08449*
X08703Y05742*
Y07012*
X09972Y05488D02*
Y07012D01*
X09211Y0625*
X10226*
X23926Y17626D02*
Y16357D01*
X2418Y16103*
X24688*
X24941Y16357*
Y17626*
X25449Y16103D02*
X25957D01*
X25703*
Y17626*
X25449Y17372*
X13529Y21715D02*
X13275Y21461D01*
Y20953*
X13529Y20699*
X13783*
X14037Y20953*
Y21461*
X14291Y21715*
X14545*
X14799Y21461*
Y20953*
X14545Y20699*
X14799Y23238D02*
Y22223D01*
X13783Y23238*
X13529*
X13275Y22984*
Y22476*
X13529Y22223*
X46227Y10565D02*
X45973Y10819D01*
X45465*
X45211Y10565*
Y10311*
X45465Y10057*
X45973*
X46227Y09803*
Y09549*
X45973Y09295*
X45465*
X45211Y09549*
X46735Y09295D02*
X47242D01*
X46988*
Y10819*
X46735Y10565*
X33502Y34568D02*
Y36092D01*
X34263*
X34517Y35838*
Y3533*
X34263Y35076*
X33502*
X34009D02*
X34517Y34568D01*
X35025D02*
X35533D01*
X35279*
Y36092*
X35025Y35838*
X3731Y34568D02*
X36295D01*
X3731Y35584*
Y35838*
X37056Y36092*
X36549*
X36295Y35838*
X45287Y19151D02*
Y20674D01*
X46049*
X46303Y2042*
Y19912*
X46049Y19658*
X45287*
X45795D02*
X46303Y19151D01*
X46811D02*
X47319D01*
X47065*
Y20674*
X46811Y2042*
X4808Y19151D02*
X48588D01*
X48334*
Y20674*
X4808Y2042*
X26915Y13553D02*
Y14569D01*
X26661Y14823*
X26153*
X25899Y14569*
Y13553*
X26153Y13299*
X26661*
X26407Y13807D02*
X26915Y13299D01*
X26661D02*
X26915Y13553D01*
X28438Y14823D02*
X2793Y14569D01*
X27423Y14061*
Y13553*
X27676Y13299*
X28184*
X28438Y13553*
Y13807*
X28184Y14061*
X27423*
X14746Y03549D02*
Y04692D01*
X15317*
X15508Y04501*
Y0412*
X15317Y0393*
X14746*
X15889Y03549D02*
X16269D01*
X16079*
Y04692*
X15889Y04501*
X16841Y03549D02*
X17222D01*
X17031*
Y04692*
X16841Y04501*
X05247Y39788D02*
Y40295D01*
Y40042*
X06771*
Y39788*
Y40295*
X05501Y42073D02*
X05247Y41819D01*
Y41311*
X05501Y41057*
X06517*
X06771Y41311*
Y41819*
X06517Y42073*
X05501Y43596D02*
X05247Y43342D01*
Y42835*
X05501Y42581*
X05755*
X06009Y42835*
Y43342*
X06263Y43596*
X06517*
X06771Y43342*
Y42835*
X06517Y42581*
X06771Y44104D02*
X05247D01*
Y44866*
X05501Y4512*
X06009*
X06263Y44866*
Y44104*
X12599Y36299D02*
Y37823D01*
X13361*
X13615Y37569*
Y37061*
X13361Y36807*
X12599*
X14123Y37569D02*
X14376Y37823D01*
X14884*
X15138Y37569*
Y37315*
X14884Y37061*
X15138Y36807*
Y36553*
X14884Y36299*
X14376*
X14123Y36553*
Y36807*
X14376Y37061*
X14123Y37315*
Y37569*
X14376Y37061D02*
X14884D01*
X32797Y04842D02*
Y06365D01*
X33558*
X33812Y06111*
Y05603*
X33558Y05349*
X32797*
X3432Y06365D02*
Y04842D01*
X34828Y05349*
X35336Y04842*
Y06365*
X35844Y04842D02*
Y06365D01*
X36351Y05857*
X36859Y06365*
Y04842*
X37367D02*
X37875D01*
X37621*
Y06365*
X37367Y06111*
X36299Y28199D02*
Y29723D01*
X37061*
X37315Y29469*
Y28961*
X37061Y28707*
X36299*
X38838Y29723D02*
X37823D01*
Y28961*
X3833Y29215*
X38584*
X38838Y28961*
Y28453*
X38584Y28199*
X38076*
X37823Y28453*
X23977Y24612D02*
X22453D01*
Y25373*
X22707Y25627*
X23215*
X23469Y25373*
Y24612*
X23977Y26897D02*
X22453D01*
X23215Y26135*
Y27151*
X25475Y39547D02*
Y4107D01*
X26237*
X26491Y40816*
Y40309*
X26237Y40055*
X25475*
X26999Y4107D02*
Y39547D01*
X27507Y40055*
X28014Y39547*
Y4107*
X28522Y39547D02*
Y4107D01*
X2903Y40562*
X29538Y4107*
Y39547*
X31061D02*
X30046D01*
X31061Y40562*
Y40816*
X30807Y4107*
X303*
X30046Y40816*
X39499Y35199D02*
Y36723D01*
X40261*
X40515Y36469*
Y35961*
X40261Y35707*
X39499*
X42038Y35199D02*
X41023D01*
X42038Y36215*
Y36469*
X41784Y36723*
X41276*
X41023Y36469*
X12799Y41199D02*
Y42723D01*
X13561*
X13815Y42469*
Y41961*
X13561Y41707*
X12799*
X14323Y41199D02*
X1483D01*
X14576*
Y42723*
X14323Y42469*
X42429Y41432D02*
X42683Y41178D01*
X43191*
X43445Y41432*
Y42448*
X43191Y42701*
X42683*
X42429Y42448*
X41922Y42701D02*
X41414D01*
X41668*
Y41178*
X41922Y41432*
X40652Y41178D02*
X39636D01*
Y41432*
X40652Y42448*
Y42701*
X44094Y12927D02*
X4384Y12673D01*
Y12166*
X44094Y11912*
X45109*
X45363Y12166*
Y12673*
X45109Y12927*
X45363Y13435D02*
Y13943D01*
Y13689*
X4384*
X44094Y13435*
X45363Y15466D02*
X4384D01*
X44602Y14705*
Y1572*
X38715Y16869D02*
X38461Y17123D01*
X37953*
X37699Y16869*
Y15853*
X37953Y15599*
X38461*
X38715Y15853*
X39223Y15599D02*
X3973D01*
X39476*
Y17123*
X39223Y16869*
X40492D02*
X40746Y17123D01*
X41254*
X41508Y16869*
Y16615*
X41254Y16361*
X41*
X41254*
X41508Y16107*
Y15853*
X41254Y15599*
X40746*
X40492Y15853*
X34045Y10957D02*
X33834Y11169D01*
X33411*
X33199Y10957*
Y10111*
X33411Y09899*
X33834*
X34045Y10111*
X35103Y09899D02*
Y11169D01*
X34469Y10534*
X35315*
X34145Y12857D02*
X33934Y13069D01*
X33511*
X33299Y12857*
Y12011*
X33511Y11799*
X33934*
X34145Y12011*
X34569Y12857D02*
X3478Y13069D01*
X35203*
X35415Y12857*
Y12645*
X35203Y12434*
X34992*
X35203*
X35415Y12222*
Y12011*
X35203Y11799*
X3478*
X34569Y12011*
X36015Y02969D02*
X35761Y03223D01*
X35253*
X34999Y02969*
Y01953*
X35253Y01699*
X35761*
X36015Y01953*
X36523Y01699D02*
X3703D01*
X36776*
Y03223*
X36523Y02969*
G54D52*
X28449Y25549D02*
D01*
X28449Y2557*
X28447Y25591*
X28443Y25612*
X28438Y25632*
X28431Y25652*
X28424Y25672*
X28414Y2569*
X28404Y25708*
X28392Y25726*
X28379Y25742*
X28365Y25758*
X2835Y25772*
X28334Y25786*
X28317Y25798*
X28299Y25809*
X28281Y25819*
X28262Y25828*
X28242Y25835*
X28222Y25841*
X28202Y25845*
X28181Y25848*
X2816Y25849*
X28139*
X28118Y25848*
X28097Y25845*
X28077Y25841*
X28057Y25835*
X28037Y25828*
X28018Y25819*
X27999Y25809*
X27982Y25798*
X27965Y25786*
X27949Y25772*
X27934Y25758*
X2792Y25742*
X27907Y25726*
X27895Y25708*
X27885Y2569*
X27875Y25672*
X27868Y25652*
X27861Y25632*
X27856Y25612*
X27852Y25591*
X2785Y2557*
X27849Y25549*
X2785Y25529*
X27852Y25508*
X27856Y25487*
X27861Y25467*
X27868Y25447*
X27875Y25427*
X27885Y25409*
X27895Y25391*
X27907Y25373*
X2792Y25357*
X27934Y25341*
X27949Y25327*
X27965Y25313*
X27982Y25301*
X27999Y2529*
X28018Y2528*
X28037Y25271*
X28057Y25264*
X28077Y25258*
X28097Y25254*
X28118Y25251*
X28139Y2525*
X2816*
X28181Y25251*
X28202Y25254*
X28222Y25258*
X28242Y25264*
X28262Y25271*
X28281Y2528*
X28299Y2529*
X28317Y25301*
X28334Y25313*
X2835Y25327*
X28365Y25341*
X28379Y25357*
X28392Y25373*
X28404Y25391*
X28414Y25409*
X28424Y25427*
X28431Y25447*
X28438Y25467*
X28443Y25487*
X28447Y25508*
X28449Y25529*
X28449Y25549*
G54D53*
X47843Y44728D02*
D01*
X47843Y44742*
X47842Y44756*
X47839Y4477*
X47836Y44784*
X47831Y44797*
X47826Y4481*
X4782Y44822*
X47813Y44834*
X47805Y44846*
X47797Y44857*
X47787Y44867*
X47777Y44877*
X47767Y44886*
X47755Y44894*
X47743Y44902*
X47731Y44908*
X47718Y44914*
X47705Y44919*
X47692Y44923*
X47678Y44925*
X47664Y44927*
X4765Y44928*
X47637*
X47623Y44927*
X47609Y44925*
X47595Y44923*
X47582Y44919*
X47569Y44914*
X47556Y44908*
X47543Y44902*
X47532Y44894*
X4752Y44886*
X4751Y44877*
X475Y44867*
X4749Y44857*
X47482Y44846*
X47474Y44834*
X47467Y44822*
X47461Y4481*
X47456Y44797*
X47451Y44784*
X47448Y4477*
X47445Y44756*
X47444Y44742*
X47443Y44728*
X47444Y44715*
X47445Y44701*
X47448Y44687*
X47451Y44673*
X47456Y4466*
X47461Y44647*
X47467Y44635*
X47474Y44622*
X47482Y44611*
X4749Y446*
X475Y4459*
X4751Y4458*
X4752Y44571*
X47532Y44563*
X47543Y44555*
X47556Y44549*
X47569Y44543*
X47582Y44538*
X47595Y44534*
X47609Y44532*
X47623Y4453*
X47637Y44529*
X4765*
X47664Y4453*
X47678Y44532*
X47692Y44534*
X47705Y44538*
X47718Y44543*
X47731Y44549*
X47743Y44555*
X47755Y44563*
X47767Y44571*
X47777Y4458*
X47787Y4459*
X47797Y446*
X47805Y44611*
X47813Y44622*
X4782Y44635*
X47826Y44647*
X47831Y4466*
X47836Y44673*
X47839Y44687*
X47842Y44701*
X47843Y44715*
X47843Y44728*
G54D54*
X41257Y24949D02*
D01*
X41257Y24958*
X41256Y24967*
X41255Y24975*
X41253Y24984*
X4125Y24992*
X41247Y25*
X41243Y25008*
X41238Y25016*
X41234Y25023*
X41228Y2503*
X41222Y25036*
X41216Y25042*
X41209Y25048*
X41202Y25053*
X41195Y25058*
X41187Y25062*
X41179Y25065*
X41171Y25068*
X41163Y25071*
X41154Y25073*
X41146Y25074*
X41137Y25074*
X41128*
X41119Y25074*
X41111Y25073*
X41102Y25071*
X41094Y25068*
X41086Y25065*
X41078Y25062*
X4107Y25058*
X41063Y25053*
X41056Y25048*
X41049Y25042*
X41043Y25036*
X41037Y2503*
X41031Y25023*
X41026Y25016*
X41022Y25008*
X41018Y25*
X41015Y24992*
X41012Y24984*
X4101Y24975*
X41009Y24967*
X41008Y24958*
X41007Y24949*
X41008Y24941*
X41009Y24932*
X4101Y24924*
X41012Y24915*
X41015Y24907*
X41018Y24899*
X41022Y24891*
X41026Y24883*
X41031Y24876*
X41037Y24869*
X41043Y24863*
X41049Y24857*
X41056Y24851*
X41063Y24846*
X4107Y24841*
X41078Y24837*
X41086Y24834*
X41094Y24831*
X41102Y24828*
X41111Y24826*
X41119Y24825*
X41128Y24825*
X41137*
X41146Y24825*
X41154Y24826*
X41163Y24828*
X41171Y24831*
X41179Y24834*
X41187Y24837*
X41195Y24841*
X41202Y24846*
X41209Y24851*
X41216Y24857*
X41222Y24863*
X41228Y24869*
X41234Y24876*
X41238Y24883*
X41243Y24891*
X41247Y24899*
X4125Y24907*
X41253Y24915*
X41255Y24924*
X41256Y24932*
X41257Y24941*
X41257Y24949*
X27149Y09199D02*
D01*
X27149Y09208*
X27148Y09217*
X27147Y09225*
X27145Y09234*
X27142Y09242*
X27139Y0925*
X27135Y09258*
X2713Y09266*
X27126Y09273*
X2712Y0928*
X27114Y09286*
X27108Y09292*
X27101Y09298*
X27094Y09303*
X27087Y09308*
X27079Y09312*
X27071Y09315*
X27063Y09318*
X27055Y09321*
X27046Y09323*
X27038Y09324*
X27029Y09324*
X2702*
X27011Y09324*
X27003Y09323*
X26994Y09321*
X26986Y09318*
X26978Y09315*
X2697Y09312*
X26962Y09308*
X26955Y09303*
X26948Y09298*
X26941Y09292*
X26935Y09286*
X26929Y0928*
X26923Y09273*
X26918Y09266*
X26914Y09258*
X2691Y0925*
X26907Y09242*
X26904Y09234*
X26902Y09225*
X26901Y09217*
X269Y09208*
X26899Y09199*
X269Y09191*
X26901Y09182*
X26902Y09173*
X26904Y09165*
X26907Y09157*
X2691Y09149*
X26914Y09141*
X26918Y09133*
X26923Y09126*
X26929Y09119*
X26935Y09113*
X26941Y09107*
X26948Y09101*
X26955Y09096*
X26962Y09091*
X2697Y09087*
X26978Y09084*
X26986Y09081*
X26994Y09078*
X27003Y09076*
X27011Y09075*
X2702Y09075*
X27029*
X27038Y09075*
X27046Y09076*
X27055Y09078*
X27063Y09081*
X27071Y09084*
X27079Y09087*
X27087Y09091*
X27094Y09096*
X27101Y09101*
X27108Y09107*
X27114Y09113*
X2712Y09119*
X27126Y09126*
X2713Y09133*
X27135Y09141*
X27139Y09149*
X27142Y09157*
X27145Y09165*
X27147Y09173*
X27148Y09182*
X27149Y09191*
X27149Y09199*
X26099Y26624D02*
D01*
X26099Y26633*
X26098Y26642*
X26097Y2665*
X26095Y26659*
X26092Y26667*
X26089Y26675*
X26085Y26683*
X2608Y26691*
X26076Y26698*
X2607Y26705*
X26064Y26711*
X26058Y26717*
X26051Y26723*
X26044Y26728*
X26037Y26733*
X26029Y26737*
X26021Y2674*
X26013Y26743*
X26005Y26746*
X25996Y26748*
X25988Y26749*
X25979Y26749*
X2597*
X25961Y26749*
X25953Y26748*
X25944Y26746*
X25936Y26743*
X25928Y2674*
X2592Y26737*
X25912Y26733*
X25905Y26728*
X25898Y26723*
X25891Y26717*
X25885Y26711*
X25879Y26705*
X25873Y26698*
X25868Y26691*
X25864Y26683*
X2586Y26675*
X25857Y26667*
X25854Y26659*
X25852Y2665*
X25851Y26642*
X2585Y26633*
X25849Y26624*
X2585Y26616*
X25851Y26607*
X25852Y26599*
X25854Y2659*
X25857Y26582*
X2586Y26574*
X25864Y26566*
X25868Y26558*
X25873Y26551*
X25879Y26544*
X25885Y26538*
X25891Y26532*
X25898Y26526*
X25905Y26521*
X25912Y26516*
X2592Y26512*
X25928Y26509*
X25936Y26506*
X25944Y26503*
X25953Y26501*
X25961Y265*
X2597Y265*
X25979*
X25988Y265*
X25996Y26501*
X26005Y26503*
X26013Y26506*
X26021Y26509*
X26029Y26512*
X26037Y26516*
X26044Y26521*
X26051Y26526*
X26058Y26532*
X26064Y26538*
X2607Y26544*
X26076Y26551*
X2608Y26558*
X26085Y26566*
X26089Y26574*
X26092Y26582*
X26095Y2659*
X26097Y26599*
X26098Y26607*
X26099Y26616*
X26099Y26624*
G54D55*
X14283Y16899D02*
D01*
X14279Y17038*
X14264Y17176*
X1424Y17312*
X14207Y17446*
X14164Y17578*
X14112Y17706*
X14051Y17831*
X13982Y17951*
X13905Y18066*
X13819Y18175*
X13727Y18278*
X13627Y18374*
X13521Y18463*
X13409Y18544*
X13291Y18618*
X13169Y18683*
X13043Y18739*
X12913Y18786*
X12779Y18825*
X12644Y18853*
X12507Y18873*
X12369Y18882*
X1223*
X12092Y18873*
X11955Y18853*
X1182Y18825*
X11686Y18786*
X11556Y18739*
X1143Y18683*
X11307Y18618*
X1119Y18544*
X11078Y18463*
X10972Y18374*
X10872Y18278*
X1078Y18175*
X10694Y18066*
X10617Y17951*
X10548Y17831*
X10487Y17706*
X10435Y17578*
X10392Y17446*
X10359Y17312*
X10335Y17176*
X1032Y17038*
X10315Y16899*
X1032Y16761*
X10335Y16623*
X10359Y16487*
X10392Y16353*
X10435Y16221*
X10487Y16093*
X10548Y15968*
X10617Y15848*
X10694Y15733*
X1078Y15624*
X10872Y15521*
X10972Y15425*
X11078Y15336*
X1119Y15255*
X11307Y15181*
X1143Y15116*
X11556Y1506*
X11686Y15013*
X1182Y14974*
X11955Y14946*
X12092Y14926*
X1223Y14917*
X12369*
X12507Y14926*
X12644Y14946*
X12779Y14974*
X12913Y15013*
X13043Y1506*
X13169Y15116*
X13291Y15181*
X13409Y15255*
X13521Y15336*
X13627Y15425*
X13727Y15521*
X13819Y15624*
X13905Y15733*
X13982Y15848*
X14051Y15968*
X14112Y16093*
X14164Y16221*
X14207Y16353*
X1424Y16487*
X14264Y16623*
X14279Y16761*
X14283Y16899*
X48083Y04999D02*
D01*
X48079Y05138*
X48064Y05276*
X4804Y05412*
X48007Y05546*
X47964Y05678*
X47912Y05806*
X47851Y05931*
X47782Y06051*
X47705Y06166*
X47619Y06275*
X47527Y06378*
X47427Y06474*
X47321Y06563*
X47209Y06644*
X47091Y06718*
X46969Y06783*
X46843Y06839*
X46713Y06886*
X46579Y06925*
X46444Y06953*
X46307Y06973*
X46169Y06982*
X4603*
X45892Y06973*
X45755Y06953*
X4562Y06925*
X45486Y06886*
X45356Y06839*
X4523Y06783*
X45107Y06718*
X4499Y06644*
X44878Y06563*
X44772Y06474*
X44672Y06378*
X4458Y06275*
X44494Y06166*
X44417Y06051*
X44348Y05931*
X44287Y05806*
X44235Y05678*
X44192Y05546*
X44159Y05412*
X44135Y05276*
X4412Y05138*
X44115Y04999*
X4412Y04861*
X44135Y04723*
X44159Y04587*
X44192Y04453*
X44235Y04321*
X44287Y04193*
X44348Y04068*
X44417Y03948*
X44494Y03833*
X4458Y03724*
X44672Y03621*
X44772Y03525*
X44878Y03436*
X4499Y03355*
X45107Y03281*
X4523Y03216*
X45356Y0316*
X45486Y03113*
X4562Y03074*
X45755Y03046*
X45892Y03026*
X4603Y03017*
X46169*
X46307Y03026*
X46444Y03046*
X46579Y03074*
X46713Y03113*
X46843Y0316*
X46969Y03216*
X47091Y03281*
X47209Y03355*
X47321Y03436*
X47427Y03525*
X47527Y03621*
X47619Y03724*
X47705Y03833*
X47782Y03948*
X47851Y04068*
X47912Y04193*
X47964Y04321*
X48007Y04453*
X4804Y04587*
X48064Y04723*
X48079Y04861*
X48083Y04999*
X44343Y44928D02*
Y45228D01*
Y47628D02*
Y47928D01*
X47343Y47628D02*
Y47928D01*
X47043D02*
X47343D01*
X44343D02*
X44643D01*
X44343Y44928D02*
X44643D01*
X47043D02*
X47343D01*
Y45228*
X09505Y20249D02*
X15093D01*
X09505Y13549D02*
X15093D01*
Y20249*
X09505Y13549D02*
Y20249D01*
X42749Y02205D02*
Y07793D01*
X49449Y02205D02*
Y07793D01*
X42749D02*
X49449D01*
X42749Y02205D02*
X49449D01*
G54D56*
X20299Y34299D02*
Y34807D01*
X20553*
X20638Y34722*
Y34553*
X20553Y34468*
X20299*
X20468D02*
X20638Y34299D01*
X21061D02*
Y34807D01*
X20807Y34553*
X21145*
X32199Y14799D02*
Y15561D01*
X3258*
X32707Y15434*
Y1518*
X3258Y15053*
X32199*
X32453D02*
X32707Y14799D01*
X32961Y14672D02*
X33469D01*
X33723Y15561D02*
Y14799D01*
X33976Y15053*
X3423Y14799*
Y15561*
X34611Y15307D02*
X34865D01*
X34992Y1518*
Y14799*
X34611*
X34484Y14926*
X34611Y15053*
X34992*
X35246Y14799D02*
Y15561D01*
Y15053D02*
X35627Y15307D01*
X35246Y15053D02*
X35627Y14799D01*
X36389D02*
X36135D01*
X36008Y14926*
Y1518*
X36135Y15307*
X36389*
X36516Y1518*
Y15053*
X36008*
X3677Y14799D02*
X37023D01*
X36896*
Y15561*
X3677Y15434*
X39499Y19899D02*
Y20407D01*
X39753*
X39838Y20322*
Y20153*
X39753Y20068*
X39499*
X39668D02*
X39838Y19899D01*
X40007Y19814D02*
X40345D01*
X40515Y19899D02*
Y20407D01*
X40769*
X40853Y20322*
Y20153*
X40769Y20068*
X40515*
X40684D02*
X40853Y19899D01*
X41361Y20322D02*
X41276Y20407D01*
X41107*
X41022Y20322*
Y20238*
X41107Y20153*
X41276*
X41361Y20068*
Y19984*
X41276Y19899*
X41107*
X41022Y19984*
X4153Y20407D02*
X41869D01*
X417*
Y19899*
X42038D02*
X42207D01*
X42123*
Y20407*
X42038Y20322*
X20999Y08199D02*
X20491D01*
Y08453*
X20576Y08538*
X20745*
X2083Y08453*
Y08199*
Y08368D02*
X20999Y08538D01*
X21084Y08707D02*
Y09045D01*
X20491Y09215D02*
Y09384D01*
Y09299*
X20999*
Y09215*
Y09384*
Y09976D02*
Y09638D01*
X2066Y09976*
X20576*
X20491Y09892*
Y09723*
X20576Y09638*
X15599Y08299D02*
X15091D01*
Y08553*
X15176Y08638*
X15345*
X1543Y08553*
Y08299*
Y08468D02*
X15599Y08638D01*
X15684Y08807D02*
Y09145D01*
X15091Y09315D02*
Y09484D01*
Y09399*
X15599*
Y09315*
Y09484*
Y09738D02*
Y09907D01*
Y09823*
X15091*
X15176Y09738*
X11899Y12599D02*
Y13107D01*
X12153*
X12238Y13022*
Y12853*
X12153Y12768*
X11899*
X12068D02*
X12238Y12599D01*
X12745D02*
X12407D01*
X12745Y12938*
Y13022*
X12661Y13107*
X12491*
X12407Y13022*
X13253Y12599D02*
X12915D01*
X13253Y12938*
Y13022*
X13169Y13107*
X12999*
X12915Y13022*
X11299Y00899D02*
Y01407D01*
X11553*
X11638Y01322*
Y01153*
X11553Y01068*
X11299*
X11468D02*
X11638Y00899D01*
X11807D02*
X11976D01*
X11891*
Y01407*
X11807Y01322*
X1223Y00984D02*
X12315Y00899D01*
X12484*
X12569Y00984*
Y01322*
X12484Y01407*
X12315*
X1223Y01322*
Y01238*
X12315Y01153*
X12569*
X23399Y12899D02*
Y13661D01*
X2378*
X23907Y13534*
Y1328*
X2378Y13153*
X23399*
X23653D02*
X23907Y12899D01*
X24161D02*
X24415D01*
X24288*
Y13661*
X24161Y13534*
X24796D02*
X24923Y13661D01*
X25176*
X25303Y13534*
Y13407*
X25176Y1328*
X25303Y13153*
Y13026*
X25176Y12899*
X24923*
X24796Y13026*
Y13153*
X24923Y1328*
X24796Y13407*
Y13534*
X24923Y1328D02*
X25176D01*
X20853Y05817D02*
X20345D01*
Y06071*
X2043Y06156*
X20599*
X20684Y06071*
Y05817*
Y05987D02*
X20853Y06156D01*
Y06325D02*
Y06494D01*
Y0641*
X20345*
X2043Y06325*
X20345Y07087D02*
Y06748D01*
X20599*
X20514Y06918*
Y07002*
X20599Y07087*
X20768*
X20853Y07002*
Y06833*
X20768Y06748*
X38999Y48999D02*
Y49507D01*
X39253*
X39338Y49422*
Y49253*
X39253Y49168*
X38999*
X39168D02*
X39338Y48999D01*
X39507D02*
X39676D01*
X39591*
Y49507*
X39507Y49422*
X40184Y48999D02*
Y49507D01*
X3993Y49253*
X40269*
X38399Y43399D02*
Y43907D01*
X38653*
X38738Y43822*
Y43653*
X38653Y43568*
X38399*
X38568D02*
X38738Y43399D01*
X38907D02*
X39076D01*
X38991*
Y43907*
X38907Y43822*
X3933D02*
X39415Y43907D01*
X39584*
X39669Y43822*
Y43738*
X39584Y43653*
X39499*
X39584*
X39669Y43568*
Y43484*
X39584Y43399*
X39415*
X3933Y43484*
X20827Y33146D02*
Y33781D01*
X21144*
X2125Y33675*
Y33463*
X21144Y33358*
X20827*
X21039D02*
X2125Y33146D01*
X21462Y33675D02*
X21568Y33781D01*
X21779*
X21885Y33675*
Y33569*
X21779Y33463*
X21885Y33358*
Y33252*
X21779Y33146*
X21568*
X21462Y33252*
Y33358*
X21568Y33463*
X21462Y33569*
Y33675*
X21568Y33463D02*
X21779D01*
X25226Y28264D02*
X24464D01*
Y28644*
X24591Y28771*
X24845*
X24972Y28644*
Y28264*
Y28518D02*
X25226Y28771D01*
X24464Y29025D02*
Y29533D01*
X24591*
X25099Y29025*
X25226*
X26949Y28249D02*
X26187D01*
Y2863*
X26314Y28757*
X26568*
X26695Y2863*
Y28249*
Y28503D02*
X26949Y28757D01*
X26187Y29518D02*
X26314Y29264D01*
X26568Y29011*
X26822*
X26949Y29138*
Y29391*
X26822Y29518*
X26695*
X26568Y29391*
Y29011*
X43899Y37199D02*
Y37707D01*
X44153*
X44238Y37622*
Y37453*
X44153Y37368*
X43899*
X44068D02*
X44238Y37199D01*
X44745D02*
X44407D01*
X44745Y37538*
Y37622*
X44661Y37707*
X44491*
X44407Y37622*
X07099Y12699D02*
Y13207D01*
X07353*
X07438Y13122*
Y12953*
X07353Y12868*
X07099*
X07607Y13207D02*
Y12699D01*
X07776Y12868*
X07945Y12699*
Y13207*
X08115Y12699D02*
Y13207D01*
X08369*
X08453Y13122*
Y12953*
X08369Y12868*
X08115*
X08284D02*
X08453Y12699D01*
X08623D02*
X08792D01*
X08707*
Y13207*
X08623Y13122*
X14699Y44099D02*
X14191D01*
Y44353*
X14276Y44438*
X14445*
X1453Y44353*
Y44099*
X14784Y44607D02*
Y44945D01*
X14614Y45453D02*
X14276D01*
X14191Y45369*
Y45199*
X14276Y45115*
X14614*
X14699Y45199*
Y45369*
X1453Y45284D02*
X14699Y45453D01*
Y45369D02*
X14614Y45453D01*
X14191Y45961D02*
Y45623D01*
X14699*
Y45961*
X14445Y45623D02*
Y45792D01*
X14191Y4613D02*
Y463D01*
Y46215*
X14699*
Y4613*
Y463*
Y46892D02*
Y46554D01*
X1436Y46892*
X14276*
X14191Y46807*
Y46638*
X14276Y46554*
X10999Y44299D02*
X10491D01*
Y44553*
X10576Y44638*
X10745*
X1083Y44553*
Y44299*
X11084Y44807D02*
Y45145D01*
X10914Y45653D02*
X10576D01*
X10491Y45569*
Y45399*
X10576Y45315*
X10914*
X10999Y45399*
Y45569*
X1083Y45484D02*
X10999Y45653D01*
Y45569D02*
X10914Y45653D01*
X10491Y46161D02*
Y45823D01*
X10999*
Y46161*
X10745Y45823D02*
Y45992D01*
X10491Y4633D02*
Y465D01*
Y46415*
X10999*
Y4633*
Y465*
Y46754D02*
Y46923D01*
Y46838*
X10491*
X10576Y46754*
X20299Y14049D02*
X19537D01*
Y1443*
X19664Y14557*
X19918*
X20045Y1443*
Y14049*
X20426Y14811D02*
Y15319D01*
X19537Y15573D02*
Y15826D01*
Y15699*
X20299*
Y15573*
Y15826*
Y16715D02*
Y16207D01*
X19791Y16715*
X19664*
X19537Y16588*
Y16334*
X19664Y16207*
Y17477D02*
X19537Y1735D01*
Y17096*
X19664Y16969*
X20172*
X20299Y17096*
Y1735*
X20172Y17477*
X46149Y41524D02*
Y42286D01*
X4653*
X46657Y42159*
Y41905*
X4653Y41778*
X46149*
X46911Y41397D02*
X47419D01*
X47673Y42286D02*
X47926D01*
X47799*
Y41524*
X47673*
X47926*
X48815D02*
X48307D01*
X48815Y42032*
Y42159*
X48688Y42286*
X48434*
X48307Y42159*
X49577D02*
X4945Y42286D01*
X49196*
X49069Y42159*
Y41651*
X49196Y41524*
X4945*
X49577Y41651*
X08358Y16273D02*
X08274Y16188D01*
Y16019*
X08358Y15934*
X08697*
X08781Y16019*
Y16188*
X08697Y16273*
X08274Y16442D02*
X08781D01*
X08527*
Y16781*
X08274*
X08781*
Y1695D02*
X08274D01*
X08781Y17288*
X08274*
Y17458D02*
X08781D01*
Y17796*
X08358Y18304D02*
X08274Y18219D01*
Y1805*
X08358Y17966*
X08443*
X08527Y1805*
Y18219*
X08612Y18304*
X08697*
X08781Y18219*
Y1805*
X08697Y17966*
X01399Y03999D02*
Y04507D01*
X01653*
X01738Y04422*
Y04253*
X01653Y04168*
X01399*
X01907Y04507D02*
X02245D01*
Y04422*
X01907Y04084*
Y03999*
X18499Y41261D02*
Y40499D01*
X1888*
X19007Y40626*
Y41134*
X1888Y41261*
X18499*
X19261Y41134D02*
X19388Y41261D01*
X19642*
X19769Y41134*
Y41007*
X19642Y4088*
X19515*
X19642*
X19769Y40753*
Y40626*
X19642Y40499*
X19388*
X19261Y40626*
X20399Y41261D02*
Y40499D01*
X2078*
X20907Y40626*
Y41134*
X2078Y41261*
X20399*
X21669Y40499D02*
X21161D01*
X21669Y41007*
Y41134*
X21542Y41261*
X21288*
X21161Y41134*
X23599Y41261D02*
Y40499D01*
X2398*
X24107Y40626*
Y41134*
X2398Y41261*
X23599*
X24361Y40499D02*
X24615D01*
X24488*
Y41261*
X24361Y41134*
X17938Y18722D02*
X17853Y18807D01*
X17684*
X17599Y18722*
Y18384*
X17684Y18299*
X17853*
X17938Y18384*
X18445Y18299D02*
X18107D01*
X18445Y18638*
Y18722*
X18361Y18807*
X18191*
X18107Y18722*
X18615Y18299D02*
X18784D01*
X18699*
Y18807*
X18615Y18722*
X07076Y14238D02*
X06991Y14153D01*
Y13984*
X07076Y13899*
X07414*
X07499Y13984*
Y14153*
X07414Y14238*
X07499Y14745D02*
Y14407D01*
X0716Y14745*
X07076*
X06991Y14661*
Y14491*
X07076Y14407*
Y14915D02*
X06991Y14999D01*
Y15169*
X07076Y15253*
X07414*
X07499Y15169*
Y14999*
X07414Y14915*
X07076*
X12438Y07022D02*
X12353Y07107D01*
X12184*
X12099Y07022*
Y06684*
X12184Y06599*
X12353*
X12438Y06684*
X12607Y06599D02*
X12776D01*
X12691*
Y07107*
X12607Y07022*
X1303Y06684D02*
X13115Y06599D01*
X13284*
X13369Y06684*
Y07022*
X13284Y07107*
X13115*
X1303Y07022*
Y06938*
X13115Y06853*
X13369*
X41038Y49422D02*
X40953Y49507D01*
X40784*
X40699Y49422*
Y49084*
X40784Y48999*
X40953*
X41038Y49084*
X41207Y48999D02*
X41376D01*
X41291*
Y49507*
X41207Y49422*
X4163D02*
X41715Y49507D01*
X41884*
X41969Y49422*
Y49338*
X41884Y49253*
X41969Y49168*
Y49084*
X41884Y48999*
X41715*
X4163Y49084*
Y49168*
X41715Y49253*
X4163Y49338*
Y49422*
X41715Y49253D02*
X41884D01*
X13499Y00899D02*
X13668D01*
X13584*
Y01407*
X13499Y01322*
X14261Y00899D02*
X13922D01*
X14261Y01238*
Y01322*
X14176Y01407*
X14007*
X13922Y01322*
X1443Y01407D02*
Y01068D01*
X14599Y00899*
X14769Y01068*
Y01407*
X20345Y03978D02*
Y0364D01*
X20599*
X20514Y03809*
Y03894*
X20599Y03978*
X20768*
X20853Y03894*
Y03724*
X20768Y0364*
X20853Y04148D02*
X20768D01*
Y04232*
X20853*
Y04148*
X20345Y04909D02*
Y04571D01*
X20599*
X20514Y0474*
Y04825*
X20599Y04909*
X20768*
X20853Y04825*
Y04655*
X20768Y04571*
X20345Y05079D02*
X20684D01*
X20853Y05248*
X20684Y05417*
X20345*
X33705Y32071D02*
X33789Y32155D01*
X33959*
X34043Y32071*
Y31986*
X33959Y31901*
X33874*
X33959*
X34043Y31817*
Y31732*
X33959Y31647*
X33789*
X33705Y31732*
X34213Y32155D02*
Y31817D01*
X34382Y31647*
X34551Y31817*
Y32155*
X3472Y32071D02*
X34805Y32155D01*
X34974*
X35059Y32071*
Y31986*
X34974Y31901*
X3489*
X34974*
X35059Y31817*
Y31732*
X34974Y31647*
X34805*
X3472Y31732*
X35736Y31647D02*
Y31986D01*
X35821*
X35905Y31901*
Y31647*
Y31901*
X3599Y31986*
X36075Y31901*
Y31647*
X36244D02*
X36413D01*
X36329*
Y31986*
X36244*
X37006D02*
X36752D01*
X36667Y31901*
Y31732*
X36752Y31647*
X37006*
X37175Y31986D02*
Y31647D01*
Y31817*
X3726Y31901*
X37344Y31986*
X37429*
X37767Y31647D02*
X37937D01*
X38021Y31732*
Y31901*
X37937Y31986*
X37767*
X37683Y31901*
Y31732*
X37767Y31647*
X45499Y26945D02*
X45668Y27115D01*
X46007*
X46176Y26945*
Y26776*
X46007Y26607*
X45838*
X46007*
X46176Y26438*
Y26268*
X46007Y26099*
X45668*
X45499Y26268*
X46515Y26099D02*
Y26268D01*
X46684*
Y26099*
X46515*
X47361Y26945D02*
X4753Y27115D01*
X47869*
X48038Y26945*
Y26776*
X47869Y26607*
X477*
X47869*
X48038Y26438*
Y26268*
X47869Y26099*
X4753*
X47361Y26268*
X48377Y27115D02*
Y26438D01*
X48715Y26099*
X49054Y26438*
Y27115*
G54D57*
X30249Y45373D02*
Y4512D01*
Y45246*
X30884*
X31011Y4512*
Y44993*
X30884Y44866*
X30249Y45627D02*
Y46135D01*
Y45881*
X31011*
Y46389D02*
X30503D01*
X30249Y46643*
X30503Y46897*
X31011*
X3063*
Y46389*
X30376Y47659D02*
X30249Y47532D01*
Y47278*
X30376Y47151*
X30884*
X31011Y47278*
Y47532*
X30884Y47659*
X3063*
Y47405*
X05917Y47888D02*
X05071D01*
X05917Y48734*
Y48946*
X05705Y49157*
X05282*
X05071Y48946*
M02*